<?xml version="1.0" encoding="UTF-8" standalone="no"?>
<!-- Created with Inkscape (http://www.inkscape.org/) -->

<svg
   width="80.799751mm"
   height="13.761596mm"
   viewBox="0 0 80.799751 13.761596"
   version="1.1"
   id="svg1"
   xml:space="preserve"
   xmlns="http://www.w3.org/2000/svg"
   xmlns:svg="http://www.w3.org/2000/svg"><defs
     id="defs1" /><g
     id="layer11"
     style="display:inline"
     transform="translate(-65.278383,-110.71797)"><g
       id="g7"><path
         d="m 93.51857,113.17755 c -7.44176,-2.37014 -10.83921,4.03992 -13.94659,3.82032 -3.041036,-0.21511 -4.17208,2.08333 -6.715797,2.08333 -2.544109,0 -15.481133,1.59782 2.221852,1.87537 17.703185,0.27781 18.269595,-0.0693 18.440335,0.62521 0.17095,0.69453 -3.18823,0.41672 -11.13222,0.62521 -7.943602,0.20822 -8.520015,0.13864 -9.0036,0.83291 -0.483385,0.69479 -0.437853,1.11151 15.58575,1.11151 16.02358,0 21.62875,-0.90276 23.66062,-1.04166 2.03187,-0.13944 14.87783,0.97207 19.05384,1.04166 4.17601,0.0696 14.74614,-0.3474 14.38641,-2.63948 -0.35994,-2.29209 -1.60697,-1.87511 -5.90858,-2.431 -4.30163,-0.55562 -10.66395,-2.43072 -4.05531,-2.84744 6.60825,-0.41698 2.97685,-1.84071 -4.42232,-1.40653 -7.39878,0.43419 -15.94372,-0.81571 -12.28406,-1.44092 3.65945,-0.62494 -0.47946,-0.97234 -5.87679,-0.90302 -1.7734,0.023 -4.73025,-1.69519 -7.83881,-1.67825 -6.35486,0.0354 -13.34582,1.85949 -12.16473,2.37278"
         id="path7272"
         style="display:inline;fill:#ffffff;stroke-width:0.264583" /><path
         d="m 136.41834,123.12565 c 3.61712,-0.56276 -1.74757,-0.86968 -8.63149,-0.80406 -2.39026,0.023 -6.37674,-1.69519 -10.56721,-1.67799 -8.56747,0.0352 -17.99245,1.85923 -16.39914,2.37278 -4.72466,-1.11628 -8.23991,-0.28548 -11.07412,0.88318 2.02115,0.0119 4.32038,0.018 6.93658,0.018 21.6019,0 29.1584,-0.90276 31.89763,-1.04166 1.02579,-0.0521 4.09945,0.0712 7.83775,0.24976 z"
         id="path7298"
         style="display:inline;fill:#e6f0f4;stroke-width:0.264583" /><path
         d="m 132.30629,124.47946 c -0.3162,0 -0.61939,-0.002 -0.9001,-0.007 -1.96206,-0.0331 -5.84262,-0.29849 -9.59543,-0.55554 -3.87601,-0.26539 -7.53676,-0.51651 -9.07479,-0.51651 -0.1922,0 -0.34853,0.004 -0.46424,0.0124 -0.34498,0.0237 -0.80095,0.0708 -1.37816,0.13028 -2.928,0.30145 -9.02038,0.9294 -22.39088,0.9294 -6.35082,0 -10.41706,-0.0654 -12.79763,-0.20564 -2.40896,-0.14158 -2.948508,-0.34613 -3.038596,-0.62983 -0.05402,-0.17064 0.05914,-0.33537 0.133852,-0.44411 0.45143,-0.65647 0.925142,-0.66831 6.726744,-0.81501 0.70495,-0.0178 1.48992,-0.0377 2.36303,-0.0611 2.44937,-0.0651 4.46071,-0.0834 6.077,-0.0983 3.03564,-0.0277 4.86778,-0.0444 5.03988,-0.37197 0.007,-0.0132 0.01,-0.0261 0.004,-0.0493 -0.099,-0.40912 -0.52457,-0.411 -5.73616,-0.44142 -2.69027,-0.0153 -6.75592,-0.039 -12.725492,-0.13377 -3.250316,-0.0517 -5.679577,-0.1518 -7.219378,-0.29822 -0.687994,-0.0654 -1.206058,-0.14104 -1.53941,-0.22448 -0.36903,-0.0926 -0.512738,-0.18706 -0.512148,-0.33806 5.29e-4,-0.13189 0.0024,-0.44088 2.96369,-0.85619 1.471592,-0.20618 3.261948,-0.36794 4.076102,-0.36794 1.16998,0 2.030661,-0.49121 2.942204,-1.01095 0.968116,-0.55204 1.969552,-1.1232 3.405062,-1.1232 0.13169,0 0.26692,0.005 0.40196,0.0145 0.0508,0.004 0.1031,0.006 0.15494,0.006 1.05546,0 2.16905,-0.75822 3.45869,-1.63648 1.82624,-1.24377 4.09918,-2.79143 7.16675,-2.79143 0.9758,0 1.9934,0.15881 3.02756,0.47211 5.3e-4,-0.004 7.9e-4,-0.008 0.001,-0.0121 0.0103,-0.0915 0.0345,-0.30604 1.18437,-0.69927 0.73078,-0.24978 1.72393,-0.50602 2.87262,-0.74072 2.72023,-0.55608 5.76632,-0.88311 8.35703,-0.89764 h 0.0469 c 1.76177,0 3.45219,0.54773 4.94349,1.0306 1.13804,0.36875 2.1174,0.68608 2.88266,0.67666 0.454,-0.006 0.90603,-0.009 1.34385,-0.009 1.69968,0 3.16358,0.0436 4.23304,0.12597 1.77162,0.13619 1.7803,0.32648 1.78562,0.44034 0.006,0.12516 -0.0966,0.20617 -0.3783,0.29795 -0.23498,0.0764 -0.59573,0.15719 -1.07221,0.23956 -0.68759,0.11896 -0.80134,0.23874 -0.82006,0.26888 0.0617,0.13108 0.77552,0.44169 3.09399,0.72673 1.9928,0.24493 4.48634,0.38516 6.84049,0.38516 1.11498,0 2.19624,-0.0307 3.21345,-0.091 0.92534,-0.0552 1.83097,-0.0829 2.69125,-0.0829 1.48973,0 2.84581,0.0861 3.81806,0.24251 1.46687,0.23578 1.47179,0.51813 1.47376,0.62417 0.003,0.151 -0.0999,0.32918 -0.87941,0.50548 -0.60696,0.13754 -1.50037,0.24466 -2.65576,0.31841 -2.59525,0.16581 -2.80341,0.53939 -2.80519,0.65002 -0.004,0.20698 0.59534,0.62552 2.29541,1.12238 1.34641,0.39378 3.06087,0.74799 4.58648,0.94771 0.83386,0.109 1.5463,0.1806 2.17476,0.24358 1.30876,0.13135 2.17299,0.21802 2.76084,0.51194 0.60007,0.30038 0.90641,0.81824 1.05623,1.78721 0.0313,0.20159 -0.007,0.39539 -0.11493,0.57653 -0.47173,0.79455 -2.3437,1.39585 -5.56445,1.78667 -3.33311,0.40454 -6.91599,0.43603 -7.93458,0.43603 z m -19.57051,-1.25615 c 1.54098,0 5.2037,0.25058 9.08149,0.51624 3.75123,0.25705 7.63041,0.52244 9.59011,0.55554 0.2805,0.005 0.58271,0.007 0.89872,0.007 1.01721,0 4.59515,-0.0315 7.92354,-0.43522 3.13914,-0.3814 5.03259,-0.97678 5.47476,-1.7218 0.0828,-0.1397 0.11158,-0.27939 0.0887,-0.42796 -0.28111,-1.81601 -1.14277,-1.90241 -3.69938,-2.15891 -0.62944,-0.063 -1.34266,-0.13485 -2.17792,-0.24386 -1.53033,-0.20052 -3.25032,-0.55581 -4.60147,-0.95093 -0.72091,-0.21075 -1.29121,-0.41935 -1.69572,-0.61987 -0.48297,-0.23955 -0.70613,-0.45569 -0.70219,-0.68043 0.005,-0.29607 0.34281,-0.65728 2.92859,-0.82255 1.12899,-0.0721 2.00661,-0.17603 2.60806,-0.30899 0.77454,-0.17091 0.80351,-0.33241 0.80351,-0.33402 -5.2e-4,-0.002 -0.0436,-0.24359 -1.38485,-0.45622 -0.96536,-0.15288 -2.30665,-0.23686 -3.77705,-0.23686 -0.85832,0 -1.76198,0.0277 -2.68554,0.0826 -1.01937,0.0606 -2.10242,0.0912 -3.21917,0.0912 -2.39634,0 -4.92457,-0.14453 -6.9363,-0.39673 -3.1072,-0.38894 -3.12414,-0.76145 -3.12987,-0.88392 -0.007,-0.15019 0.10172,-0.30926 0.93519,-0.45353 0.98468,-0.17037 1.24884,-0.29472 1.31942,-0.35125 -0.08,-0.0552 -0.40886,-0.18464 -1.75843,-0.28234 -1.05683,-0.0767 -2.47894,-0.11709 -4.11258,-0.11709 -0.43743,0 -0.88926,0.003 -1.34286,0.009 -0.77868,0.009 -1.76729,-0.3098 -2.91381,-0.68123 -1.48441,-0.48072 -3.16713,-1.02603 -4.91353,-1.02603 h -0.0463 c -2.57336,0.0143 -5.60072,0.3386 -8.30676,0.88929 -1.14199,0.23229 -2.13198,0.48637 -2.86354,0.73427 -0.98389,0.33348 -1.10118,0.52593 -1.11459,0.55957 0.006,0.009 0.0268,0.0315 0.0859,0.0576 l -0.0347,0.17065 c -1.09744,-0.35394 -2.17753,-0.53347 -3.20971,-0.53347 -3.03682,0 -5.29458,1.53716 -7.10919,2.77259 -1.30403,0.88795 -2.43024,1.65478 -3.51644,1.65505 -0.054,0 -0.10882,-0.002 -0.16185,-0.006 -0.13286,-0.01 -0.26573,-0.0143 -0.39505,-0.0143 -1.40969,0 -2.398703,0.56415 -3.354994,1.10946 -0.923957,0.52701 -1.796468,1.02469 -2.992467,1.02469 -0.799174,0 -2.506342,0.15234 -3.97202,0.35421 -2.542612,0.35044 -2.886811,0.62902 -2.932938,0.69254 0.04968,0.0659 0.348726,0.24385 2.074227,0.39916 1.541968,0.13861 3.918596,0.23443 7.063256,0.2845 5.968966,0.0947 10.034426,0.11816 12.724486,0.13377 2.65676,0.0156 4.11968,0.0237 4.88278,0.0869 0.75127,0.0622 0.90287,0.17334 0.9762,0.47588 0.018,0.0743 0.0103,0.14642 -0.0219,0.20778 -0.21073,0.40078 -1.65512,0.41424 -5.14496,0.44627 -1.61569,0.0148 -3.62684,0.0331 -6.07522,0.0982 -0.8731,0.0231 -1.65788,0.0425 -2.36322,0.0606 -5.631674,0.14238 -6.220705,0.15746 -6.634292,0.75929 -0.06702,0.098 -0.127153,0.19649 -0.109407,0.25247 0.113352,0.35771 2.229765,0.48233 2.925243,0.52351 2.378406,0.1397 6.443066,0.2051 12.791916,0.2051 13.36577,0 19.4548,-0.6274 22.38123,-0.92886 0.57819,-0.0597 1.03455,-0.10659 1.38111,-0.13081 0.11887,-0.008 0.27736,-0.0119 0.47173,-0.0119 z"
         id="path7466"
         style="display:inline;fill:#6a8993;stroke-width:0.264583" /></g></g></svg>
