<?xml version="1.0" encoding="UTF-8" standalone="no"?>
<!-- Created with Inkscape (http://www.inkscape.org/) -->

<svg
   width="39.150539mm"
   height="10.30223mm"
   viewBox="0 0 39.150539 10.30223"
   version="1.1"
   id="svg1"
   xml:space="preserve"
   xmlns="http://www.w3.org/2000/svg"
   xmlns:svg="http://www.w3.org/2000/svg"><defs
     id="defs1" /><g
     id="layer10"
     style="display:inline"
     transform="translate(-101.07086,-111.91874)"><g
       id="g6"><path
         fill="#ffffff"
         d="m 112.36219,120.13386 c -0.0236,-0.20637 -0.16854,-0.36962 -0.35136,-0.3937 0.0185,-0.064 0.0283,-0.13202 0.0283,-0.20293 0,-0.36195 -0.25877,-0.6559 -0.57759,-0.6559 -0.0587,0 -0.11536,0.01 -0.16854,0.0283 -0.0503,-0.56039 -0.46752,-0.99748 -0.97472,-0.99748 -0.47308,0 -0.8681,0.38047 -0.95938,0.88688 -0.0333,-0.008 -0.068,-0.0127 -0.10372,-0.0127 -0.25294,0 -0.45905,0.22701 -0.46858,0.51171 -0.26881,0.0688 -0.4691,0.34131 -0.4691,0.66675 0,0.05 0.005,0.0987 0.0138,0.14578 -0.31433,0.17198 -0.53102,0.53684 -0.53102,0.95912 0,0.58816 0.41989,1.06415 0.93768,1.06415 0.0344,0 0.0685,-0.002 0.10187,-0.006 0.0265,0.004 0.0529,0.006 0.0802,0.006 v 0 0 h 3.04376 c 0.0307,0 0.0606,-0.004 0.0892,-0.0111 0.45271,-0.0757 0.80037,-0.51806 0.80037,-1.05304 0,-0.40429 -0.1987,-0.75592 -0.49107,-0.93584 z"
         id="path7064"
         style="display:inline;stroke-width:0.264583" /><path
         fill="#6a8993"
         d="m 111.96347,122.2209 h -3.04377 c -0.0267,0 -0.054,-0.002 -0.0812,-0.006 -0.0333,0.004 -0.0675,0.006 -0.10081,0.006 -0.56515,0 -1.02473,-0.5162 -1.02473,-1.15147 0,-0.42175 0.1987,-0.80036 0.52282,-1.00436 -0.004,-0.0333 -0.006,-0.0667 -0.006,-0.10054 0,-0.33787 0.19209,-0.62997 0.47413,-0.73263 0.0378,-0.30348 0.26961,-0.53314 0.55087,-0.53314 0.0119,0 0.0238,2.7e-4 0.0357,0.001 0.12726,-0.51197 0.54768,-0.87551 1.02737,-0.87551 0.51938,0 0.95541,0.41328 1.04855,0.97658 0.0312,-0.005 0.0624,-0.007 0.0945,-0.007 0.36644,0 0.66489,0.33337 0.66489,0.74295 0,0.0466 -0.004,0.0931 -0.0116,0.13864 0.16563,0.0593 0.2921,0.21352 0.32809,0.40587 0.30824,0.20796 0.49794,0.58209 0.49794,0.98769 0,0.56515 -0.37385,1.05384 -0.86968,1.1385 -0.0354,0.01 -0.0714,0.0135 -0.10742,0.0135 z m -2.70828,-3.34725 c -0.20584,0 -0.37333,0.18759 -0.38126,0.42731 l -0.002,0.0651 -0.0632,0.0164 c -0.23389,0.0601 -0.40376,0.30506 -0.40376,0.58235 0,0.0437 0.004,0.087 0.0122,0.12938 l 0.0116,0.0622 -0.0553,0.0307 c -0.29527,0.16113 -0.48551,0.50773 -0.48551,0.88238 0,0.53896 0.38127,0.97711 0.85037,0.97711 0.0304,0 0.0611,-0.002 0.0913,-0.006 l 0.0116,-0.002 0.0119,0.002 c 0.023,0.003 0.0455,0.005 0.0672,0.005 h 3.04377 c 0.0225,0 0.0452,-0.003 0.0675,-0.008 l 0.007,-0.002 c 0.41487,-0.0691 0.7276,-0.48445 0.7276,-0.96679 0,-0.36036 -0.17224,-0.69056 -0.44979,-0.86175 l -0.0362,-0.0222 -0.005,-0.0421 c -0.0193,-0.16801 -0.13255,-0.29819 -0.27622,-0.31724 l -0.10002,-0.0135 0.0278,-0.0971 c 0.0167,-0.0574 0.0249,-0.11748 0.0249,-0.1786 0,-0.31353 -0.22013,-0.56859 -0.49053,-0.56859 -0.0479,0 -0.0947,0.008 -0.13997,0.0236 l -0.10504,0.0368 -0.0101,-0.11113 c -0.0471,-0.52361 -0.42889,-0.91836 -0.88794,-0.91836 -0.42069,0 -0.78846,0.3429 -0.87392,0.81571 l -0.0167,0.0921 -0.0907,-0.023 c -0.0267,-0.007 -0.0542,-0.0103 -0.0818,-0.0103 z"
         id="path7066"
         style="display:inline;stroke-width:0.264583" /><path
         fill="#ffffff"
         d="m 119.53399,121.0697 c 0,-0.40402 -0.1987,-0.75565 -0.49107,-0.93584 -0.0233,-0.20637 -0.16854,-0.36962 -0.3511,-0.3937 0.018,-0.064 0.028,-0.13202 0.028,-0.20293 0,-0.36195 -0.25876,-0.6559 -0.57785,-0.6559 -0.0585,0 -0.11509,0.01 -0.16854,0.0283 -0.0503,-0.56039 -0.46752,-0.99748 -0.97446,-0.99748 -0.47334,0 -0.8681,0.38047 -0.95964,0.88688 -0.0333,-0.008 -0.068,-0.0127 -0.10398,-0.0127 -0.25295,0 -0.45879,0.22701 -0.46858,0.51171 -0.26855,0.0688 -0.46911,0.34131 -0.46911,0.66675 0,0.05 0.005,0.0987 0.014,0.14578 -0.31432,0.17198 -0.53128,0.53684 -0.53128,0.95912 0,0.58816 0.41989,1.06415 0.93768,1.06415 0.0344,0 0.0683,-0.002 0.10187,-0.006 0.0262,0.004 0.0529,0.006 0.0799,0.006 v 0 0 h 3.04403 c 0.0307,0 0.0603,-0.004 0.0889,-0.0111 0.45323,-0.0757 0.80116,-0.51806 0.80116,-1.05304 z"
         id="path7068"
         style="display:inline;stroke-width:0.264583" /><path
         fill="#6a8993"
         d="m 118.64419,122.2209 h -3.04403 c -0.0265,0 -0.0537,-0.002 -0.081,-0.006 -0.0333,0.004 -0.0675,0.006 -0.1008,0.006 -0.56489,0 -1.025,-0.5162 -1.025,-1.15147 0,-0.42175 0.19897,-0.80036 0.52308,-1.00436 -0.004,-0.0331 -0.006,-0.0664 -0.006,-0.10054 0,-0.33787 0.19235,-0.62997 0.47414,-0.73263 0.0378,-0.30348 0.26987,-0.53314 0.55086,-0.53314 0.0119,0 0.0241,2.7e-4 0.036,0.001 0.12726,-0.51197 0.54769,-0.87551 1.02738,-0.87551 0.51937,0 0.95541,0.41328 1.04827,0.97658 0.0312,-0.005 0.0627,-0.007 0.0945,-0.007 0.36672,0 0.66517,0.33337 0.66517,0.74295 0,0.0466 -0.004,0.0931 -0.0119,0.13864 0.16589,0.0593 0.2921,0.21352 0.32782,0.40587 0.30824,0.20796 0.49794,0.58209 0.49794,0.98769 0,0.56515 -0.37359,1.05357 -0.86968,1.1385 -0.0349,0.01 -0.0709,0.0135 -0.1069,0.0135 z m -2.70853,-3.34725 c -0.20585,0 -0.37333,0.18759 -0.38127,0.42731 l -0.002,0.0651 -0.063,0.0164 c -0.23389,0.0601 -0.40402,0.30506 -0.40402,0.58235 0,0.0437 0.005,0.087 0.0124,0.12938 l 0.0119,0.0622 -0.0556,0.0307 c -0.29527,0.16113 -0.48577,0.50773 -0.48577,0.88238 0,0.53896 0.38153,0.97711 0.85037,0.97711 0.0304,0 0.0611,-0.002 0.0913,-0.006 l 0.0119,-0.002 0.0116,0.002 c 0.0233,0.003 0.0455,0.005 0.0669,0.005 h 3.04403 c 0.0225,0 0.045,-0.003 0.0669,-0.008 l 0.008,-0.002 c 0.41486,-0.0691 0.7276,-0.48445 0.7276,-0.96679 0,-0.36036 -0.17224,-0.69056 -0.44952,-0.86175 l -0.036,-0.0222 -0.005,-0.0421 c -0.0191,-0.16801 -0.13283,-0.29819 -0.27623,-0.31724 l -0.10001,-0.0135 0.0278,-0.0971 c 0.0164,-0.0574 0.0249,-0.11748 0.0249,-0.1786 0,-0.31353 -0.2204,-0.56859 -0.49081,-0.56859 -0.0476,0 -0.0947,0.008 -0.1397,0.0236 l -0.1053,0.0368 -0.0101,-0.11113 c -0.0471,-0.52361 -0.42889,-0.91836 -0.88768,-0.91836 -0.42095,0 -0.78845,0.3429 -0.87392,0.81571 l -0.0167,0.0921 -0.0907,-0.023 c -0.027,-0.007 -0.0545,-0.0103 -0.082,-0.0103 z"
         id="path7070"
         style="display:inline;stroke-width:0.264583" /><path
         fill="#ffffff"
         d="m 105.71983,120.13386 c -0.0236,-0.20637 -0.1688,-0.36962 -0.3511,-0.3937 0.018,-0.064 0.0281,-0.13202 0.0281,-0.20293 0,-0.36195 -0.25877,-0.6559 -0.57759,-0.6559 -0.0587,0 -0.11536,0.01 -0.16854,0.0283 -0.0503,-0.56039 -0.46752,-0.99748 -0.97446,-0.99748 -0.47334,0 -0.8681,0.38047 -0.95964,0.88688 -0.0333,-0.008 -0.068,-0.0127 -0.10372,-0.0127 -0.25294,0 -0.45905,0.22701 -0.46857,0.51171 -0.26856,0.0688 -0.46938,0.34131 -0.46938,0.66675 0,0.05 0.005,0.0987 0.0138,0.14578 -0.31406,0.17198 -0.53075,0.53684 -0.53075,0.95912 0,0.58816 0.41963,1.06415 0.93768,1.06415 0.0344,0 0.0683,-0.002 0.1016,-0.006 0.0265,0.004 0.0532,0.006 0.0802,0.006 v 0 0 h 3.04377 c 0.0307,0 0.0603,-0.004 0.0892,-0.0111 0.4527,-0.0757 0.80037,-0.51806 0.80037,-1.05304 2.6e-4,-0.40429 -0.19818,-0.75592 -0.49081,-0.93584 z"
         id="path7072"
         style="display:inline;stroke-width:0.264583" /><path
         fill="#6a8993"
         d="m 105.32137,122.2209 h -3.04377 c -0.0265,0 -0.0537,-0.002 -0.0812,-0.006 -0.0333,0.004 -0.0672,0.006 -0.10054,0.006 -0.56515,0 -1.025,-0.5162 -1.025,-1.15147 0,-0.42175 0.19897,-0.80036 0.52308,-1.00436 -0.004,-0.0333 -0.006,-0.0667 -0.006,-0.10054 0,-0.33787 0.19209,-0.62997 0.47414,-0.73263 0.0376,-0.30348 0.26961,-0.53314 0.55086,-0.53314 0.0119,0 0.0238,2.7e-4 0.036,0.001 0.12726,-0.51197 0.54769,-0.87551 1.02738,-0.87551 0.51911,0 0.95514,0.41328 1.04827,0.97658 0.0312,-0.005 0.0627,-0.007 0.0945,-0.007 0.36645,0 0.66464,0.33337 0.66464,0.74295 0,0.0466 -0.004,0.0929 -0.0114,0.13864 0.16589,0.0593 0.2921,0.21352 0.32782,0.40614 0.30797,0.20769 0.49768,0.58182 0.49768,0.98742 0,0.56542 -0.37359,1.05384 -0.86969,1.1385 -0.0349,0.01 -0.0712,0.0135 -0.10689,0.0135 z m -2.70828,-3.34725 c -0.20584,0 -0.37359,0.18759 -0.38153,0.42731 l -0.002,0.0651 -0.0635,0.0164 c -0.23389,0.0601 -0.40375,0.30506 -0.40375,0.58235 0,0.0431 0.004,0.0865 0.0122,0.12964 l 0.0119,0.0619 -0.0556,0.0307 c -0.29501,0.16113 -0.48551,0.50773 -0.48551,0.88238 0,0.53896 0.38153,0.97711 0.85063,0.97711 0.0304,0 0.0611,-0.002 0.091,-0.006 l 0.0119,-0.002 0.0116,0.002 c 0.0236,0.003 0.0452,0.005 0.0672,0.005 h 3.04377 c 0.0225,0 0.045,-0.003 0.0672,-0.008 l 0.007,-0.002 c 0.41487,-0.0691 0.7276,-0.48445 0.7276,-0.96679 0,-0.36036 -0.17224,-0.69083 -0.44979,-0.86175 l -0.036,-0.0222 -0.005,-0.0421 c -0.019,-0.16801 -0.13255,-0.29819 -0.27622,-0.31724 l -0.10002,-0.0135 0.0278,-0.0971 c 0.0167,-0.0574 0.0249,-0.11748 0.0249,-0.1786 0,-0.31353 -0.22013,-0.56859 -0.49053,-0.56859 -0.0476,0 -0.0947,0.008 -0.13997,0.0236 l -0.1053,0.0368 -0.0101,-0.11113 c -0.0471,-0.52361 -0.42863,-0.91836 -0.88768,-0.91836 -0.42095,0 -0.78846,0.3429 -0.87392,0.81571 l -0.0167,0.0921 -0.0907,-0.023 c -0.0262,-0.007 -0.0537,-0.0103 -0.0812,-0.0103 z"
         id="path7074"
         style="display:inline;stroke-width:0.264583" /><path
         fill="#ffffff"
         d="m 125.72339,120.13386 c -0.0236,-0.20637 -0.16881,-0.36962 -0.35137,-0.3937 0.0183,-0.064 0.028,-0.13202 0.028,-0.20293 0,-0.36195 -0.25876,-0.6559 -0.57785,-0.6559 -0.0585,0 -0.11509,0.01 -0.16854,0.0283 -0.0503,-0.56039 -0.46752,-0.99748 -0.97446,-0.99748 -0.47334,0 -0.8681,0.38047 -0.95964,0.88688 -0.0331,-0.008 -0.068,-0.0127 -0.10372,-0.0127 -0.25294,0 -0.45905,0.22701 -0.46858,0.51171 -0.26855,0.0688 -0.4691,0.34131 -0.4691,0.66675 0,0.05 0.005,0.0987 0.0138,0.14578 -0.31406,0.17198 -0.53102,0.53684 -0.53102,0.95912 0,0.58816 0.41989,1.06415 0.93768,1.06415 0.0344,0 0.0683,-0.002 0.10187,-0.006 0.0262,0.004 0.0529,0.006 0.0802,0.006 v 0 0 h 3.04376 c 0.0304,0 0.0606,-0.004 0.0892,-0.0111 0.4527,-0.0757 0.80037,-0.51806 0.80037,-1.05304 5.2e-4,-0.40429 -0.19818,-0.75592 -0.49054,-0.93584 z"
         id="path7076"
         style="display:inline;stroke-width:0.264583" /><path
         fill="#6a8993"
         d="m 125.32492,122.2209 h -3.04376 c -0.0267,0 -0.0537,-0.002 -0.0812,-0.006 -0.0333,0.004 -0.0672,0.006 -0.10054,0.006 -0.56515,0 -1.025,-0.5162 -1.025,-1.15147 0,-0.42175 0.19897,-0.80036 0.52308,-1.00436 -0.004,-0.0333 -0.006,-0.0667 -0.006,-0.10054 0,-0.33787 0.19209,-0.62997 0.47413,-0.73263 0.0376,-0.30348 0.26935,-0.53314 0.5506,-0.53314 0.0119,0 0.0238,2.7e-4 0.0357,0.001 0.12753,-0.51197 0.54769,-0.87551 1.02738,-0.87551 0.51938,0 0.95541,0.41328 1.04854,0.97658 0.0312,-0.005 0.0627,-0.007 0.0945,-0.007 0.36671,0 0.6649,0.33337 0.6649,0.74295 0,0.0468 -0.004,0.0931 -0.0116,0.13864 0.16589,0.0593 0.2921,0.21352 0.32808,0.40587 0.30824,0.2077 0.49795,0.58209 0.49795,0.98769 0,0.56515 -0.37359,1.05357 -0.86969,1.1385 -0.0355,0.01 -0.0714,0.0135 -0.10715,0.0135 z m -2.70854,-3.34725 c -0.20584,0 -0.37359,0.18759 -0.38152,0.42731 l -0.002,0.0651 -0.0632,0.0164 c -0.2339,0.0601 -0.40376,0.30506 -0.40376,0.58235 0,0.0434 0.004,0.0865 0.0122,0.12964 l 0.0119,0.0619 -0.0558,0.0307 c -0.29474,0.16113 -0.48551,0.50773 -0.48551,0.88238 0,0.53896 0.38153,0.97711 0.85064,0.97711 0.0304,0 0.0609,-0.002 0.091,-0.006 l 0.0119,-0.002 0.0119,0.002 c 0.023,0.003 0.0455,0.005 0.0669,0.005 h 3.04376 c 0.0225,0 0.0452,-0.003 0.0672,-0.008 l 0.007,-0.002 c 0.41487,-0.0691 0.72761,-0.48445 0.72761,-0.96679 0,-0.36036 -0.17225,-0.69083 -0.44953,-0.86175 l -0.036,-0.0222 -0.005,-0.0421 c -0.0193,-0.16801 -0.13282,-0.29819 -0.27623,-0.31724 l -0.10001,-0.0135 0.0278,-0.0971 c 0.0164,-0.0572 0.0249,-0.11748 0.0249,-0.1786 0,-0.31353 -0.22013,-0.56859 -0.49053,-0.56859 -0.0476,0 -0.0947,0.008 -0.1397,0.0236 l -0.10557,0.0368 -0.01,-0.11113 c -0.0471,-0.52361 -0.42863,-0.91836 -0.88768,-0.91836 -0.42095,0 -0.78846,0.3429 -0.87392,0.81571 l -0.0167,0.0921 -0.0905,-0.023 c -0.0272,-0.007 -0.055,-0.0103 -0.0823,-0.0103 z"
         id="path7078"
         style="display:inline;stroke-width:0.264583" /><path
         fill="#ffffff"
         d="m 133.28121,121.0697 c 0,-0.40402 -0.1987,-0.75565 -0.49107,-0.93584 -0.0236,-0.20637 -0.1688,-0.36962 -0.35136,-0.3937 0.0183,-0.064 0.0283,-0.13202 0.0283,-0.20293 0,-0.36195 -0.25903,-0.6559 -0.57812,-0.6559 -0.0585,0 -0.11509,0.01 -0.16827,0.0283 -0.0505,-0.56039 -0.46752,-0.99748 -0.97446,-0.99748 -0.47334,0 -0.86837,0.38047 -0.95965,0.88688 -0.0333,-0.008 -0.0683,-0.0127 -0.10398,-0.0127 -0.25294,0 -0.45905,0.22701 -0.46858,0.51171 -0.26855,0.0688 -0.4691,0.34131 -0.4691,0.66675 0,0.05 0.005,0.0987 0.014,0.14578 -0.31433,0.17198 -0.53102,0.53684 -0.53102,0.95912 0,0.58816 0.41936,1.06415 0.93742,1.06415 0.0344,0 0.0683,-0.002 0.10186,-0.006 0.0265,0.004 0.0529,0.006 0.0802,0.006 v 0 0 h 3.04403 c 0.0307,0 0.0603,-0.004 0.0889,-0.0111 0.45323,-0.0757 0.8009,-0.51806 0.8009,-1.05304 z"
         id="path7080"
         style="display:inline;stroke-width:0.264583" /><path
         fill="#6a8993"
         d="m 132.39168,122.2209 h -3.04403 c -0.0265,0 -0.0537,-0.002 -0.0812,-0.006 -0.0333,0.004 -0.0675,0.006 -0.10081,0.006 -0.56515,0 -1.02499,-0.5162 -1.02499,-1.15147 0,-0.42175 0.1987,-0.80036 0.52308,-1.00436 -0.004,-0.0331 -0.006,-0.0664 -0.006,-0.10054 0,-0.33787 0.19208,-0.62997 0.47413,-0.73263 0.0376,-0.30348 0.26961,-0.53314 0.5506,-0.53314 0.0122,0 0.0238,2.7e-4 0.036,0.001 0.12726,-0.51197 0.54769,-0.87551 1.02764,-0.87551 0.51938,0 0.95515,0.41328 1.04828,0.97658 0.0312,-0.005 0.063,-0.007 0.0945,-0.007 0.36671,0 0.6649,0.33337 0.6649,0.74295 0,0.0466 -0.004,0.0929 -0.0116,0.13864 0.16589,0.0593 0.2921,0.21352 0.32782,0.40587 0.30797,0.20796 0.49794,0.58209 0.49794,0.98769 0,0.56542 -0.37359,1.05384 -0.86968,1.1385 -0.0347,0.01 -0.0709,0.0135 -0.10663,0.0135 z m -2.7088,-3.34725 c -0.20585,0 -0.37333,0.18759 -0.38127,0.42731 l -0.002,0.0651 -0.0632,0.0164 c -0.23389,0.0601 -0.40375,0.30506 -0.40375,0.58235 0,0.0437 0.004,0.087 0.0122,0.12938 l 0.0119,0.0622 -0.0556,0.0307 c -0.29528,0.16113 -0.48578,0.50773 -0.48578,0.88238 0,0.53896 0.38153,0.97711 0.85064,0.97711 0.0304,0 0.0609,-0.002 0.0913,-0.006 l 0.0119,-0.002 0.0116,0.002 c 0.0236,0.003 0.0452,0.005 0.0672,0.005 h 3.04403 c 0.0225,0 0.045,-0.003 0.0672,-0.008 l 0.007,-0.002 c 0.41486,-0.0691 0.7276,-0.48445 0.7276,-0.96679 0,-0.36036 -0.17198,-0.69056 -0.44979,-0.86175 l -0.036,-0.0222 -0.005,-0.0421 c -0.019,-0.16801 -0.13256,-0.29819 -0.27622,-0.31724 l -0.10002,-0.0135 0.0278,-0.0971 c 0.0164,-0.0574 0.0249,-0.11774 0.0249,-0.1786 0,-0.31353 -0.22013,-0.56859 -0.4908,-0.56859 -0.0476,0 -0.0947,0.008 -0.13996,0.0236 l -0.10504,0.0365 -0.0101,-0.11086 c -0.0471,-0.52361 -0.42863,-0.91836 -0.88768,-0.91836 -0.42122,0 -0.78846,0.3429 -0.87392,0.81571 l -0.0167,0.0921 -0.0905,-0.023 c -0.027,-0.007 -0.0548,-0.0103 -0.0823,-0.0103 z"
         id="path7082"
         style="display:inline;stroke-width:0.264583" /><path
         fill="#ffffff"
         d="m 139.64338,120.13386 c -0.0236,-0.20637 -0.1688,-0.36962 -0.3511,-0.3937 0.018,-0.064 0.028,-0.13202 0.028,-0.20293 0,-0.36195 -0.25876,-0.6559 -0.57785,-0.6559 -0.0585,0 -0.11536,0.01 -0.16827,0.0283 -0.0503,-0.56039 -0.46752,-0.99748 -0.97446,-0.99748 -0.47334,0 -0.86836,0.38047 -0.95991,0.88688 -0.0331,-0.008 -0.0677,-0.0127 -0.10372,-0.0127 -0.25294,0 -0.45905,0.22701 -0.46831,0.51171 -0.26882,0.0688 -0.46937,0.34131 -0.46937,0.66675 0,0.05 0.005,0.0987 0.014,0.14578 -0.31432,0.17198 -0.53102,0.53684 -0.53102,0.95912 0,0.58816 0.41989,1.06415 0.93769,1.06415 0.0341,0 0.0683,-0.002 0.10159,-0.006 0.0262,0.004 0.0529,0.006 0.0802,0.006 v 0 0 h 3.04376 c 0.0304,0 0.0606,-0.004 0.0889,-0.0111 0.4527,-0.0757 0.80063,-0.51806 0.80063,-1.05304 2.7e-4,-0.40429 -0.19817,-0.75592 -0.4908,-0.93584 z"
         id="path7084"
         style="display:inline;stroke-width:0.264583" /><path
         fill="#6a8993"
         d="m 139.24492,122.2209 h -3.04403 c -0.0265,0 -0.054,-0.002 -0.0812,-0.006 -0.0333,0.004 -0.0672,0.006 -0.10055,0.006 -0.56515,0 -1.02499,-0.5162 -1.02499,-1.15147 0,-0.42175 0.19897,-0.80036 0.52308,-1.00436 -0.004,-0.0333 -0.006,-0.0667 -0.006,-0.10054 0,-0.33787 0.19209,-0.62997 0.47413,-0.73263 0.0376,-0.30348 0.26935,-0.53314 0.5506,-0.53314 0.0119,0 0.0241,2.7e-4 0.036,0.001 0.12727,-0.51197 0.54795,-0.87551 1.02764,-0.87551 0.51938,0 0.95541,0.41328 1.04828,0.97658 0.0312,-0.005 0.0627,-0.007 0.0942,-0.007 0.36671,0 0.66516,0.33337 0.66516,0.74295 0,0.0468 -0.004,0.0931 -0.0116,0.13864 0.16563,0.0593 0.2921,0.21352 0.32808,0.40587 0.30798,0.2077 0.49768,0.58209 0.49768,0.98769 0,0.56515 -0.37359,1.05357 -0.86968,1.1385 -0.0349,0.01 -0.0709,0.0135 -0.10689,0.0135 z m -2.70881,-3.34725 c -0.20584,0 -0.37332,0.18759 -0.38126,0.42731 l -0.002,0.0651 -0.0632,0.0164 c -0.23389,0.0601 -0.40375,0.30506 -0.40375,0.58235 0,0.0437 0.004,0.087 0.0122,0.12938 l 0.0119,0.0622 -0.0556,0.0307 c -0.29501,0.16113 -0.48577,0.50773 -0.48577,0.88238 0,0.53896 0.38153,0.97711 0.85064,0.97711 0.0302,0 0.0609,-0.002 0.091,-0.006 l 0.0116,-0.002 0.0119,0.002 c 0.0228,0.003 0.0455,0.005 0.0669,0.005 h 3.04376 c 0.0225,0 0.0452,-0.003 0.0672,-0.008 l 0.007,-0.002 c 0.41487,-0.0691 0.72787,-0.48445 0.72787,-0.96679 0,-0.36036 -0.17224,-0.69083 -0.44953,-0.86175 l -0.0362,-0.0222 -0.005,-0.0421 c -0.0191,-0.16801 -0.13255,-0.29819 -0.27622,-0.31724 l -0.10002,-0.0135 0.0278,-0.0971 c 0.0164,-0.0572 0.0249,-0.11748 0.0249,-0.1786 0,-0.31353 -0.22014,-0.56859 -0.49054,-0.56859 -0.0476,0 -0.0945,0.008 -0.1397,0.0236 l -0.10531,0.0368 -0.01,-0.11113 c -0.0471,-0.52361 -0.42888,-0.91836 -0.88767,-0.91836 -0.42095,0 -0.78846,0.3429 -0.87392,0.81571 l -0.0167,0.0921 -0.0905,-0.023 c -0.0275,-0.007 -0.055,-0.0103 -0.0825,-0.0103 z"
         id="path7086"
         style="display:inline;stroke-width:0.264583" /><path
         fill="#ffffff"
         d="m 109.43511,115.16446 c 0,-0.40428 -0.1987,-0.75591 -0.49107,-0.9361 -0.0236,-0.20637 -0.1688,-0.36962 -0.35136,-0.3937 0.0182,-0.0638 0.028,-0.13176 0.028,-0.20293 0,-0.36195 -0.25876,-0.6559 -0.57785,-0.6559 -0.0585,0 -0.11509,0.0101 -0.16827,0.0283 -0.0503,-0.56039 -0.46725,-0.99775 -0.97446,-0.99775 -0.47334,0 -0.8681,0.381 -0.95964,0.88715 -0.0331,-0.008 -0.068,-0.0127 -0.10372,-0.0127 -0.25294,0 -0.45905,0.22701 -0.46831,0.51144 -0.26882,0.0691 -0.46937,0.34158 -0.46937,0.66702 0,0.05 0.005,0.0987 0.014,0.14578 -0.31433,0.17198 -0.53102,0.53658 -0.53102,0.95912 0,0.5879 0.41963,1.06388 0.93768,1.06388 0.0344,0 0.0683,-0.002 0.10187,-0.006 0.0262,0.004 0.0529,0.006 0.0802,0.006 v 0 0 h 3.04376 c 0.0307,0 0.0603,-0.004 0.0892,-0.0108 0.45244,-0.0751 0.80037,-0.51779 0.80037,-1.05278 z"
         id="path7088"
         style="display:inline;stroke-width:0.264583" /><path
         fill="#6a8993"
         d="m 108.54531,116.31619 h -3.04376 c -0.0267,0 -0.054,-0.002 -0.0812,-0.006 -0.0333,0.004 -0.0672,0.006 -0.10081,0.006 -0.56515,0 -1.02473,-0.51673 -1.02473,-1.15173 0,-0.42175 0.1987,-0.80063 0.52308,-1.00462 -0.004,-0.0331 -0.006,-0.0669 -0.006,-0.10028 0,-0.33787 0.19209,-0.62971 0.47413,-0.7329 0.0373,-0.30321 0.26935,-0.5334 0.5506,-0.5334 0.0119,0 0.0238,5.3e-4 0.0357,10e-4 0.12727,-0.51197 0.54795,-0.87551 1.02764,-0.87551 0.51938,0 0.95541,0.41354 1.04828,0.97684 0.0312,-0.005 0.0627,-0.008 0.0942,-0.008 0.36672,0 0.66517,0.33364 0.66517,0.74321 0,0.0468 -0.004,0.0931 -0.0116,0.13865 0.16562,0.0595 0.2921,0.21351 0.32781,0.40587 0.30824,0.20796 0.49795,0.58208 0.49795,0.98795 0,0.56489 -0.37359,1.05357 -0.86969,1.1385 -0.0347,0.009 -0.0706,0.0138 -0.10662,0.0138 z m -2.70853,-3.34777 c -0.20585,0 -0.37333,0.18759 -0.38153,0.4273 l -0.002,0.0653 -0.0632,0.0161 c -0.2339,0.0603 -0.40376,0.30533 -0.40376,0.58261 0,0.0429 0.004,0.0863 0.0122,0.12912 l 0.0122,0.0622 -0.0558,0.0309 c -0.29501,0.16061 -0.48551,0.50748 -0.48551,0.88239 0,0.53869 0.38126,0.97711 0.85064,0.97711 0.0304,0 0.0609,-0.002 0.0913,-0.006 l 0.0116,-0.001 0.0116,0.002 c 0.0233,0.004 0.0452,0.005 0.0672,0.005 l 3.04376,2.6e-4 c 0.0225,0 0.0452,-0.003 0.0675,-0.008 l 0.007,-0.002 c 0.41461,-0.069 0.72761,-0.48498 0.72761,-0.96679 0,-0.36036 -0.17225,-0.69082 -0.44979,-0.86174 l -0.036,-0.022 -0.005,-0.0423 c -0.0193,-0.16801 -0.13283,-0.29845 -0.27623,-0.3175 l -0.10001,-0.0135 0.0275,-0.0971 c 0.0167,-0.0574 0.0249,-0.11748 0.0249,-0.1786 0,-0.31353 -0.22014,-0.56832 -0.4908,-0.56832 -0.0476,0 -0.0945,0.008 -0.13997,0.0236 l -0.10504,0.0365 -0.0101,-0.11113 c -0.0474,-0.52334 -0.42889,-0.91837 -0.88768,-0.91837 -0.42095,0 -0.78845,0.34317 -0.87391,0.81572 l -0.0167,0.0923 -0.0905,-0.0233 c -0.0267,-0.007 -0.0545,-0.0106 -0.082,-0.0106 z"
         id="path7090"
         style="display:inline;stroke-width:0.264583" /><path
         fill="#ffffff"
         d="m 115.58614,114.22836 c -0.0233,-0.20637 -0.1688,-0.36962 -0.35137,-0.3937 0.0183,-0.0638 0.0283,-0.13176 0.0283,-0.20293 0,-0.36195 -0.25876,-0.6559 -0.57785,-0.6559 -0.0585,0 -0.11509,0.0101 -0.16827,0.0283 -0.0503,-0.56039 -0.46752,-0.99775 -0.97473,-0.99775 -0.47307,0 -0.86809,0.381 -0.95937,0.88715 -0.0333,-0.008 -0.068,-0.0127 -0.10372,-0.0127 -0.25294,0 -0.45905,0.22701 -0.46858,0.51144 -0.26855,0.0691 -0.4691,0.34158 -0.4691,0.66702 0,0.05 0.005,0.0987 0.0138,0.14578 -0.31433,0.17198 -0.53076,0.53658 -0.53076,0.95912 0,0.5879 0.41963,1.06388 0.93742,1.06388 0.0344,0 0.0685,-0.002 0.10186,-0.006 0.0262,0.004 0.0532,0.006 0.0802,0.006 v 0 0 h 3.04377 c 0.0307,0 0.0606,-0.004 0.0889,-0.0108 0.45297,-0.0757 0.80037,-0.51832 0.80037,-1.05304 2.6e-4,-0.40402 -0.19844,-0.75565 -0.49081,-0.93584 z"
         id="path7092"
         style="display:inline;stroke-width:0.264583" /><path
         fill="#6a8993"
         d="m 115.18768,116.31619 h -3.04377 c -0.0265,0 -0.0537,-0.002 -0.0812,-0.006 -0.0333,0.004 -0.0672,0.006 -0.1008,0.006 -0.56489,0 -1.02474,-0.51673 -1.02474,-1.15173 0,-0.42175 0.19897,-0.80063 0.52309,-1.00462 -0.004,-0.0331 -0.006,-0.0667 -0.006,-0.10028 0,-0.33787 0.19235,-0.62971 0.47413,-0.7329 0.0376,-0.30321 0.26961,-0.5334 0.55086,-0.5334 0.0119,0 0.0241,5.3e-4 0.036,10e-4 0.127,-0.51197 0.54769,-0.87551 1.02738,-0.87551 0.51964,0 0.95541,0.41354 1.04854,0.97684 0.0312,-0.005 0.0627,-0.008 0.0942,-0.008 0.36672,0 0.6649,0.33364 0.6649,0.74321 0,0.0468 -0.004,0.0931 -0.0116,0.13865 0.16563,0.0595 0.2921,0.21351 0.32782,0.40587 0.30824,0.20796 0.49794,0.58208 0.49794,0.98795 0,0.56489 -0.37359,1.05357 -0.86968,1.1385 -0.0352,0.009 -0.0712,0.0138 -0.10716,0.0138 z m -2.70854,-3.34777 c -0.20585,0 -0.37359,0.18759 -0.38153,0.4273 l -0.002,0.0653 -0.0632,0.0161 c -0.23416,0.0603 -0.40375,0.30533 -0.40375,0.58261 0,0.0434 0.004,0.0871 0.0122,0.12912 l 0.0119,0.0622 -0.0556,0.0307 c -0.29501,0.16087 -0.48551,0.50774 -0.48551,0.88265 0,0.53869 0.38152,0.97711 0.85037,0.97711 0.0304,0 0.0611,-0.002 0.0913,-0.006 l 0.0119,-10e-4 0.0119,0.002 c 0.0228,0.004 0.0455,0.005 0.0669,0.005 l 3.04376,2.6e-4 c 0.0222,0 0.045,-0.003 0.0672,-0.008 l 0.008,-0.002 c 0.41461,-0.069 0.72761,-0.48498 0.72761,-0.96679 0,-0.36036 -0.17225,-0.69082 -0.44953,-0.86174 l -0.036,-0.022 -0.005,-0.0423 c -0.0191,-0.16801 -0.13255,-0.29845 -0.27596,-0.3175 l -0.10001,-0.0135 0.0278,-0.0971 c 0.0164,-0.0574 0.0249,-0.11721 0.0249,-0.1786 0,-0.31353 -0.22014,-0.56832 -0.49054,-0.56832 -0.0476,0 -0.0945,0.008 -0.1397,0.0236 l -0.10557,0.0365 -0.01,-0.11113 c -0.0471,-0.52334 -0.42889,-0.91837 -0.88794,-0.91837 -0.42069,0 -0.78846,0.34317 -0.87365,0.81572 l -0.0167,0.0923 -0.0905,-0.0233 c -0.0278,-0.007 -0.0553,-0.0106 -0.0828,-0.0106 z"
         id="path7094"
         style="display:inline;stroke-width:0.264583" /><path
         fill="#ffffff"
         d="m 123.06723,115.16446 c 0,-0.40428 -0.1987,-0.75591 -0.49106,-0.9361 -0.0236,-0.20637 -0.16881,-0.36962 -0.35137,-0.3937 0.018,-0.0638 0.028,-0.13176 0.028,-0.20293 0,-0.36195 -0.25876,-0.6559 -0.57785,-0.6559 -0.0585,0 -0.11509,0.0101 -0.16854,0.0283 -0.0503,-0.56039 -0.46725,-0.99775 -0.97419,-0.99775 -0.47334,0 -0.86837,0.381 -0.95965,0.88715 -0.0333,-0.008 -0.068,-0.0127 -0.10372,-0.0127 -0.25267,0 -0.45905,0.22701 -0.46831,0.51144 -0.26881,0.0691 -0.46937,0.34158 -0.46937,0.66702 0,0.05 0.005,0.0987 0.014,0.14578 -0.31432,0.17198 -0.53102,0.53658 -0.53102,0.95912 0,0.5879 0.41963,1.06388 0.93769,1.06388 0.0341,0 0.0683,-0.002 0.1016,-0.006 0.0262,0.004 0.0529,0.006 0.0802,0.006 v 0 0 h 3.04403 c 0.0304,0 0.0603,-0.004 0.0889,-0.0108 0.4527,-0.0751 0.80063,-0.51779 0.80063,-1.05278 z"
         id="path7096"
         style="display:inline;stroke-width:0.264583" /><path
         fill="#6a8993"
         d="m 122.17771,116.31619 h -3.04404 c -0.0265,0 -0.0537,-0.002 -0.0812,-0.006 -0.0333,0.004 -0.0672,0.006 -0.10054,0.006 -0.56515,0 -1.02499,-0.51673 -1.02499,-1.15173 0,-0.42175 0.19896,-0.80063 0.52308,-1.00462 -0.004,-0.0331 -0.006,-0.0667 -0.006,-0.10028 0,-0.33787 0.19235,-0.62971 0.47413,-0.7329 0.0376,-0.30321 0.26935,-0.5334 0.5506,-0.5334 0.0119,0 0.0241,5.3e-4 0.036,10e-4 0.12726,-0.51197 0.54769,-0.87551 1.02764,-0.87551 0.51938,0 0.95541,0.41354 1.04828,0.97684 0.0312,-0.005 0.0627,-0.008 0.0942,-0.008 0.36645,0 0.6649,0.33364 0.6649,0.74321 0,0.0468 -0.004,0.0931 -0.0116,0.13865 0.16563,0.0595 0.2921,0.21351 0.32808,0.40587 0.30824,0.20796 0.49795,0.58208 0.49795,0.98795 0,0.56489 -0.37359,1.05357 -0.86995,1.1385 -0.0349,0.009 -0.0709,0.0138 -0.10663,0.0138 z m -2.70881,-3.34777 c -0.20584,0 -0.37333,0.18759 -0.38126,0.4273 l -0.002,0.0653 -0.0632,0.0161 c -0.23416,0.0603 -0.40376,0.30533 -0.40376,0.58261 0,0.0431 0.004,0.0865 0.0122,0.12912 l 0.0122,0.0622 -0.0558,0.0309 c -0.29474,0.16061 -0.48551,0.50748 -0.48551,0.88239 0,0.53869 0.38153,0.97711 0.85064,0.97711 0.0302,0 0.0609,-0.002 0.091,-0.006 l 0.0116,-0.001 0.0119,0.002 c 0.0228,0.004 0.0455,0.005 0.0669,0.005 l 3.04403,2.6e-4 c 0.0222,0 0.045,-0.003 0.0672,-0.008 l 0.007,-0.002 c 0.41487,-0.069 0.72787,-0.48498 0.72787,-0.96679 0,-0.36036 -0.17225,-0.69082 -0.44979,-0.86174 l -0.036,-0.022 -0.005,-0.0423 c -0.0193,-0.16801 -0.13282,-0.29845 -0.27623,-0.3175 l -0.10001,-0.0135 0.0278,-0.0971 c 0.0164,-0.0574 0.0249,-0.11748 0.0249,-0.1786 0,-0.31353 -0.22013,-0.56832 -0.49054,-0.56832 -0.0476,0 -0.0945,0.008 -0.1397,0.0236 l -0.1053,0.0365 -0.01,-0.11113 c -0.0471,-0.52334 -0.42889,-0.91837 -0.88768,-0.91837 -0.42095,0 -0.78846,0.34317 -0.87392,0.81572 l -0.0167,0.0923 -0.0905,-0.0233 c -0.0278,-0.007 -0.0553,-0.0106 -0.0828,-0.0106 z"
         id="path7098"
         style="display:inline;stroke-width:0.264583" /><path
         fill="#ffffff"
         d="m 129.25663,114.22836 c -0.0236,-0.20637 -0.1688,-0.36962 -0.35136,-0.3937 0.0183,-0.0638 0.0281,-0.13176 0.0281,-0.20293 0,-0.36195 -0.25877,-0.6559 -0.57785,-0.6559 -0.0585,0 -0.1151,0.0101 -0.16828,0.0283 -0.0503,-0.56039 -0.46752,-0.99775 -0.97446,-0.99775 -0.47334,0 -0.8681,0.381 -0.95964,0.88715 -0.0333,-0.008 -0.068,-0.0127 -0.10372,-0.0127 -0.25294,0 -0.45905,0.22701 -0.46858,0.51144 -0.26855,0.0691 -0.4691,0.34158 -0.4691,0.66702 0,0.05 0.005,0.0987 0.0138,0.14578 -0.31433,0.17198 -0.53102,0.53658 -0.53102,0.95912 0,0.5879 0.41989,1.06388 0.93768,1.06388 0.0341,0 0.0683,-0.002 0.10187,-0.006 0.0262,0.004 0.0529,0.006 0.0799,0.006 v 0 0 h 3.04376 c 0.0307,0 0.0606,-0.004 0.0889,-0.0108 0.4527,-0.0757 0.80063,-0.51832 0.80063,-1.05304 5.3e-4,-0.40402 -0.19817,-0.75565 -0.49053,-0.93584 z"
         id="path7100"
         style="display:inline;stroke-width:0.264583" /><path
         fill="#6a8993"
         d="m 128.85817,116.31619 h -3.04377 c -0.0265,0 -0.0537,-0.002 -0.081,-0.006 -0.0333,0.004 -0.0675,0.006 -0.1008,0.006 -0.56515,0 -1.025,-0.51673 -1.025,-1.15173 0,-0.42175 0.19897,-0.80036 0.52308,-1.00462 -0.004,-0.0331 -0.006,-0.0667 -0.006,-0.10028 0,-0.33787 0.19209,-0.62971 0.47414,-0.7329 0.0376,-0.30321 0.26934,-0.5334 0.55086,-0.5334 0.0119,0 0.0238,5.3e-4 0.0357,10e-4 0.12726,-0.51197 0.54768,-0.87551 1.02738,-0.87551 0.51937,0 0.95541,0.41354 1.04854,0.97684 0.0312,-0.005 0.0627,-0.008 0.0942,-0.008 0.36671,0 0.6649,0.33364 0.6649,0.74321 0,0.0468 -0.004,0.0931 -0.0114,0.13865 0.16563,0.0595 0.2921,0.21351 0.32782,0.40587 0.30824,0.20796 0.49794,0.58208 0.49794,0.98795 0,0.56489 -0.37359,1.05357 -0.86968,1.1385 -0.0352,0.009 -0.0712,0.0138 -0.10716,0.0138 z m -2.70854,-3.34777 c -0.20584,0 -0.37359,0.18759 -0.38153,0.4273 l -0.002,0.0653 -0.0635,0.0161 c -0.23389,0.0603 -0.40349,0.30533 -0.40349,0.58261 0,0.0431 0.004,0.0865 0.0122,0.12912 l 0.0119,0.0622 -0.0556,0.0307 c -0.29501,0.16087 -0.48551,0.50774 -0.48551,0.88265 0,0.53869 0.38153,0.97711 0.85064,0.97711 0.0302,0 0.0609,-0.002 0.0913,-0.006 l 0.0116,-10e-4 0.0116,0.002 c 0.023,0.004 0.0458,0.005 0.0672,0.005 l 3.04376,2.6e-4 c 0.0225,0 0.0452,-0.003 0.0672,-0.008 l 0.007,-0.002 c 0.41487,-0.069 0.72761,-0.48498 0.72761,-0.96679 0,-0.36036 -0.17225,-0.69082 -0.4498,-0.86174 l -0.036,-0.022 -0.005,-0.0423 c -0.0193,-0.16801 -0.13282,-0.29845 -0.27622,-0.3175 l -0.10001,-0.0135 0.0275,-0.0971 c 0.0167,-0.0571 0.0249,-0.11721 0.0249,-0.1786 0,-0.31353 -0.22014,-0.56832 -0.49054,-0.56832 -0.0476,0 -0.0945,0.008 -0.13997,0.0236 l -0.1053,0.0365 -0.01,-0.11113 c -0.0471,-0.52334 -0.42863,-0.91837 -0.88768,-0.91837 -0.42095,0 -0.78846,0.34317 -0.87392,0.81572 l -0.0167,0.0923 -0.0905,-0.0233 c -0.0267,-0.007 -0.0542,-0.0106 -0.0818,-0.0106 z"
         id="path7102"
         style="display:inline;stroke-width:0.264583" /><path
         fill="#ffffff"
         d="m 136.57765,114.22836 c -0.0236,-0.20637 -0.1688,-0.36962 -0.35136,-0.3937 0.018,-0.0638 0.0281,-0.13176 0.0281,-0.20293 0,-0.36195 -0.2585,-0.6559 -0.57759,-0.6559 -0.0585,0 -0.11509,0.0101 -0.16827,0.0283 -0.0503,-0.56039 -0.46752,-0.99775 -0.97446,-0.99775 -0.47334,0 -0.8681,0.381 -0.95965,0.88715 -0.0331,-0.008 -0.068,-0.0127 -0.10371,-0.0127 -0.25295,0 -0.45906,0.22701 -0.46858,0.51144 -0.26855,0.0691 -0.46911,0.34158 -0.46911,0.66702 0,0.05 0.005,0.0987 0.0138,0.14578 -0.31432,0.17198 -0.53102,0.53658 -0.53102,0.95912 0,0.5879 0.4199,1.06388 0.93769,1.06388 0.0344,0 0.0685,-0.002 0.10186,-0.006 0.0265,0.004 0.0532,0.006 0.0802,0.006 v 0 0 h 3.04377 c 0.0304,0 0.0603,-0.004 0.0889,-0.0108 0.4527,-0.0757 0.80036,-0.51832 0.80036,-1.05304 2.7e-4,-0.40402 -0.19817,-0.75565 -0.4908,-0.93584 z"
         id="path7104"
         style="display:inline;stroke-width:0.264583" /><path
         fill="#6a8993"
         d="m 136.17919,116.31619 h -3.04377 c -0.0265,0 -0.0537,-0.002 -0.0815,-0.006 -0.0331,0.004 -0.0672,0.006 -0.10054,0.006 -0.56488,0 -1.02499,-0.51673 -1.02499,-1.15173 0,-0.42175 0.1987,-0.80036 0.52308,-1.00462 -0.004,-0.0331 -0.006,-0.0669 -0.006,-0.10028 0,-0.33787 0.19208,-0.62971 0.47413,-0.7329 0.0376,-0.30321 0.26961,-0.5334 0.55086,-0.5334 0.0119,0 0.0238,5.3e-4 0.036,10e-4 0.12727,-0.51197 0.54769,-0.87551 1.02738,-0.87551 0.51938,0 0.95541,0.41354 1.04828,0.97684 0.0312,-0.005 0.0624,-0.008 0.0945,-0.008 0.36671,0 0.66463,0.33364 0.66463,0.74321 0,0.0468 -0.004,0.0931 -0.0114,0.13865 0.16563,0.0595 0.2921,0.21351 0.32782,0.40587 0.30824,0.20796 0.49795,0.58208 0.49795,0.98795 0,0.56489 -0.3736,1.05357 -0.86969,1.1385 -0.0349,0.009 -0.0709,0.0138 -0.10689,0.0138 z m -2.70854,-3.34777 c -0.20584,0 -0.37359,0.18759 -0.38126,0.4273 l -0.002,0.0653 -0.0632,0.0161 c -0.23389,0.0603 -0.40402,0.30533 -0.40402,0.58261 0,0.0429 0.004,0.0865 0.0124,0.12939 l 0.0116,0.0619 -0.0553,0.0307 c -0.29528,0.16113 -0.48578,0.50774 -0.48578,0.88265 0,0.53869 0.38153,0.97711 0.85064,0.97711 0.0304,0 0.0611,-0.002 0.0913,-0.006 l 0.0119,-0.001 0.0119,0.002 c 0.0228,0.004 0.0455,0.005 0.0669,0.005 l 3.04377,2.6e-4 c 0.0222,0 0.045,-0.003 0.0669,-0.008 l 0.008,-0.002 c 0.41486,-0.069 0.7276,-0.48498 0.7276,-0.96679 0,-0.36062 -0.17224,-0.69082 -0.44953,-0.86174 l -0.036,-0.022 -0.005,-0.0423 c -0.0191,-0.16801 -0.13255,-0.29845 -0.27596,-0.3175 l -0.10001,-0.0135 0.0278,-0.0971 c 0.0164,-0.0574 0.0249,-0.11721 0.0249,-0.1786 0,-0.31353 -0.2204,-0.56832 -0.4908,-0.56832 -0.0476,0 -0.0947,0.008 -0.1397,0.0236 l -0.10557,0.0365 -0.0101,-0.11113 c -0.0471,-0.52334 -0.42863,-0.91837 -0.88741,-0.91837 -0.42095,0 -0.78873,0.34317 -0.87419,0.81572 l -0.0167,0.0923 -0.0905,-0.0233 c -0.027,-0.007 -0.0545,-0.0106 -0.082,-0.0106 z"
         id="path7106"
         style="display:inline;stroke-width:0.264583" /></g></g></svg>
