<?xml version="1.0" encoding="UTF-8" standalone="no"?>
<!-- Created with Inkscape (http://www.inkscape.org/) -->

<svg
   width="59.586632mm"
   height="10.059989mm"
   viewBox="0 0 59.586632 10.059989"
   version="1.1"
   id="svg1"
   xml:space="preserve"
   xmlns="http://www.w3.org/2000/svg"
   xmlns:svg="http://www.w3.org/2000/svg"><defs
     id="defs1" /><g
     id="layer9"
     style="display:inline"
     transform="translate(-57.94375,-108.74375)"><g
       id="g5"><path
         fill="#ffffff"
         d="m 73.149179,118.56505 c -11.805706,0.068 -20.56606,-1.81081 -11.12652,-2.34686 9.43954,-0.53604 23.57146,0.75883 24.13767,-1.25068 0.56621,-2.00951 -4.71487,-1.82431 -7.3914,-1.91691 -2.67599,-0.0926 -3.89625,-1.94654 16.73649,-0.93742 0,0 1.49674,-1.78699 -12.1674,-2.3024 0,0 -9.974,-0.97949 17.905151,-0.97949 27.87941,0 12.5013,2.41221 6.96754,2.36141 0,0 3.52054,0.0693 3.52054,2.50639 0,2.43708 -6.15077,2.5191 -8.54577,2.5191 0,0 1.74942,-0.59452 1.74942,1.25069 0,1.84547 -6.762481,1.09802 -9.912611,1.09802 -3.15013,0 -21.87311,-0.002 -21.87311,-0.002 z"
         id="path7288"
         style="display:inline;stroke-width:0.264583" /><path
         fill="#6a8993"
         d="m 100.49228,118.8037 c -1.040341,0 -2.162971,-0.0444 -3.153571,-0.0836 -0.85751,-0.0339 -1.66819,-0.0659 -2.31616,-0.0659 -3.15013,0 -21.87337,-0.002 -21.87337,-0.002 -0.20875,0.001 -0.41936,0.002 -0.62627,0.002 -3.71686,0 -7.358588,-0.18944 -10.254188,-0.53366 -1.29487,-0.15373 -2.37146,-0.33338 -3.113087,-0.51938 -1.077648,-0.26988 -1.207558,-0.49107 -1.211792,-0.63394 -0.0063,-0.21881 0.305859,-0.37862 1.012031,-0.51779 0.681832,-0.13441 1.712119,-0.24157 3.062023,-0.3183 1.72085,-0.0979 3.712903,-0.1434 6.269563,-0.1434 1.64174,0 3.31074,0.0185 4.92416,0.0368 1.55496,0.0172 3.02419,0.0336 4.41669,0.0336 4.02246,0 8.17166,-0.13229 8.44841,-1.11443 0.0767,-0.27199 0.0408,-0.5027 -0.10927,-0.70538 -0.72019,-0.97049 -3.82667,-1.03055 -6.09441,-1.0742 -0.39741,-0.008 -0.77258,-0.0151 -1.10675,-0.0267 -0.57812,-0.0201 -1.55496,-0.15213 -1.54887,-0.51964 0.0138,-0.77629 4.94823,-0.89217 7.88855,-0.89217 2.82125,0 6.30343,0.10001 10.3497,0.29739 0.013,-0.0352 0.0217,-0.0961 -0.0167,-0.1778 -0.21379,-0.45641 -1.82166,-1.55998 -12.10443,-1.94786 l -0.005,-2.7e-4 c -0.005,-2.6e-4 -0.44397,-0.0439 -0.8763,-0.11112 -0.87498,-0.13626 -0.94271,-0.24342 -0.93742,-0.35058 0.006,-0.12276 0.14658,-0.20611 0.87022,-0.29421 0.62362,-0.0762 1.61819,-0.14208 2.95619,-0.19685 3.26099,-0.13309 8.61086,-0.20056 15.900661,-0.20056 5.70944,0 9.99278,0.1016 12.73096,0.30163 1.20041,0.0878 2.10555,0.195 2.69054,0.31909 0.59876,0.12673 0.86599,0.26908 0.86599,0.46063 0,0.13838 -0.11827,0.32888 -1.03929,0.57045 -0.57891,0.15187 -1.40467,0.30453 -2.38813,0.44212 -1.55204,0.21669 -3.31046,0.37147 -4.74371,0.42359 0.20426,0.0471 0.42227,0.10875 0.64108,0.18865 1.18904,0.43498 1.81716,1.21259 1.81716,2.24896 0,1.59861 -2.43522,2.46962 -7.24006,2.5908 0.23892,0.1942 0.44424,0.54557 0.44424,1.17898 0,0.52097 -0.45667,0.87789 -1.39726,1.09141 -0.72179,0.16378 -1.74678,0.24368 -3.13188,0.24368 z M 73.148649,118.478 c 8e-4,0 18.72404,0.002 21.87417,0.002 0.65166,0 1.46341,0.032 2.3233,0.0661 0.98849,0.0392 2.10952,0.0836 3.146431,0.0836 2.93105,0 4.35583,-0.37967 4.35583,-1.16046 0,-0.61674 -0.20108,-1.01097 -0.59743,-1.1721 -0.42042,0.007 -0.78951,0.008 -1.06494,0.008 h -0.52732 l 0.49953,-0.16959 c 0.0117,-0.004 0.28602,-0.0958 0.6231,-0.0958 0.18441,0 0.35295,0.0278 0.50085,0.0823 4.81621,-0.0894 7.3623,-0.9271 7.3623,-2.42305 0,-0.96917 -0.57176,-1.67032 -1.69915,-2.08386 -0.85646,-0.31432 -1.72694,-0.33523 -1.73594,-0.33523 l 0.003,-0.17436 c 0.0577,5.3e-4 0.11536,8e-4 0.17463,8e-4 1.53908,0 3.77401,-0.17331 5.6933,-0.44106 2.59212,-0.36195 3.27713,-0.70776 3.27713,-0.84006 0,-0.0368 -0.0955,-0.36486 -3.39461,-0.60589 -2.73446,-0.1995 -7.01357,-0.3011 -12.71852,-0.3011 -7.049031,0 -12.287511,0.063 -15.570201,0.18759 -3.01439,0.11457 -3.76846,0.25956 -3.94731,0.33735 0.20002,0.0952 0.95514,0.21537 1.61845,0.28072 4.44474,0.16774 7.75441,0.48736 9.83747,0.95012 1.41923,0.31538 2.23362,0.68791 2.41988,1.10754 0.10134,0.22754 -0.0238,0.381 -0.0294,0.38762 l -0.0275,0.0331 -0.0431,-0.002 c -4.06638,-0.19896 -7.56391,-0.29977 -10.39495,-0.29977 -7.61338,0 -7.71393,0.71358 -7.71419,0.72099 -0.002,0.10001 0.48392,0.31142 1.38033,0.34237 0.33311,0.0114 0.70776,0.0188 1.10411,0.0265 2.30425,0.0444 5.45994,0.10557 6.23093,1.14485 0.18204,0.24527 0.22807,0.5334 0.13706,0.85619 -0.28999,1.03056 -3.65416,1.24143 -8.61563,1.24143 -1.39409,0 -2.86305,-0.0164 -4.41854,-0.0339 -1.61369,-0.018 -3.28163,-0.0365 -4.92231,-0.0365 -2.55323,0 -4.542101,0.0455 -6.259776,0.14287 -3.812116,0.21643 -3.91107,0.61251 -3.909747,0.65696 0.005,0.16987 0.88265,0.59452 4.17142,0.98531 2.888986,0.34317 6.523563,0.53234 10.233823,0.53234 0.20505,-2.6e-4 0.41486,-0.001 0.62388,-0.002 z"
         id="path7290"
         style="display:inline;stroke-width:0.264583" /></g></g></svg>
