<?xml version="1.0" encoding="UTF-8" standalone="no"?>
<!-- Created with Inkscape (http://www.inkscape.org/) -->

<svg
   width="62.148514mm"
   height="33.798744mm"
   viewBox="0 0 62.148514 33.798744"
   version="1.1"
   id="svg1"
   xml:space="preserve"
   xmlns="http://www.w3.org/2000/svg"
   xmlns:svg="http://www.w3.org/2000/svg"><defs
     id="defs1" /><g
     id="layer12"
     style="display:inline"
     transform="translate(-144.98673,-85.695676)"><g
       id="g1"><path
         fill="#ffffff"
         d="m 163.60428,94.46933 c 0,0 3.96187,7.60254 7.18634,9.29217 0,0 -3.07789,-0.46646 -4.68153,-2.51407 -1.60417,-2.04761 2.03014,3.90472 4.68153,5.65917 0,0 -2.50481,0.67919 -4.2238,-1.31736 0,0 6.99082,11.01249 18.56369,11.68797 11.57261,0.67575 14.32269,0 14.32269,0 0,0 -5.38559,-0.21272 -8.3648,-2.30267 0,0 4.68392,0.27543 6.52409,-0.73845 0,0 -8.91275,-0.0439 -14.47905,-3.23188 0,0 3.08319,0.99192 4.54527,0 0,0 -6.50213,-1.69995 -11.34321,-6.6675 -4.84135,-4.96782 -6.61617,-7.05988 -6.61617,-7.05988 0,0 1.60549,4.39579 6.50293,8.31215 0,2.6e-4 -8.24733,-4.69953 -12.61798,-11.11965 z"
         id="path7274"
         style="display:inline;stroke-width:0.264583" /><path
         fill="#6a8993"
         d="m 193.98717,117.66456 c -2.46538,0 -5.4475,-0.10107 -8.86169,-0.30057 -2.65139,-0.15478 -5.28108,-0.86809 -7.81658,-2.1201 -2.02618,-1.00092 -3.99706,-2.34633 -5.85788,-3.99918 -3.16679,-2.81331 -4.9403,-5.58138 -4.95749,-5.60917 l 0.13943,-0.10345 c 0.9951,1.15597 2.25901,1.39859 3.14405,1.39859 0.3421,0 0.62282,-0.037 0.79692,-0.0677 -1.21867,-0.87207 -2.54476,-2.50137 -3.24511,-3.42159 -0.45138,-0.59346 -0.88821,-1.21153 -1.23032,-1.7407 -0.50218,-0.77734 -0.47916,-0.85434 -0.46725,-0.89561 0.0124,-0.0408 0.0495,-0.0683 0.0918,-0.0683 0.0497,0 0.0963,0 0.45402,0.45668 1.17872,1.50389 3.18823,2.14762 4.12221,2.37569 -1.25624,-0.83926 -2.72838,-2.53074 -4.38388,-5.03952 -1.3798,-2.09127 -2.37807,-4.00103 -2.38813,-4.01981 l 0.14923,-0.0894 c 2.25107,3.30649 5.55413,6.14653 7.9285,7.94702 1.50601,1.14141 2.83766,2.0201 3.68776,2.55508 -2.04681,-1.80393 -3.41497,-3.63087 -4.23174,-4.91146 -1.00727,-1.57797 -1.41896,-2.69319 -1.4232,-2.7043 l -0.16748,-0.45826 0.31539,0.37227 c 0.0177,0.0209 1.82933,2.14709 6.6122,7.05485 2.49052,2.55587 5.43004,4.22592 7.45781,5.17683 2.19869,1.03135 3.82878,1.46315 3.84519,1.46738 l 0.18547,0.0487 -0.15901,0.10768 c -0.44583,0.30269 -1.07739,0.45588 -1.87696,0.45588 -0.74348,0 -1.49966,-0.13467 -2.02882,-0.25585 2.76569,1.40546 6.18384,2.10767 8.64843,2.45295 2.88476,0.40402 5.12075,0.41963 5.14297,0.41989 l 0.33523,0.002 -0.29316,0.16166 c -1.17581,0.64744 -3.45175,0.78317 -5.15408,0.78317 -0.46355,0 -0.85222,-0.0106 -1.10464,-0.0201 2.96889,1.89203 8.00868,2.11243 8.0608,2.11455 l 0.61621,0.0243 -0.59928,0.14737 c -0.0505,0.0124 -1.28084,0.30295 -5.48693,0.30295 z m -26.86208,-11.42418 c 0.72575,0.99748 2.2479,2.92629 4.44553,4.8776 2.90353,2.57863 7.61338,5.72505 13.56465,6.07245 3.41154,0.19896 6.38943,0.3003 8.8519,0.3003 2.44052,0 3.88409,-0.10081 4.66461,-0.18521 -1.61952,-0.15081 -5.33321,-0.65987 -7.61339,-2.25954 l -0.25109,-0.17621 0.30613,0.0177 c 0.006,2.7e-4 0.58816,0.0339 1.40731,0.0339 1.26101,0 3.45546,-0.0828 4.74028,-0.60589 -0.75512,-0.022 -2.58471,-0.10451 -4.7924,-0.41355 -2.6752,-0.37465 -6.47065,-1.1684 -9.35805,-2.82231 l -0.72019,-0.41248 0.78978,0.254 c 0.0138,0.004 1.37372,0.43629 2.69055,0.43629 0.66701,0 1.20756,-0.10927 1.61105,-0.32464 -0.49822,-0.14605 -1.90421,-0.59029 -3.67665,-1.42108 -2.04127,-0.95752 -5.00195,-2.63922 -7.51232,-5.21467 -3.60574,-3.7002 -5.52503,-5.82163 -6.26031,-6.65295 0.21405,0.46964 0.60008,1.24063 1.19857,2.17805 0.92048,1.44225 2.54688,3.58458 5.06544,5.59859 l -0.0974,0.14366 c -0.0209,-0.0119 -2.09682,-1.20067 -4.67969,-3.15886 -2.10767,-1.59808 -4.94453,-4.01293 -7.13872,-6.84874 1.27026,2.21907 4.09152,6.78075 6.47012,8.02693 l 0.46038,0.2413 -0.51382,-0.0778 c -0.031,-0.005 -3.08505,-0.48842 -4.70192,-2.5019 0.76624,1.24222 2.98292,4.31006 4.76303,5.48798 l 0.16034,0.10637 -0.18574,0.0505 c -0.0167,0.005 -0.42889,0.1143 -1.0361,0.1143 -0.74454,5.3e-4 -1.74678,-0.16483 -2.65192,-0.86413 z"
         id="path7276"
         style="display:inline;stroke-width:0.264583" /><path
         fill="#ffffff"
         d="m 190.41742,107.89006 c 0,0 6.99187,3.92906 16.67139,-2.21139 0,0 -3.07208,1.67402 -5.71182,1.58195 0,0 3.38799,-1.49728 4.2246,-2.62229 0,0 -4.57782,2.23943 -5.68854,1.45283 0,0 1.20941,0.2196 0.71411,-1.16708 -0.49557,-1.38642 0.23865,0.89429 -3.32767,0.19129 -3.56632,-0.70299 -8.27431,-3.43535 -6.99241,-1.41578 1.28191,2.01956 7.85601,4.97946 -1.43642,1.89997 -9.29243,-3.07895 -10.39707,-5.1935 -10.39707,-5.1935 0,0 3.63247,4.14787 11.94383,7.484 z"
         id="path7278"
         style="display:inline;stroke-width:0.264583" /><path
         fill="#6a8993"
         d="m 196.26656,109.21509 c -5.3e-4,0 -5.3e-4,0 -5.3e-4,0 -3.53933,0 -5.76104,-1.17845 -5.88566,-1.24618 -5.98196,-2.40163 -9.53928,-5.20833 -11.12916,-6.66962 -0.68395,-0.53552 -0.84799,-0.84032 -0.85487,-0.85328 l -0.33735,-0.64559 0.48022,0.54796 c 0.003,0.003 0.27411,0.31168 0.82471,0.81809 1.20835,0.94403 3.84307,2.46433 9.53399,4.35028 2.76781,0.91704 4.209,1.32609 4.67387,1.32609 v 0 c 0.0556,0 0.0849,-0.006 0.0982,-0.0109 -0.0426,-0.14367 -0.63606,-0.59531 -1.11601,-0.96017 -0.83688,-0.63685 -1.87881,-1.42902 -2.32066,-2.12593 -0.21379,-0.33655 -0.2757,-0.56171 -0.195,-0.70855 0.0572,-0.10346 0.17939,-0.15611 0.36301,-0.15611 0.49186,0 1.45362,0.35772 2.67123,0.81042 1.34276,0.49953 2.86438,1.06574 4.24365,1.33773 0.45932,0.0905 0.87657,0.13626 1.23957,0.13626 1.13427,0 1.4912,-0.43709 1.66212,-0.64717 0.0661,-0.0804 0.11377,-0.13864 0.18732,-0.13864 0.12039,0 0.16669,0.12938 0.30401,0.51435 0.16245,0.45561 0.16483,0.8001 0.007,1.0242 -0.0918,0.13044 -0.22225,0.20082 -0.35507,0.23707 0.0775,0.0103 0.16272,0.0154 0.25479,0.0154 1.6338,0 4.91411,-1.59518 4.94718,-1.61158 l 0.322,-0.15743 -0.21405,0.2876 c -0.68554,0.92181 -2.99323,2.06164 -3.89652,2.48418 2.49079,-0.072 5.24404,-1.55655 5.27209,-1.57216 l 0.0886,0.15002 c -3.62161,2.2987 -7.27921,3.46366 -10.86855,3.46366 z m -15.76626,-7.07072 c 1.89945,1.53802 5.1353,3.73221 9.94939,5.66473 l 0.0106,0.005 c 0.0217,0.0122 2.22858,1.22687 5.80549,1.22687 3.09932,0 6.25131,-0.87789 9.38874,-2.61249 -1.09168,0.43577 -2.63155,0.9226 -4.06453,0.9226 -0.0728,0 -0.14552,-10e-4 -0.21643,-0.004 l -0.37968,-0.0132 0.3474,-0.15373 c 0.0304,-0.0132 2.77257,-1.23216 3.89519,-2.27436 -0.93821,0.43101 -3.27607,1.43934 -4.62094,1.43934 -0.32782,0 -0.58156,-0.0617 -0.7538,-0.18362 l -0.32015,-0.22675 0.38629,0.0704 c 5.3e-4,0 0.0648,0.0111 0.15399,0.0111 0.1606,0 0.37597,-0.0344 0.4916,-0.19817 0.12303,-0.17516 0.11324,-0.4662 -0.0291,-0.86545 -0.0474,-0.13203 -0.10901,-0.3048 -0.14737,-0.37704 -0.014,0.0156 -0.0302,0.0355 -0.0447,0.0532 -0.17357,0.21272 -0.58024,0.71093 -1.79732,0.7112 -0.37438,0 -0.80248,-0.0471 -1.27317,-0.1397 -1.3933,-0.27464 -2.989,-0.8681 -4.27117,-1.34515 -1.15332,-0.42915 -2.14974,-0.79957 -2.61012,-0.79957 -0.0796,0 -0.18044,0.0114 -0.21061,0.0659 -0.0201,0.0376 -0.0431,0.16458 0.18971,0.53102 0.42545,0.67046 1.45336,1.4523 2.27912,2.08069 0.92604,0.70432 1.24407,0.96784 1.17951,1.16046 -0.0415,0.12329 -0.21166,0.12329 -0.26723,0.12329 v 0 c -0.49053,0 -1.90447,-0.39925 -4.72836,-1.33482 -4.25239,-1.40943 -6.80985,-2.61858 -8.34232,-3.53774 z"
         id="path7280"
         style="display:inline;stroke-width:0.264583" /><path
         fill="#ffffff"
         d="m 153.63927,101.50593 c 0,0 7.31229,11.05694 14.2756,12.83361 l -1.24301,-2.96148 c 0,0 3.38243,3.33216 9.20961,5.81237 0,0 -11.31411,0.30824 -14.92991,-1.27132 0,0 3.13796,2.7641 5.7203,2.96174 0,0 -12.41611,1.18454 -20.58459,0 0,0 -3.61553,-2.19604 2.81226,-1.69042 0,0 -1.20544,-2.45586 0,-2.65351 1.20518,-0.19738 4.73974,0.98716 4.73974,0.98716 0,0 -4.20422,-7.70017 -5.27552,-14.01815 0,0 1.35281,3.68538 5.36337,8.95085 0,0 -5.36337,-11.48847 -6.30106,-18.709479 0,0 3.21416,7.480569 4.0177,8.816979 0.80354,1.33667 -2.94613,-8.140704 -3.08001,-14.853712 -2.7e-4,0 2.10396,11.607002 5.27552,15.795362 z"
         id="path7282"
         style="display:inline;stroke-width:0.264583" /><path
         fill="#ffffff"
         d="m 157.086,100.02506 c 0,0 1.80472,5.76315 6.62702,8.7331 0,0 -2.80723,-2.56699 -3.22474,-4.36669 0,0 2.04708,2.28151 3.22474,2.31431 1.00912,0.0278 -3.12737,-3.01122 -5.57345,-7.85495 -0.40904,-0.81041 -0.77073,-1.6711 -1.0533,-2.57677 l 1.388,4.29366 c -2.6e-4,-2.7e-4 -0.81201,0.0556 -1.38827,-0.54266 z"
         id="path7284"
         style="display:inline;stroke-width:0.264583" /><path
         fill="#6a8993"
         d="m 163.66751,108.83198 c -2.50666,-1.54332 -4.18491,-3.84837 -5.1517,-5.51022 -1.04669,-1.79969 -1.50865,-3.25622 -1.51289,-3.27051 l -0.11033,-0.35269 0.25612,0.26617 c 0.41804,0.43392 0.97022,0.50588 1.20597,0.51567 l -1.25466,-3.8809 c -0.0333,-0.0995 -0.0659,-0.20056 -0.0968,-0.29978 l 0.16589,-0.0526 0.0963,0.29766 c 0.25056,0.74956 0.57097,1.51209 0.95197,2.26668 1.42399,2.81993 3.43852,5.04296 4.64238,6.37143 0.87233,0.96229 1.16946,1.30546 1.08162,1.50337 -0.0328,0.0741 -0.10875,0.1098 -0.23046,0.10662 -0.96123,-0.0267 -2.43469,-1.45018 -3.02842,-2.06666 0.6485,1.72138 3.06335,3.94388 3.09007,3.96769 z m -6.39339,-8.53123 c 0.18865,0.51488 0.63685,1.63486 1.39462,2.93741 0.85143,1.46261 2.25928,3.42847 4.30318,4.91754 -0.86545,-0.88688 -2.27647,-2.48497 -2.56884,-3.74438 l -0.0767,-0.3302 0.22622,0.25215 c 0.0204,0.0225 2.03571,2.25398 3.16257,2.28494 l 0.0114,2.6e-4 c 0.0328,0 0.0492,-0.004 0.0556,-0.007 0.013,-0.13705 -0.5043,-0.70802 -1.05172,-1.31207 -1.20968,-1.33455 -3.23453,-3.5687 -4.66858,-6.40953 -0.0378,-0.0741 -0.0741,-0.1479 -0.11059,-0.22198 l 0.63976,1.97855 -0.11112,0.008 c 0,0 -0.0222,0.002 -0.0622,0.002 -0.16669,-2.7e-4 -0.68104,-0.0294 -1.14353,-0.35534 z"
         id="path7286"
         style="display:inline;stroke-width:0.264583" /><path
         fill="#e6f0f4"
         d="m 161.2016,119.14993 c 0,0 -2.33072,-0.84931 -3.83329,-2.6789 0,0 -0.0572,1.17607 0.68977,2.89665"
         id="path7306"
         style="display:inline;stroke-width:0.264583" /><path
         fill="#d8e1e5"
         d="m 172.65673,117.1682 c 0,0 -3.09218,-1.35043 -3.61474,-2.00369 0,0 0.52308,1.20386 1.95977,2.00369 0.49001,0.14288 0.74031,0.11854 0.74031,0.11854 z"
         id="path7308"
         style="display:inline;stroke-width:0.264583" /><path
         fill="#ffffff"
         d="m 158.16074,90.25902 c -0.24209,-0.448469 -1.338,-3.899958 1.17501,-0.285485 0.35031,0.503766 2.21668,4.015055 2.62599,4.507445 0.82127,0.98663 1.27847,1.79281 1.27847,1.79281 0,0 -3.39169,-2.881839 -5.07947,-6.01477 z"
         id="path7316"
         style="display:inline;stroke-width:0.264583" /><path
         fill="#6a8993"
         d="m 163.55824,96.6585 -0.37439,-0.31856 c -0.0341,-0.0291 -3.42344,-2.928409 -5.1001,-6.039909 -0.11245,-0.208227 -0.61543,-1.589088 -0.4027,-1.944952 0.0389,-0.06535 0.10054,-0.101071 0.1741,-0.101071 0.16801,0 0.51223,0.173037 1.55231,1.669785 0.14896,0.213519 0.55139,0.934508 1.01811,1.769533 0.64215,1.148821 1.36975,2.451104 1.60338,2.731824 0.81677,0.98134 1.28243,1.79731 1.2872,1.80552 z m -5.70336,-8.230132 c -0.009,0 -0.0156,7.94e-4 -0.0246,0.01588 -0.14552,0.243417 0.25533,1.492779 0.40667,1.773238 1.29169,2.397389 3.61341,4.670954 4.59819,5.576884 -0.2159,-0.32358 -0.53419,-0.76967 -0.94086,-1.25783 -0.24341,-0.29316 -0.97551,-1.602842 -1.62136,-2.758542 -0.44477,-0.796131 -0.86519,-1.548342 -1.00886,-1.754717 -1.00039,-1.439597 -1.31868,-1.594908 -1.40917,-1.594908 z"
         id="path7318"
         style="display:inline;stroke-width:0.264583" /><path
         fill="#ffffff"
         d="m 181.44116,99.76285 c -0.14473,-0.18309 -1.07368,-1.96347 0.37201,-0.97737 0.20187,0.13759 1.51368,2.23997 1.73566,2.35929 0.44556,0.23945 0.72919,0.48207 0.72919,0.48207 0,0 -1.75286,-0.49106 -2.83686,-1.86399 z"
         id="path7320"
         style="display:inline;stroke-width:0.264583" /><path
         fill="#6a8993"
         d="m 184.63442,101.81734 -0.37994,-0.10662 c -0.0728,-0.0204 -1.79256,-0.51462 -2.88211,-1.89336 -0.0741,-0.0945 -0.56912,-0.9652 -0.41381,-1.28535 0.04,-0.0831 0.11853,-0.12911 0.22066,-0.12911 0.15293,0 0.37651,0.1016 0.68316,0.31088 0.10239,0.0701 0.37333,0.46302 0.80698,1.09802 0.34475,0.50588 0.81782,1.19803 0.92048,1.25677 0.44821,0.24077 0.73263,0.48234 0.74428,0.49239 z m -3.45493,-3.24061 c -0.0492,0 -0.0587,0.0193 -0.064,0.0309 -0.0971,0.20109 0.28522,0.96309 0.39423,1.10146 0.62733,0.79402 1.49198,1.29117 2.09179,1.56422 -0.0302,-0.0172 -0.0616,-0.0344 -0.0937,-0.0519 -0.12779,-0.0688 -0.4564,-0.54134 -0.98213,-1.3118 -0.30321,-0.44424 -0.68077,-0.99748 -0.76121,-1.05225 -0.34025,-0.23204 -0.50588,-0.28072 -0.58499,-0.28072 z"
         id="path7322"
         style="display:inline;stroke-width:0.264583" /><path
         fill="#ffffff"
         d="m 166.0731,95.67028 c -0.15822,-0.2114 -0.65219,-2.587891 1.01891,-0.92075 0.2331,0.2323 1.27053,2.59053 1.54596,2.81305 0.55166,0.44662 0.8517,0.8247 0.8517,0.8247 0,0 -2.31405,-1.24142 -3.41657,-2.717 z"
         id="path7324"
         style="display:inline;stroke-width:0.264583" /><path
         fill="#6a8993"
         d="m 169.81881,98.66325 -0.37095,-0.19897 c -0.0233,-0.0124 -2.34288,-1.26762 -3.44461,-2.74214 -0.1143,-0.15293 -0.32517,-1.05199 -0.12832,-1.44489 0.0672,-0.13362 0.17648,-0.20426 0.31565,-0.20426 0.23283,0 0.54769,0.20082 0.96308,0.61489 0.10875,0.10874 0.33417,0.55219 0.69215,1.27 0.31697,0.63632 0.712,1.42822 0.84667,1.53723 0.55298,0.44741 0.85222,0.82259 0.86492,0.83846 z m -3.62823,-4.41617 c -0.0728,0 -0.1225,0.0333 -0.15981,0.10822 -0.16245,0.32464 0.0365,1.16152 0.11218,1.26233 0.762,1.0197 2.12752,1.93701 2.87073,2.39157 -0.11906,-0.1143 -0.26352,-0.24369 -0.43074,-0.37915 -0.15213,-0.12356 -0.4527,-0.71173 -0.89297,-1.59491 -0.26379,-0.5289 -0.56303,-1.12818 -0.6596,-1.22423 -0.46752,-0.46593 -0.71491,-0.56383 -0.83979,-0.56383 z"
         id="path7326"
         style="display:inline;stroke-width:0.264583" /><path
         fill="#6a8993"
         d="m 155.05427,119.49442 c -3.54489,0 -6.56617,-0.17727 -8.9797,-0.52731 l -0.0172,-0.003 -0.0156,-0.009 c -0.12303,-0.0749 -1.19697,-0.74665 -1.03928,-1.31207 0.11615,-0.41407 0.83952,-0.61568 2.21192,-0.61568 0.4445,0 0.96308,0.0217 1.54305,0.0648 -0.18733,-0.41698 -0.69771,-1.66793 -0.3765,-2.28997 0.10027,-0.19473 0.27013,-0.31273 0.50403,-0.3511 0.0942,-0.0156 0.20584,-0.0233 0.33099,-0.0233 1.2102,0 3.53404,0.71755 4.24392,0.94641 -0.6522,-1.23269 -4.21455,-8.1452 -5.1824,-13.85358 l 0.16748,-0.0444 c 0.0132,0.0352 1.28403,3.43429 4.87098,8.28781 -0.48921,-1.08982 -1.4552,-3.29724 -2.46935,-5.92244 -1.33192,-3.44857 -3.02181,-8.3439 -3.50705,-12.082722 l -0.0807,-0.620448 0.24712,0.574675 c 0.0307,0.07117 2.90989,6.767515 3.87614,8.565355 -0.0825,-0.2966 -0.21431,-0.73051 -0.35745,-1.202 -0.86228,-2.83792 -2.65641,-8.743422 -2.74875,-13.363576 l 0.1725,-0.0172 c 0.0214,0.115888 2.13704,11.634256 5.25992,15.758316 l 0.003,0.004 c 0.018,0.0275 1.85658,2.79453 4.52041,5.74173 2.41432,2.67202 6.01212,6.03435 9.53346,7.01013 l -1.34249,-3.19855 0.30983,0.3048 c 0.0336,0.0333 3.43984,3.34989 9.18236,5.79438 l 0.36724,0.15637 -0.39873,0.0108 c -0.009,2.7e-4 -0.9091,0.0243 -2.25663,0.0243 -3.41815,0 -9.35804,-0.14976 -12.21025,-1.11152 0.92974,0.73951 3.27871,2.4519 5.26177,2.6035 l 0.002,0.17357 c -0.0548,0.004 -5.59223,0.52599 -11.62552,0.52599 z m -8.9371,-0.69718 c 2.40268,0.34714 5.40914,0.52335 8.9371,0.52308 4.75906,0 9.20961,-0.32517 10.8966,-0.46408 -2.4003,-0.55112 -4.93977,-2.76833 -5.05725,-2.87152 l -0.41751,-0.3683 0.51038,0.22278 c 2.56593,1.12104 9.0215,1.28852 12.64073,1.28852 0.81413,0 1.46447,-0.009 1.85288,-0.0159 -4.60375,-2.02354 -7.64752,-4.56803 -8.57224,-5.39697 l 1.15491,2.75246 -0.16933,-0.0431 c -1.59994,-0.40825 -3.34936,-1.34038 -5.20012,-2.77045 -1.47664,-1.14142 -3.02207,-2.60112 -4.59185,-4.33864 -2.63842,-2.91941 -4.4696,-5.66261 -4.53284,-5.75866 -1.6465,-2.17566 -2.99693,-6.36455 -3.84043,-9.496157 -0.56224,-2.087562 -0.98001,-3.995208 -1.21893,-5.159639 0.32967,4.379119 1.89574,9.533466 2.68287,12.124536 0.44794,1.47505 0.48842,1.63512 0.42969,1.7145 -0.0183,0.0249 -0.0466,0.0389 -0.0773,0.0389 -0.0627,0 -0.10478,-0.0524 -0.17542,-0.1696 -0.67204,-1.11813 -2.97577,-6.40583 -3.76132,-8.22272 1.14353,7.14931 6.14654,17.92182 6.19866,18.03321 l 0.34264,0.73448 -0.49054,-0.64479 c -2.92867,-3.84466 -4.45347,-6.87731 -5.05831,-8.2206 1.25148,6.06954 5.07604,13.12015 5.11572,13.19371 l 0.10663,0.195 -0.21061,-0.0707 c -0.0299,-0.0101 -3.01466,-1.00489 -4.39526,-1.00489 -0.11562,0 -0.21748,0.007 -0.30294,0.0212 -0.17913,0.0291 -0.30295,0.11404 -0.37783,0.25903 -0.34052,0.65987 0.43392,2.25398 0.44159,2.27012 l 0.0675,0.13732 -0.1524,-0.0119 c -0.63527,-0.05 -1.19989,-0.0754 -1.67772,-0.0754 -1.65947,0 -1.99285,0.30612 -2.04417,0.48842 -0.10293,0.36671 0.63447,0.91387 0.94641,1.10675 z"
         id="path7468"
         style="display:inline;stroke-width:0.264583" /></g></g></svg>
