<?xml version="1.0" encoding="UTF-8" standalone="no"?>
<!-- Created with Inkscape (http://www.inkscape.org/) -->

<svg
   width="26.803612mm"
   height="22.336752mm"
   viewBox="0 0 26.803612 22.336752"
   version="1.1"
   id="svg1"
   xml:space="preserve"
   xmlns="http://www.w3.org/2000/svg"
   xmlns:svg="http://www.w3.org/2000/svg"><defs
     id="defs1" /><g
     id="layer5"
     style="display:inline"
     transform="translate(-73.343401,-174.18681)"><g
       id="g12"><path
         fill="#ffffff"
         d="m 100.05993,190.82762 c 0,-2.13598 -1.052522,-3.99362 -2.600592,-4.94056 -0.1569,-1.04273 -0.90461,-1.85685 -1.83859,-1.98041 0.096,-0.33629 0.14843,-0.69559 0.14843,-1.06812 0,-1.90897 -1.36287,-3.45599 -3.04483,-3.45599 -0.3085,0 -0.60642,0.0521 -0.88741,0.14922 -0.26564,-2.95328 -2.46353,-5.257 -5.13556,-5.257 -2.49396,0 -4.57491,2.00686 -5.05725,4.67571 -0.17594,-0.0452 -0.35877,-0.0691 -0.54636,-0.0691 -1.332972,0 -2.419087,1.19803 -2.469093,2.69663 -1.415786,0.36274 -2.473061,1.7989 -2.473061,3.51526 0,0.23521 0.02064,0.4646 0.05821,0.68712 -1.647825,0.90937 -2.783946,2.82786 -2.783946,5.04693 0,3.09774 2.212975,5.6089 4.942152,5.6089 0.181504,0 0.360098,-0.0114 0.53631,-0.0328 0.138113,0.0206 0.279136,0.0325 0.42254,0.0325 v 0 2.7e-4 h 16.041158 c 0.16139,0 0.31856,-0.0212 0.46937,-0.0601 2.38628,-0.39714 4.218522,-2.72971 4.218522,-5.54858 z"
         id="path7062"
         style="display:inline;stroke-width:0.264583" /><path
         fill="#e6f0f4"
         d="m 94.380118,196.43652 c -0.13785,-0.10583 -0.28073,-0.20426 -0.42783,-0.29448 -0.15664,-1.04219 -0.90462,-1.85685 -1.83859,-1.98041 0.0963,-0.33655 0.14843,-0.69559 0.14843,-1.06812 0,-1.90897 -1.36287,-3.45625 -3.04456,-3.45625 -0.30851,0 -0.60643,0.0521 -0.88742,0.14922 -0.26564,-2.95301 -2.4638,-5.25727 -5.13582,-5.25727 -2.49397,0 -4.574914,2.00766 -5.057249,4.67598 -0.175683,-0.0447 -0.35851,-0.0688 -0.546365,-0.0688 -1.33297,0 -2.419085,1.19777 -2.468827,2.69664 -0.537368,0.13784 -1.023143,0.43074 -1.419225,0.83449 0.670984,2.19393 2.507986,3.76873 4.669367,3.76873 0.181504,0 0.360098,-0.0114 0.53631,-0.0328 0.138113,0.0206 0.279136,0.0325 0.42254,0.0325 v 0 2.7e-4 h 15.049239 z"
         id="path7304"
         style="display:inline;stroke-width:0.264583" /><path
         fill="#6a8993"
         d="M 95.372038,196.52357 H 79.210494 l 0.0011,-0.003 c -0.09975,-0.005 -0.201613,-0.014 -0.304271,-0.0291 -0.178329,0.0212 -0.358246,0.032 -0.534987,0.032 -2.772834,0 -5.028936,-2.55482 -5.028936,-5.69595 0,-1.08717 0.271727,-2.14471 0.785284,-3.05753 0.490008,-0.871 1.177395,-1.57374 1.989931,-2.03596 -0.03307,-0.21246 -0.04974,-0.42757 -0.04974,-0.64056 0,-0.84058 0.256381,-1.66291 0.721783,-2.3159 0.446882,-0.62627 1.067859,-1.07447 1.753923,-1.26709 0.08043,-1.52797 1.191154,-2.71647 2.553497,-2.71647 0.16007,0 0.32014,0.0169 0.47757,0.0508 0.25083,-1.28535 0.88212,-2.45322 1.78356,-3.29724 0.93715,-0.8771 2.12407,-1.36075 3.34248,-1.36075 1.31021,0 2.56487,0.54954 3.53271,1.54807 0.93504,0.96414 1.52877,2.26722 1.67905,3.68036 0.26379,-0.0802 0.53605,-0.12012 0.81095,-0.12012 1.72693,0 3.13187,1.58908 3.13187,3.54303 0,0.3392 -0.0421,0.67442 -0.12595,0.99722 0.90726,0.16854 1.6391,0.97313 1.80843,1.99866 1.60973,1.00277 2.608262,2.912 2.608262,4.99348 0,1.37345 -0.437622,2.7006 -1.232432,3.73592 -0.78819,1.02605 -1.87298,1.70074 -3.05514,1.89838 -0.16087,0.0413 -0.32491,0.0617 -0.48736,0.0617 z m -15.954111,-0.17383 h 15.954111 c 0.14922,0 0.30004,-0.0193 0.44767,-0.0574 l 0.007,-0.002 c 2.36352,-0.39344 4.14602,-2.74188 4.14602,-5.46312 0,-2.0357 -0.98081,-3.90075 -2.55931,-4.86648 l -0.0347,-0.0209 -0.006,-0.0402 c -0.15108,-1.00515 -0.87657,-1.78911 -1.76398,-1.90712 l -0.10001,-0.0135 0.0278,-0.0971 c 0.0963,-0.33629 0.14499,-0.68792 0.14499,-1.04378 0,-1.85764 -1.32662,-3.36868 -2.95751,-3.36868 -0.29237,0 -0.58103,0.0484 -0.85884,0.14473 l -0.10504,0.0365 -0.0101,-0.11112 c -0.26564,-2.9517 -2.43628,-5.1779 -5.04904,-5.1779 -2.39845,0 -4.48919,1.93622 -4.97152,4.60428 l -0.0167,0.0921 -0.0907,-0.0233 c -0.17172,-0.0442 -0.34846,-0.0661 -0.52467,-0.0661 -1.286935,0 -2.333098,1.1475 -2.381781,2.61277 l -0.0021,0.0648 -0.06323,0.0164 c -1.394883,0.35798 -2.407708,1.80076 -2.407708,3.43112 0,0.22357 0.01931,0.44953 0.05715,0.67231 l 0.01032,0.0608 -0.05397,0.0302 c -1.663964,0.91811 -2.738966,2.86914 -2.738966,4.97046 0,3.04509 2.177785,5.52212 4.854839,5.52212 0.173831,0 0.350573,-0.0111 0.525727,-0.0325 l 0.01164,-0.001 0.01164,0.001 c 0.1397,0.0212 0.277283,0.032 0.409575,0.032 z"
         id="path7472"
         style="display:inline;stroke-width:0.264583" /></g></g></svg>
