<?xml version="1.0" encoding="UTF-8" standalone="no"?>
<!-- Generator: Adobe Illustrator 15.0.0, SVG Export Plug-In  -->

<svg
   version="1.0"
   x="0px"
   y="0px"
   width="361.0892"
   height="523.73297"
   viewBox="0.079 0 361.0892 523.73297"
   enable-background="new 0.079 0 960 590"
   xml:space="preserve"
   id="svg6906"
   xmlns="http://www.w3.org/2000/svg"
   xmlns:svg="http://www.w3.org/2000/svg"
   xmlns:rdf="http://www.w3.org/1999/02/22-rdf-syntax-ns#"
   xmlns:cc="http://creativecommons.org/ns#"
   xmlns:dc="http://purl.org/dc/elements/1.1/"><metadata
     id="metadata7478"><rdf:RDF><cc:Work
         rdf:about=""><dc:format>image/svg+xml</dc:format><dc:type
           rdf:resource="http://purl.org/dc/dcmitype/StillImage" /><dc:title /></cc:Work></rdf:RDF></metadata><defs
     id="defs6908" /><g
     id="layer5"
     style="display:inline"
     transform="translate(-112,-36)"><g
       id="g30"><g
         id="g29"
         transform="translate(21.984,-3.025)"
         style="display:inline"><path
           fill="#a6b7bf"
           d="m 309.781,481.357 c -0.149,0 -0.3,-0.021 -0.45,-0.063 -0.875,-0.247 -1.383,-1.157 -1.135,-2.032 l 1.122,-3.96 c 0.248,-0.875 1.158,-1.383 2.033,-1.135 0.875,0.247 1.383,1.157 1.135,2.033 l -1.123,3.959 c -0.205,0.726 -0.865,1.198 -1.582,1.198 z"
           id="path6932" /><path
           fill="#a6b7bf"
           d="m 293.856,481.357 c -0.149,0 -0.3,-0.021 -0.45,-0.063 -0.875,-0.247 -1.382,-1.157 -1.135,-2.032 l 1.122,-3.96 c 0.248,-0.875 1.158,-1.383 2.033,-1.135 0.874,0.247 1.383,1.157 1.135,2.033 l -1.122,3.959 c -0.205,0.726 -0.865,1.198 -1.583,1.198 z"
           id="path6934" /><path
           fill="#a6b7bf"
           d="m 277.933,481.357 c -0.148,0 -0.3,-0.021 -0.45,-0.063 -0.875,-0.247 -1.383,-1.157 -1.135,-2.032 l 1.122,-3.96 c 0.248,-0.875 1.158,-1.383 2.033,-1.135 0.875,0.247 1.383,1.157 1.135,2.033 l -1.122,3.959 c -0.206,0.726 -0.866,1.198 -1.583,1.198 z"
           id="path6936" /><path
           fill="#a6b7bf"
           d="m 262.008,481.357 c -0.148,0 -0.3,-0.021 -0.45,-0.063 -0.875,-0.247 -1.382,-1.157 -1.135,-2.032 l 1.122,-3.96 c 0.248,-0.875 1.158,-1.383 2.033,-1.135 0.875,0.247 1.383,1.157 1.135,2.033 l -1.121,3.959 c -0.206,0.726 -0.866,1.198 -1.584,1.198 z"
           id="path6938" /><path
           fill="#a6b7bf"
           d="m 246.084,481.357 c -0.148,0 -0.3,-0.021 -0.45,-0.063 -0.875,-0.247 -1.383,-1.157 -1.135,-2.032 l 1.122,-3.96 c 0.248,-0.875 1.158,-1.383 2.033,-1.135 0.875,0.247 1.383,1.157 1.135,2.033 l -1.121,3.959 c -0.206,0.726 -0.866,1.198 -1.584,1.198 z"
           id="path6940" /><path
           fill="#a6b7bf"
           d="m 230.16,481.357 c -0.148,0 -0.3,-0.021 -0.45,-0.063 -0.875,-0.247 -1.383,-1.157 -1.135,-2.032 l 1.123,-3.96 c 0.248,-0.875 1.158,-1.383 2.033,-1.135 0.875,0.247 1.383,1.157 1.135,2.033 l -1.121,3.959 c -0.207,0.726 -0.868,1.198 -1.585,1.198 z"
           id="path6942" /><path
           fill="#a6b7bf"
           d="m 214.235,481.357 c -0.147,0 -0.299,-0.021 -0.449,-0.063 -0.875,-0.247 -1.384,-1.157 -1.136,-2.032 l 1.123,-3.96 c 0.247,-0.875 1.157,-1.383 2.032,-1.135 0.875,0.247 1.383,1.157 1.135,2.033 l -1.121,3.959 c -0.205,0.726 -0.865,1.198 -1.584,1.198 z"
           id="path6944" /><path
           fill="#a6b7bf"
           d="m 198.312,481.357 c -0.148,0 -0.3,-0.021 -0.45,-0.063 -0.875,-0.247 -1.383,-1.157 -1.135,-2.032 l 1.122,-3.96 c 0.248,-0.875 1.157,-1.383 2.033,-1.135 0.875,0.247 1.383,1.157 1.135,2.033 l -1.122,3.959 c -0.206,0.726 -0.866,1.198 -1.583,1.198 z"
           id="path6946" /><path
           fill="#a6b7bf"
           d="m 182.388,481.357 c -0.148,0 -0.299,-0.021 -0.449,-0.063 -0.875,-0.247 -1.383,-1.157 -1.135,-2.032 l 1.122,-3.96 c 0.248,-0.875 1.158,-1.383 2.032,-1.135 0.875,0.247 1.383,1.157 1.135,2.033 l -1.122,3.959 c -0.205,0.726 -0.866,1.198 -1.583,1.198 z"
           id="path6950" /><path
           fill="#a6b7bf"
           d="m 166.464,481.357 c -0.148,0 -0.3,-0.021 -0.45,-0.063 -0.875,-0.247 -1.383,-1.157 -1.135,-2.032 l 1.122,-3.96 c 0.248,-0.875 1.158,-1.383 2.032,-1.135 0.875,0.247 1.384,1.157 1.136,2.033 l -1.122,3.959 c -0.206,0.726 -0.866,1.198 -1.583,1.198 z"
           id="path6954" /><path
           fill="#a6b7bf"
           d="m 150.54,481.357 c -0.148,0 -0.299,-0.021 -0.449,-0.063 -0.875,-0.247 -1.383,-1.157 -1.135,-2.032 l 1.122,-3.96 c 0.248,-0.875 1.158,-1.383 2.033,-1.135 0.875,0.247 1.383,1.157 1.135,2.033 l -1.123,3.959 c -0.206,0.726 -0.865,1.198 -1.583,1.198 z"
           id="path6956" /><path
           fill="#a6b7bf"
           d="m 134.616,481.357 c -0.148,0 -0.299,-0.021 -0.45,-0.063 -0.875,-0.247 -1.383,-1.157 -1.135,-2.032 l 1.121,-3.96 c 0.248,-0.875 1.159,-1.383 2.033,-1.135 0.875,0.247 1.383,1.157 1.135,2.033 l -1.123,3.959 c -0.203,0.726 -0.864,1.198 -1.581,1.198 z"
           id="path6958" /><path
           fill="#e4eef2"
           stroke="#7d96a0"
           stroke-width="0.5"
           stroke-miterlimit="10"
           d="m 292.173,547.512 c -0.148,0 -0.299,-0.023 -0.45,-0.074 -0.875,-0.292 -1.383,-1.367 -1.135,-2.402 l 2.061,-8.598 c 0.249,-1.034 1.158,-1.634 2.033,-1.342 0.875,0.293 1.383,1.368 1.135,2.402 l -2.063,8.598 c -0.203,0.856 -0.862,1.416 -1.581,1.416 z m 4.536,-18.915 c -0.148,0 -0.3,-0.025 -0.45,-0.075 -0.875,-0.291 -1.383,-1.367 -1.135,-2.401 l 2.062,-8.599 c 0.248,-1.035 1.158,-1.634 2.033,-1.342 0.875,0.294 1.383,1.368 1.135,2.402 l -2.062,8.6 c -0.205,0.854 -0.865,1.415 -1.583,1.415 z m 4.536,-18.916 c -0.148,0 -0.3,-0.024 -0.45,-0.075 -0.875,-0.291 -1.383,-1.368 -1.135,-2.4 l 2.062,-8.599 c 0.248,-1.033 1.157,-1.634 2.033,-1.343 0.875,0.295 1.383,1.369 1.135,2.403 l -2.062,8.599 c -0.206,0.854 -0.865,1.415 -1.583,1.415 z"
           id="path6978" /><path
           fill="#e4eef2"
           stroke="#7d96a0"
           stroke-width="0.5"
           stroke-miterlimit="10"
           d="m 288.577,562.508 c -0.149,0 -0.299,-0.024 -0.449,-0.074 -0.875,-0.293 -1.383,-1.367 -1.135,-2.401 l 1.122,-4.678 c 0.248,-1.035 1.159,-1.635 2.033,-1.343 0.875,0.293 1.383,1.368 1.135,2.403 l -1.122,4.678 c -0.205,0.855 -0.866,1.415 -1.584,1.415 z"
           id="path6980" /><path
           fill="#e4eef2"
           stroke="#7d96a0"
           stroke-width="0.5"
           stroke-miterlimit="10"
           d="m 276.25,547.512 c -0.149,0 -0.299,-0.023 -0.45,-0.074 -0.875,-0.292 -1.383,-1.367 -1.135,-2.402 l 2.062,-8.598 c 0.248,-1.034 1.158,-1.634 2.033,-1.342 0.875,0.293 1.383,1.368 1.135,2.402 l -2.062,8.598 c -0.206,0.856 -0.866,1.416 -1.583,1.416 z m 4.535,-18.915 c -0.148,0 -0.299,-0.025 -0.45,-0.075 -0.875,-0.291 -1.383,-1.367 -1.135,-2.401 l 2.062,-8.599 c 0.248,-1.035 1.158,-1.634 2.033,-1.342 0.874,0.294 1.382,1.368 1.135,2.402 l -2.062,8.6 c -0.205,0.854 -0.865,1.415 -1.583,1.415 z m 4.535,-18.916 c -0.148,0 -0.299,-0.024 -0.449,-0.075 -0.875,-0.291 -1.383,-1.368 -1.135,-2.4 l 2.061,-8.599 c 0.248,-1.033 1.158,-1.634 2.033,-1.343 0.875,0.295 1.383,1.369 1.135,2.403 l -2.062,8.599 c -0.204,0.854 -0.864,1.415 -1.583,1.415 z"
           id="path6982" /><path
           fill="#e4eef2"
           stroke="#7d96a0"
           stroke-width="0.5"
           stroke-miterlimit="10"
           d="m 272.653,562.508 c -0.148,0 -0.299,-0.024 -0.45,-0.074 -0.875,-0.293 -1.383,-1.367 -1.135,-2.401 l 1.122,-4.678 c 0.248,-1.035 1.158,-1.635 2.033,-1.343 0.875,0.293 1.384,1.368 1.135,2.403 l -1.122,4.678 c -0.205,0.855 -0.865,1.415 -1.583,1.415 z"
           id="path6984" /><path
           fill="#e4eef2"
           stroke="#7d96a0"
           stroke-width="0.5"
           stroke-miterlimit="10"
           d="m 260.325,547.512 c -0.149,0 -0.299,-0.023 -0.45,-0.074 -0.875,-0.292 -1.382,-1.367 -1.134,-2.402 l 2.061,-8.598 c 0.249,-1.034 1.158,-1.634 2.033,-1.342 0.875,0.293 1.383,1.368 1.135,2.402 l -2.062,8.598 c -0.204,0.856 -0.865,1.416 -1.583,1.416 z m 4.536,-18.915 c -0.148,0 -0.3,-0.025 -0.45,-0.075 -0.875,-0.291 -1.383,-1.367 -1.135,-2.401 l 2.062,-8.599 c 0.248,-1.035 1.158,-1.634 2.033,-1.342 0.875,0.294 1.383,1.368 1.135,2.402 l -2.061,8.6 c -0.206,0.854 -0.866,1.415 -1.584,1.415 z m 4.535,-18.916 c -0.148,0 -0.299,-0.024 -0.45,-0.075 -0.875,-0.291 -1.382,-1.368 -1.135,-2.4 l 2.062,-8.599 c 0.248,-1.034 1.158,-1.634 2.032,-1.343 0.875,0.295 1.383,1.369 1.135,2.403 l -2.062,8.599 c -0.204,0.854 -0.863,1.415 -1.582,1.415 z"
           id="path6986" /><path
           fill="#e4eef2"
           stroke="#7d96a0"
           stroke-width="0.5"
           stroke-miterlimit="10"
           d="m 256.729,562.508 c -0.148,0 -0.299,-0.024 -0.449,-0.074 -0.875,-0.293 -1.384,-1.367 -1.136,-2.401 l 1.122,-4.678 c 0.248,-1.035 1.158,-1.635 2.033,-1.343 0.875,0.293 1.383,1.368 1.135,2.403 l -1.122,4.678 c -0.205,0.855 -0.865,1.415 -1.583,1.415 z"
           id="path6988" /><path
           fill="#e4eef2"
           stroke="#7d96a0"
           stroke-width="0.5"
           stroke-miterlimit="10"
           d="m 244.401,547.512 c -0.149,0 -0.299,-0.023 -0.45,-0.074 -0.875,-0.292 -1.383,-1.367 -1.135,-2.402 l 2.062,-8.598 c 0.248,-1.034 1.158,-1.634 2.033,-1.342 0.875,0.293 1.383,1.368 1.136,2.402 l -2.063,8.598 c -0.205,0.856 -0.865,1.416 -1.583,1.416 z m 4.536,-18.915 c -0.148,0 -0.3,-0.025 -0.45,-0.075 -0.875,-0.291 -1.383,-1.367 -1.135,-2.401 l 2.062,-8.599 c 0.248,-1.035 1.158,-1.634 2.033,-1.342 0.874,0.294 1.383,1.368 1.135,2.402 l -2.062,8.6 c -0.205,0.854 -0.865,1.415 -1.583,1.415 z m 4.535,-18.916 c -0.148,0 -0.299,-0.024 -0.449,-0.075 -0.875,-0.291 -1.383,-1.368 -1.135,-2.4 l 2.062,-8.599 c 0.249,-1.033 1.158,-1.634 2.033,-1.343 0.875,0.295 1.383,1.369 1.135,2.403 l -2.062,8.599 c -0.206,0.854 -0.866,1.415 -1.584,1.415 z"
           id="path6990" /><path
           fill="#e4eef2"
           stroke="#7d96a0"
           stroke-width="0.5"
           stroke-miterlimit="10"
           d="m 240.805,562.508 c -0.148,0 -0.3,-0.024 -0.449,-0.074 -0.875,-0.293 -1.383,-1.367 -1.135,-2.401 l 1.122,-4.678 c 0.248,-1.035 1.158,-1.635 2.033,-1.343 0.875,0.293 1.384,1.368 1.135,2.403 l -1.122,4.678 c -0.206,0.855 -0.866,1.415 -1.584,1.415 z"
           id="path6992" /><path
           fill="#e4eef2"
           stroke="#7d96a0"
           stroke-width="0.5"
           stroke-miterlimit="10"
           d="m 228.477,547.512 c -0.149,0 -0.3,-0.023 -0.45,-0.074 -0.875,-0.292 -1.383,-1.367 -1.135,-2.402 l 2.061,-8.598 c 0.249,-1.034 1.159,-1.634 2.033,-1.342 0.875,0.293 1.383,1.368 1.136,2.402 l -2.063,8.598 c -0.204,0.856 -0.864,1.416 -1.582,1.416 z m 4.536,-18.915 c -0.148,0 -0.3,-0.025 -0.449,-0.075 -0.875,-0.291 -1.383,-1.367 -1.136,-2.401 l 2.062,-8.599 c 0.248,-1.035 1.158,-1.634 2.032,-1.342 0.875,0.294 1.384,1.368 1.135,2.402 l -2.061,8.6 c -0.205,0.854 -0.866,1.415 -1.583,1.415 z m 4.536,-18.916 c -0.149,0 -0.3,-0.024 -0.451,-0.075 -0.874,-0.291 -1.382,-1.368 -1.135,-2.4 l 2.062,-8.599 c 0.248,-1.033 1.158,-1.634 2.032,-1.343 0.875,0.295 1.384,1.369 1.136,2.403 l -2.062,8.599 c -0.205,0.854 -0.865,1.415 -1.582,1.415 z"
           id="path6994" /><path
           fill="#e4eef2"
           stroke="#7d96a0"
           stroke-width="0.5"
           stroke-miterlimit="10"
           d="m 224.881,562.508 c -0.149,0 -0.3,-0.024 -0.45,-0.074 -0.875,-0.293 -1.383,-1.367 -1.135,-2.401 l 1.122,-4.678 c 0.248,-1.035 1.158,-1.635 2.034,-1.343 0.874,0.293 1.383,1.368 1.135,2.403 l -1.122,4.678 c -0.206,0.855 -0.866,1.415 -1.584,1.415 z"
           id="path6996" /><path
           fill="#e4eef2"
           stroke="#7d96a0"
           stroke-width="0.5"
           stroke-miterlimit="10"
           d="m 212.553,547.512 c -0.149,0 -0.3,-0.023 -0.449,-0.074 -0.875,-0.292 -1.384,-1.367 -1.136,-2.402 l 2.062,-8.598 c 0.248,-1.034 1.158,-1.634 2.032,-1.342 0.875,0.293 1.384,1.368 1.136,2.402 l -2.063,8.598 c -0.204,0.856 -0.864,1.416 -1.582,1.416 z m 4.535,-18.915 c -0.148,0 -0.299,-0.025 -0.449,-0.075 -0.875,-0.291 -1.384,-1.367 -1.136,-2.401 l 2.062,-8.599 c 0.248,-1.035 1.158,-1.634 2.033,-1.342 0.875,0.294 1.383,1.368 1.135,2.402 l -2.062,8.6 c -0.205,0.854 -0.864,1.415 -1.583,1.415 z m 4.537,-18.916 c -0.149,0 -0.3,-0.024 -0.45,-0.075 -0.875,-0.291 -1.383,-1.368 -1.135,-2.4 l 2.062,-8.599 c 0.249,-1.034 1.158,-1.634 2.033,-1.343 0.875,0.295 1.383,1.369 1.136,2.403 l -2.062,8.599 c -0.207,0.854 -0.867,1.415 -1.584,1.415 z"
           id="path6998" /><path
           fill="#e4eef2"
           stroke="#7d96a0"
           stroke-width="0.5"
           stroke-miterlimit="10"
           d="m 208.958,562.508 c -0.149,0 -0.3,-0.024 -0.45,-0.074 -0.875,-0.293 -1.383,-1.367 -1.135,-2.401 l 1.122,-4.678 c 0.248,-1.035 1.157,-1.635 2.033,-1.343 0.875,0.293 1.384,1.368 1.135,2.403 l -1.122,4.678 c -0.206,0.855 -0.866,1.415 -1.583,1.415 z"
           id="path7000" /><path
           fill="#e4eef2"
           stroke="#7d96a0"
           stroke-width="0.5"
           stroke-miterlimit="10"
           d="m 196.629,547.512 c -0.149,0 -0.3,-0.023 -0.45,-0.074 -0.875,-0.292 -1.383,-1.367 -1.135,-2.402 l 2.062,-8.598 c 0.248,-1.034 1.158,-1.634 2.033,-1.342 0.875,0.293 1.383,1.368 1.135,2.402 l -2.062,8.598 c -0.205,0.856 -0.865,1.416 -1.583,1.416 z m 4.536,-18.915 c -0.148,0 -0.3,-0.025 -0.45,-0.075 -0.874,-0.291 -1.383,-1.367 -1.135,-2.401 l 2.062,-8.599 c 0.248,-1.035 1.158,-1.634 2.032,-1.342 0.875,0.294 1.384,1.368 1.135,2.402 l -2.061,8.6 c -0.206,0.854 -0.866,1.415 -1.583,1.415 z m 4.536,-18.916 c -0.149,0 -0.3,-0.024 -0.45,-0.075 -0.875,-0.291 -1.384,-1.368 -1.136,-2.4 l 2.062,-8.599 c 0.248,-1.033 1.158,-1.634 2.032,-1.343 0.875,0.295 1.384,1.369 1.136,2.403 l -2.062,8.599 c -0.205,0.854 -0.865,1.415 -1.582,1.415 z"
           id="path7002" /><path
           fill="#e4eef2"
           stroke="#7d96a0"
           stroke-width="0.5"
           stroke-miterlimit="10"
           d="m 193.033,562.508 c -0.149,0 -0.3,-0.024 -0.45,-0.074 -0.875,-0.293 -1.383,-1.367 -1.135,-2.401 l 1.122,-4.678 c 0.248,-1.035 1.157,-1.635 2.034,-1.343 0.874,0.293 1.382,1.368 1.135,2.403 l -1.122,4.678 c -0.206,0.855 -0.866,1.415 -1.584,1.415 z"
           id="path7004" /><path
           fill="#e4eef2"
           stroke="#7d96a0"
           stroke-width="0.5"
           stroke-miterlimit="10"
           d="m 180.706,547.512 c -0.149,0 -0.3,-0.023 -0.45,-0.074 -0.875,-0.292 -1.383,-1.367 -1.135,-2.402 l 2.062,-8.598 c 0.248,-1.034 1.158,-1.634 2.032,-1.342 0.875,0.293 1.383,1.368 1.135,2.402 l -2.062,8.598 c -0.205,0.856 -0.865,1.416 -1.582,1.416 z m 4.535,-18.915 c -0.149,0 -0.299,-0.025 -0.45,-0.075 -0.875,-0.291 -1.383,-1.367 -1.135,-2.401 l 2.061,-8.599 c 0.248,-1.035 1.158,-1.634 2.033,-1.342 0.875,0.294 1.383,1.368 1.135,2.402 l -2.062,8.6 c -0.205,0.854 -0.865,1.415 -1.582,1.415 z m 4.536,-18.916 c -0.149,0 -0.3,-0.024 -0.45,-0.075 -0.875,-0.291 -1.383,-1.368 -1.135,-2.4 l 2.062,-8.599 c 0.248,-1.034 1.158,-1.634 2.033,-1.343 0.875,0.295 1.383,1.369 1.135,2.403 l -2.062,8.599 c -0.206,0.854 -0.866,1.415 -1.583,1.415 z"
           id="path7006" /><path
           fill="#e4eef2"
           stroke="#7d96a0"
           stroke-width="0.5"
           stroke-miterlimit="10"
           d="m 177.109,562.508 c -0.148,0 -0.3,-0.024 -0.45,-0.074 -0.875,-0.293 -1.383,-1.367 -1.135,-2.401 l 1.123,-4.678 c 0.247,-1.035 1.157,-1.635 2.033,-1.343 0.875,0.293 1.383,1.368 1.135,2.403 l -1.123,4.678 c -0.206,0.855 -0.865,1.415 -1.583,1.415 z"
           id="path7008" /><path
           fill="#e4eef2"
           stroke="#7d96a0"
           stroke-width="0.5"
           stroke-miterlimit="10"
           d="m 164.781,547.512 c -0.149,0 -0.3,-0.023 -0.45,-0.074 -0.875,-0.292 -1.383,-1.367 -1.135,-2.402 l 2.062,-8.598 c 0.248,-1.034 1.158,-1.634 2.032,-1.342 0.875,0.293 1.383,1.368 1.135,2.402 l -2.061,8.598 c -0.206,0.856 -0.865,1.416 -1.583,1.416 z m 4.536,-18.915 c -0.149,0 -0.3,-0.025 -0.45,-0.075 -0.874,-0.291 -1.382,-1.367 -1.135,-2.401 l 2.062,-8.599 c 0.247,-1.035 1.157,-1.634 2.032,-1.342 0.875,0.294 1.383,1.368 1.135,2.402 l -2.061,8.6 c -0.206,0.854 -0.866,1.415 -1.583,1.415 z m 4.536,-18.916 c -0.149,0 -0.3,-0.024 -0.45,-0.075 -0.875,-0.291 -1.383,-1.368 -1.135,-2.4 l 2.062,-8.599 c 0.248,-1.033 1.158,-1.634 2.033,-1.343 0.875,0.295 1.383,1.369 1.135,2.403 l -2.062,8.599 c -0.206,0.854 -0.866,1.415 -1.583,1.415 z"
           id="path7010" /><path
           fill="#e4eef2"
           stroke="#7d96a0"
           stroke-width="0.5"
           stroke-miterlimit="10"
           d="m 161.185,562.508 c -0.148,0 -0.3,-0.024 -0.45,-0.074 -0.874,-0.293 -1.382,-1.367 -1.135,-2.401 l 1.123,-4.678 c 0.248,-1.035 1.158,-1.635 2.033,-1.343 0.874,0.293 1.382,1.368 1.135,2.403 l -1.122,4.678 c -0.206,0.855 -0.867,1.415 -1.584,1.415 z"
           id="path7012" /><path
           fill="#e4eef2"
           stroke="#7d96a0"
           stroke-width="0.5"
           stroke-miterlimit="10"
           d="m 148.857,547.512 c -0.149,0 -0.3,-0.023 -0.45,-0.074 -0.875,-0.292 -1.383,-1.367 -1.135,-2.402 l 2.062,-8.598 c 0.248,-1.034 1.158,-1.634 2.032,-1.342 0.875,0.293 1.383,1.368 1.135,2.402 l -2.062,8.598 c -0.205,0.856 -0.864,1.416 -1.582,1.416 z m 4.536,-18.915 c -0.148,0 -0.3,-0.025 -0.45,-0.075 -0.875,-0.291 -1.383,-1.367 -1.135,-2.401 l 2.062,-8.599 c 0.248,-1.035 1.157,-1.634 2.033,-1.342 0.875,0.294 1.383,1.368 1.135,2.402 l -2.062,8.6 c -0.206,0.854 -0.866,1.415 -1.583,1.415 z m 4.535,-18.916 c -0.149,0 -0.3,-0.024 -0.45,-0.075 -0.875,-0.291 -1.383,-1.368 -1.135,-2.4 l 2.063,-8.599 c 0.247,-1.034 1.157,-1.634 2.032,-1.343 0.875,0.295 1.383,1.369 1.135,2.403 l -2.062,8.599 c -0.205,0.854 -0.865,1.415 -1.583,1.415 z"
           id="path7014" /><path
           fill="#e4eef2"
           stroke="#7d96a0"
           stroke-width="0.5"
           stroke-miterlimit="10"
           d="m 145.261,562.508 c -0.148,0 -0.3,-0.024 -0.45,-0.074 -0.874,-0.293 -1.383,-1.367 -1.135,-2.401 l 1.122,-4.678 c 0.248,-1.035 1.158,-1.635 2.032,-1.343 0.875,0.293 1.383,1.368 1.135,2.403 l -1.122,4.678 c -0.204,0.855 -0.864,1.415 -1.582,1.415 z"
           id="path7016" /><path
           fill="#e4eef2"
           stroke="#7d96a0"
           stroke-width="0.5"
           stroke-miterlimit="10"
           d="m 132.933,547.512 c -0.148,0 -0.3,-0.023 -0.45,-0.074 -0.875,-0.292 -1.382,-1.367 -1.135,-2.402 l 2.063,-8.598 c 0.248,-1.034 1.157,-1.634 2.032,-1.342 0.875,0.293 1.383,1.368 1.135,2.402 l -2.061,8.598 c -0.206,0.856 -0.867,1.416 -1.584,1.416 z m 4.536,-18.915 c -0.148,0 -0.299,-0.025 -0.45,-0.075 -0.875,-0.291 -1.383,-1.367 -1.135,-2.401 l 2.062,-8.599 c 0.248,-1.035 1.157,-1.634 2.032,-1.342 0.875,0.294 1.383,1.368 1.135,2.402 l -2.061,8.6 c -0.206,0.854 -0.866,1.415 -1.583,1.415 z m 4.535,-18.916 c -0.149,0 -0.3,-0.024 -0.45,-0.075 -0.875,-0.291 -1.383,-1.368 -1.135,-2.4 l 2.062,-8.599 c 0.247,-1.034 1.158,-1.634 2.032,-1.343 0.875,0.295 1.383,1.369 1.135,2.403 l -2.062,8.599 c -0.204,0.854 -0.864,1.415 -1.582,1.415 z"
           id="path7018" /><path
           fill="#e4eef2"
           stroke="#7d96a0"
           stroke-width="0.5"
           stroke-miterlimit="10"
           d="m 129.337,562.508 c -0.148,0 -0.3,-0.024 -0.45,-0.074 -0.874,-0.293 -1.383,-1.367 -1.135,-2.401 l 1.122,-4.678 c 0.248,-1.035 1.158,-1.635 2.033,-1.343 0.875,0.293 1.383,1.368 1.135,2.403 l -1.122,4.678 c -0.206,0.855 -0.866,1.415 -1.583,1.415 z"
           id="path7020" /><path
           fill="#e4eef2"
           stroke="#7d96a0"
           stroke-width="0.5"
           stroke-miterlimit="10"
           d="m 117.009,547.512 c -0.148,0 -0.299,-0.023 -0.45,-0.074 -0.875,-0.292 -1.383,-1.367 -1.135,-2.402 l 2.062,-8.598 c 0.248,-1.034 1.157,-1.634 2.032,-1.342 0.875,0.293 1.383,1.368 1.135,2.402 l -2.061,8.598 c -0.205,0.856 -0.865,1.416 -1.583,1.416 z m 4.535,-18.915 c -0.148,0 -0.299,-0.025 -0.449,-0.075 -0.875,-0.291 -1.383,-1.367 -1.135,-2.401 l 2.062,-8.599 c 0.248,-1.035 1.158,-1.634 2.033,-1.342 0.875,0.294 1.383,1.368 1.135,2.402 l -2.062,8.6 c -0.206,0.854 -0.865,1.415 -1.584,1.415 z m 4.536,-18.916 c -0.148,0 -0.3,-0.024 -0.45,-0.075 -0.875,-0.291 -1.383,-1.368 -1.135,-2.4 l 2.062,-8.599 c 0.247,-1.034 1.158,-1.634 2.032,-1.343 0.875,0.295 1.383,1.369 1.135,2.403 l -2.062,8.599 c -0.204,0.854 -0.864,1.415 -1.582,1.415 z"
           id="path7022" /><path
           fill="#e4eef2"
           stroke="#7d96a0"
           stroke-width="0.5"
           stroke-miterlimit="10"
           d="m 113.413,562.508 c -0.148,0 -0.3,-0.024 -0.45,-0.074 -0.875,-0.293 -1.384,-1.367 -1.135,-2.401 l 1.122,-4.678 c 0.248,-1.035 1.158,-1.635 2.032,-1.343 0.875,0.293 1.383,1.368 1.135,2.403 l -1.122,4.678 c -0.204,0.855 -0.865,1.415 -1.582,1.415 z"
           id="path7024" /><path
           fill="#ffffff"
           d="m 402.111,100.252 c 13.901,-8.316 -10.812,-14.54 -10.812,-14.54 h -60.817 c 0,0 2.124,-12.207 -17.928,-23.46 -20.052,-11.254 -36,14.235 -36,14.235 0,0 -2.641,-17.006 -17.196,-24.018 -14.556,-7.012 -26.535,9.783 -26.535,9.783 -11.744,-23.525 -33.953,-28.169 -54.672,-16.794 -3.126,1.716 -7.028,6.416 -11.049,12.344 -9.743,1.089 -17.344,10.05 -17.344,20.943 0,2.507 0.404,4.913 1.143,7.144 -3.672,7.118 -6.109,12.284 -6.109,12.284 0,0 -36.145,-19.428 -45.495,22.548 -4.023,18.063 13.25,37.455 17.118,41.521 -11.536,6.694 -19.388,19.918 -19.388,35.14 0,16.306 9.011,30.32 21.907,36.47 2.838,8.538 5.667,15.636 7.401,19.779 -7.589,7.293 -12.376,17.959 -12.376,29.844 0,19.97 13.51,36.501 31.125,39.361 4.551,7.305 8.142,11.872 8.142,11.872 -3.294,4.731 -4.971,12.734 -5.627,22.118 -4.805,6.95 -7.652,15.594 -7.652,24.962 0,7.57 1.86,14.667 5.109,20.779 -3.249,6.113 -5.109,13.211 -5.109,20.78 0,4.68 0.71,9.178 2.02,13.374 -0.668,-0.05 -1.342,-0.076 -2.021,-0.076 -10.214,0 -19.2,5.717 -24.407,14.37 -0.413,-0.022 -0.829,-0.033 -1.247,-0.033 -12.812,0 -23.198,9.962 -23.198,22.25 0,12.286 10.386,22.247 23.198,22.247 2.967,0 5.803,-0.535 8.411,-1.509 4.829,3.861 10.79,6.145 17.243,6.145 6.46,0 12.43,-2.289 17.263,-6.161 0.933,-0.127 1.851,-0.273 2.754,-0.434 6.999,8.704 17.281,14.203 28.744,14.203 11.866,0 22.469,-5.893 29.473,-15.136 0.393,0.314 0.794,0.622 1.201,0.918 7,8.713 17.286,14.218 28.755,14.218 11.768,0 22.29,-5.795 29.293,-14.903 0.458,-0.256 0.901,-0.538 1.328,-0.846 3.632,7.449 10.83,12.523 19.118,12.523 10.419,0 19.117,-8.019 21.17,-18.696 2.596,3.73 6.709,6.141 11.34,6.141 7.488,0 13.625,-6.302 14.177,-14.299 2.052,-0.839 3.906,-2.119 5.463,-3.735 2.023,3.208 5.416,5.314 9.261,5.314 6.202,0 11.229,-5.472 11.229,-12.221 0,-6.75 -5.027,-12.222 -11.229,-12.222 -1.782,0 -3.467,0.455 -4.964,1.259 -2.023,-7.189 -8.168,-12.418 -15.437,-12.418 -1.024,0 -2.026,0.104 -2.998,0.304 -4.085,-6.991 -11.265,-11.628 -19.44,-11.628 -7.939,0 -14.939,4.374 -19.079,11.027 -0.442,-0.295 -0.897,-0.567 -1.365,-0.815 0.265,-1.182 0.406,-2.415 0.406,-3.686 0,-8.547 -6.366,-15.475 -14.218,-15.475 -1.813,0 -3.548,0.37 -5.143,1.045 -5.131,-6.306 -12.625,-10.28 -20.972,-10.28 -1.887,0 -3.73,0.202 -5.512,0.59 -0.121,-1.155 -0.292,-2.295 -0.511,-3.415 0.357,-4.141 -0.035,-9.073 -0.708,-13.774 21.155,-0.728 38.11,-20.419 38.11,-44.606 0,-14.143 -5.799,-26.749 -14.844,-34.926 9.342,-18.913 -13.254,-34.506 -13.254,-34.506 19.424,-16.173 9.39,-59.276 9.39,-59.276 27.271,-21.105 43.806,-74.256 43.806,-74.256 32.048,16.894 62.665,-22.301 62.665,-22.301 17.901,1.545 33.07,-13.815 67.05,-19.51 33.982,-5.694 -40.157,-7.88 -40.157,-7.88 z"
           id="path7292" /><path
           d="m 345.505,127.641 c 13.901,-8.316 -10.812,-14.54 -10.812,-14.54 h -60.817 c 0,0 2.125,-12.206 -17.927,-23.459 -20.051,-11.254 -36,14.234 -36,14.234 0,0 -2.641,-17.005 -17.196,-24.017 -14.556,-7.013 -26.536,9.783 -26.536,9.783 -5.848,-11.716 -14.293,-18.748 -23.855,-21.452 -1.655,3.103 -2.604,6.708 -2.604,10.555 0,2.507 0.404,4.913 1.143,7.144 -3.672,7.118 -6.109,12.284 -6.109,12.284 0,0 -36.145,-19.428 -45.495,22.548 -4.023,18.063 13.25,37.455 17.118,41.521 -11.536,6.694 -19.388,19.918 -19.388,35.14 0,16.306 9.011,30.32 21.907,36.47 2.838,8.538 5.667,15.636 7.401,19.779 -7.589,7.293 -12.376,17.959 -12.376,29.844 0,19.97 13.51,36.501 31.125,39.361 4.551,7.305 8.142,11.872 8.142,11.872 -3.294,4.731 -4.971,12.734 -5.627,22.118 -4.805,6.95 -7.652,15.594 -7.652,24.962 0,7.57 1.86,14.667 5.109,20.779 -3.249,6.113 -5.109,13.211 -5.109,20.78 0,4.68 0.71,9.178 2.02,13.374 -0.668,-0.05 -1.342,-0.076 -2.021,-0.076 -10.214,0 -19.2,5.717 -24.407,14.37 -0.413,-0.022 -0.829,-0.033 -1.247,-0.033 -12.812,0 -23.198,9.962 -23.198,22.25 0,12.286 10.386,22.247 23.198,22.247 2.967,0 5.803,-0.535 8.411,-1.509 4.829,3.861 10.79,6.145 17.243,6.145 6.46,0 12.43,-2.289 17.263,-6.161 0.933,-0.127 1.851,-0.273 2.754,-0.434 6.999,8.704 17.281,14.203 28.744,14.203 11.866,0 22.469,-5.893 29.473,-15.136 0.393,0.314 0.794,0.622 1.201,0.918 7,8.713 17.286,14.218 28.755,14.218 11.768,0 22.29,-5.795 29.293,-14.903 0.458,-0.256 0.901,-0.538 1.328,-0.846 2.592,5.315 7,9.42 12.323,11.336 0.837,-0.592 1.62,-1.267 2.339,-2.014 0.774,1.227 1.747,2.29 2.868,3.138 0.525,0.041 1.054,0.063 1.588,0.063 6.213,0 11.814,-2.853 15.759,-7.42 0.179,-0.864 0.275,-1.765 0.275,-2.688 0,-6.749 -5.026,-12.222 -11.228,-12.222 -1.783,0 -3.468,0.453 -4.965,1.26 -2.023,-7.19 -8.168,-12.419 -15.437,-12.419 -1.024,0 -2.026,0.104 -2.998,0.304 -4.086,-6.99 -11.266,-11.628 -19.441,-11.628 -7.938,0 -14.938,4.374 -19.079,11.027 -0.441,-0.295 -0.896,-0.567 -1.364,-0.817 0.265,-1.181 0.406,-2.413 0.406,-3.683 0,-8.548 -6.366,-15.476 -14.218,-15.476 -1.814,0 -3.548,0.371 -5.142,1.045 -5.131,-6.307 -12.625,-10.282 -20.972,-10.282 -1.886,0 -3.73,0.204 -5.512,0.591 -0.121,-1.155 -0.292,-2.295 -0.51,-3.413 0.357,-4.142 -0.037,-9.075 -0.709,-13.774 21.156,-0.729 38.11,-20.42 38.11,-44.606 0,-14.144 -5.799,-26.75 -14.844,-34.928 9.341,-18.912 -13.254,-34.506 -13.254,-34.506 19.425,-16.172 9.39,-59.275 9.39,-59.275 27.271,-21.105 43.806,-74.257 43.806,-74.257 19.353,10.202 38.183,-0.049 50.065,-9.772 4.26,-10.291 6.54,-17.616 6.54,-17.616 5.604,2.954 11.165,4.191 16.525,4.225 8.876,-2.062 15.472,0.833 30.522,-11.637 7.046,-5.256 12.194,-10.857 14.41,-13.436 -13.435,-1.009 -28.505,-1.453 -28.505,-1.453 z"
           id="path7310"
           fill="#e6f0f4" /><path
           fill="#bfc1c1"
           d="m 361.056,477.537 c -4.432,0 -8.248,-2.98 -9.985,-7.269 -2.525,2.396 -5.775,3.837 -9.324,3.837 -4.487,0 -8.499,-2.306 -11.167,-5.931 -1.866,0.474 -3.807,0.724 -5.799,0.724 -5.075,0 -9.817,-1.618 -13.848,-4.424 -1.623,3.124 -4.006,5.677 -6.86,7.334 -4.029,10.276 -14.488,17.602 -26.756,17.602 -9.108,0 -17.22,-4.037 -22.442,-10.321 -9.128,-0.667 -17.091,-6.183 -21.912,-14.301 -2.62,8.594 -9.813,14.768 -18.275,14.768 -1.198,0 -2.37,-0.124 -3.507,-0.36 -6.22,8.329 -15.954,13.691 -26.895,13.691 -6.434,0 -12.45,-1.854 -17.58,-5.075 -1.928,2.08 -4.472,3.756 -7.407,4.852 7.004,9.196 17.576,15.06 29.409,15.06 11.866,0 22.469,-5.893 29.473,-15.136 0.393,0.314 0.794,0.622 1.201,0.918 7,8.713 17.287,14.218 28.755,14.218 11.768,0 22.29,-5.795 29.293,-14.903 0.458,-0.256 0.901,-0.539 1.328,-0.846 3.632,7.449 10.83,12.523 19.118,12.523 10.419,0 19.117,-8.019 21.17,-18.696 2.596,3.73 6.709,6.141 11.34,6.141 7.488,0 13.625,-6.302 14.177,-14.299 2.052,-0.839 3.906,-2.119 5.463,-3.735 2.023,3.208 5.416,5.314 9.261,5.314 3.491,0 6.609,-1.732 8.668,-4.453 -1.887,1.73 -4.286,2.767 -6.899,2.767 z"
           id="path7312" /><path
           fill="#bfc1c1"
           d="m 151.273,494.086 c -6.164,0 -11.653,-2.356 -15.198,-6.026 -0.404,0.036 -0.812,0.057 -1.225,0.057 -5.032,0 -9.422,-2.736 -11.771,-6.802 -1.458,0.641 -3.069,0.999 -4.764,0.999 -6.547,0 -11.855,-5.308 -11.855,-11.855 0,-6.547 5.308,-11.854 11.855,-11.854 3.746,0 7.084,1.739 9.257,4.452 2.104,-1.338 4.6,-2.115 7.278,-2.115 0.013,0 0.025,10e-4 0.038,10e-4 -0.002,-0.079 -0.005,-0.156 -0.005,-0.237 0,-5.385 3.847,-9.753 8.593,-9.753 2.829,0 5.338,1.552 6.904,3.945 0.417,-5.686 2.133,-10.995 4.842,-15.608 -5.762,-7.188 -9.274,-16.74 -9.274,-27.223 0,-5.229 0.875,-10.229 2.467,-14.817 -5.297,7.134 -8.47,16.213 -8.47,26.099 0,4.68 0.71,9.178 2.02,13.374 -0.668,-0.05 -1.342,-0.076 -2.021,-0.076 -10.353,0 -19.443,5.872 -24.617,14.723 -1.23,-0.252 -2.499,-0.386 -3.796,-0.386 -11.288,0 -20.439,9.962 -20.439,22.25 0,12.286 9.151,22.247 20.439,22.247 3.538,0 8.185,-0.281 11.272,-1.846 5.494,4.425 9.836,6.092 17.141,6.481 6.969,0.372 13.383,-2.671 18.402,-7.122 -2.19,0.703 -4.575,1.092 -7.073,1.092 z"
           id="path7314" /><path
           fill="#6a8993"
           d="m 247.635,508.223 c -11.146,0 -21.75,-5.23 -29.103,-14.353 -0.257,-0.188 -0.513,-0.381 -0.765,-0.577 -7.377,9.495 -18.123,14.93 -29.561,14.93 -11.067,0 -21.602,-5.157 -28.947,-14.16 -0.771,0.134 -1.553,0.258 -2.346,0.367 -5.098,4.047 -11.134,6.185 -17.467,6.185 -6.276,0 -12.263,-2.101 -17.333,-6.079 -2.659,0.958 -5.456,1.443 -8.32,1.443 -13.067,0 -23.698,-10.204 -23.698,-22.747 0,-12.544 10.631,-22.75 23.698,-22.75 0.326,0 0.651,0.007 0.974,0.02 5.524,-8.996 14.729,-14.356 24.68,-14.356 0.439,0 0.885,0.011 1.333,0.033 -1.217,-4.132 -1.833,-8.445 -1.833,-12.831 0,-7.297 1.743,-14.476 5.043,-20.78 -3.3,-6.304 -5.043,-13.482 -5.043,-20.779 0,-9.144 2.649,-17.831 7.663,-25.133 0.721,-10.138 2.57,-17.511 5.499,-21.929 -0.849,-1.108 -4.009,-5.321 -7.83,-11.435 -17.872,-3.025 -31.32,-20.099 -31.32,-39.817 0,-11.423 4.473,-22.324 12.284,-29.965 -1.822,-4.373 -4.506,-11.168 -7.216,-19.298 -13.371,-6.475 -21.999,-20.905 -21.999,-36.829 0,-14.689 7.3,-28.135 19.096,-35.252 -4.387,-4.713 -20.768,-23.768 -16.814,-41.517 5.05,-22.669 17.969,-27.428 27.918,-27.428 8.423,0 15.922,3.378 17.833,4.313 0.673,-1.41 2.838,-5.902 5.801,-11.651 -0.732,-2.28 -1.103,-4.667 -1.103,-7.1 0,-11.005 7.532,-20.167 17.559,-21.413 4.49,-6.594 8.222,-10.736 11.094,-12.313 7.249,-3.979 14.547,-5.997 21.692,-5.997 14.073,0 25.874,7.907 33.305,22.291 1.949,-2.48 9.398,-11.055 19.189,-11.055 2.537,0 5.053,0.593 7.479,1.761 12.376,5.962 16.3,19.182 17.23,23.207 2.602,-3.688 12.467,-16.342 25.343,-16.342 3.6,0 7.183,0.987 10.65,2.933 17.892,10.041 18.408,20.774 18.239,23.396 l 60.383,0.015 c 0.594,0.15 14.564,3.73 15.393,9.358 0.263,1.783 -0.782,3.534 -3.107,5.218 3.7,0.126 13.33,0.486 22.88,1.117 24.91,1.645 25.033,3.453 25.093,4.322 0.059,0.87 -0.607,1.92 -9.328,3.382 -16.732,2.804 -29.123,8.06 -39.078,12.283 -9.67,4.102 -17.309,7.342 -25.52,7.342 -0.735,0.02 -1.547,-0.03 -2.311,-0.088 -2.051,2.523 -22.192,26.508 -46.14,26.508 -5.683,0 -11.216,-1.35 -16.454,-4.012 -1.881,5.774 -18.12,53.831 -43.543,73.74 0.938,4.211 9.012,43.135 -9.144,59.047 3.337,2.517 21.278,17.125 13.062,34.417 9.368,8.62 14.731,21.369 14.731,35.044 0,24.339 -16.663,44.022 -38.038,45.083 0.724,5.251 0.939,9.713 0.64,13.271 0.181,0.935 0.33,1.888 0.443,2.842 1.664,-0.325 3.368,-0.489 5.076,-0.489 8.045,0 15.723,3.704 21.124,10.179 1.597,-0.626 3.274,-0.943 4.991,-0.943 8.116,0 14.718,7.166 14.718,15.975 0,1.152 -0.114,2.302 -0.34,3.425 0.217,0.122 0.433,0.25 0.646,0.384 4.414,-6.795 11.566,-10.835 19.231,-10.835 7.986,0 15.322,4.317 19.69,11.57 0.904,-0.163 1.826,-0.246 2.747,-0.246 7.182,0 13.44,4.879 15.746,12.203 1.472,-0.693 3.035,-1.044 4.655,-1.044 6.468,0 11.729,5.707 11.729,12.722 0,7.015 -5.262,12.721 -11.729,12.721 -3.676,0 -7.125,-1.868 -9.339,-5.029 -1.456,1.408 -3.104,2.514 -4.911,3.293 -0.708,8.131 -7.089,14.456 -14.651,14.456 -4.301,0 -8.284,-1.977 -11.082,-5.461 -2.497,10.505 -11.349,18.017 -21.428,18.017 -8.037,0 -15.385,-4.692 -19.307,-12.286 -0.265,0.175 -0.534,0.34 -0.805,0.494 -7.377,9.54 -18.17,15.012 -29.627,15.012 z m -30.045,-16.347 0.401,0.32 c 0.387,0.31 0.782,0.613 1.183,0.904 l 0.096,0.091 c 7.164,8.917 17.502,14.031 28.365,14.031 11.177,0 21.709,-5.361 28.897,-14.708 l 0.153,-0.132 c 0.436,-0.243 0.867,-0.518 1.28,-0.815 l 0.481,-0.347 0.26,0.534 c 3.683,7.551 10.836,12.242 18.669,12.242 9.944,0 18.642,-7.692 20.679,-18.291 l 0.224,-1.164 0.678,0.974 c 2.621,3.766 6.604,5.926 10.929,5.926 7.135,0 13.143,-6.076 13.678,-13.833 l 0.021,-0.311 0.289,-0.118 c 1.975,-0.808 3.756,-2.025 5.292,-3.619 l 0.442,-0.46 0.34,0.54 c 2.006,3.182 5.311,5.081 8.838,5.081 5.916,0 10.729,-5.258 10.729,-11.721 0,-6.463 -4.813,-11.722 -10.729,-11.722 -1.655,0 -3.246,0.403 -4.727,1.199 l -0.549,0.295 -0.169,-0.6 c -2.029,-7.21 -8.039,-12.054 -14.956,-12.054 -0.973,0 -1.948,0.099 -2.897,0.294 l -0.352,0.071 -0.181,-0.31 c -4.164,-7.126 -11.27,-11.38 -19.008,-11.38 -7.477,0 -14.45,4.034 -18.655,10.791 l -0.272,0.438 -0.429,-0.286 c -0.433,-0.288 -0.877,-0.554 -1.322,-0.79 l -0.337,-0.179 0.083,-0.372 c 0.261,-1.168 0.394,-2.371 0.394,-3.576 0,-8.257 -6.154,-14.975 -13.718,-14.975 -1.707,0 -3.371,0.338 -4.948,1.005 l -0.346,0.146 -0.237,-0.291 c -5.221,-6.416 -12.724,-10.096 -20.584,-10.096 -1.823,0 -3.642,0.194 -5.406,0.578 l -0.546,0.119 -0.058,-0.556 c -0.118,-1.131 -0.288,-2.265 -0.504,-3.371 l -0.014,-0.068 0.006,-0.07 c 0.312,-3.616 0.075,-8.212 -0.705,-13.66 l -0.079,-0.552 0.557,-0.02 c 21.099,-0.726 37.627,-20.1 37.627,-44.106 0,-13.527 -5.351,-26.122 -14.68,-34.555 l -0.28,-0.254 0.167,-0.339 c 9.041,-18.303 -12.867,-33.719 -13.09,-33.873 l -0.542,-0.375 0.506,-0.421 c 18.963,-15.789 9.323,-58.35 9.223,-58.778 l -0.068,-0.307 0.253,-0.196 c 26.832,-20.766 43.469,-73.479 43.634,-74.009 l 0.179,-0.574 0.532,0.28 c 5.249,2.767 10.805,4.17 16.516,4.17 24.658,0 45.316,-26.073 45.522,-26.336 l 0.167,-0.214 0.27,0.023 c 0.82,0.071 1.658,0.106 2.49,0.106 0,0 10e-4,0 0.002,0 8.008,0 15.563,-3.205 25.129,-7.263 10.004,-4.244 22.455,-9.525 39.304,-12.349 7.723,-1.294 8.434,-2.192 8.499,-2.359 -0.858,-1.942 -25.379,-3.843 -48.588,-4.527 l -1.71,-0.051 1.468,-0.878 c 2.878,-1.722 4.214,-3.435 3.97,-5.091 -0.604,-4.107 -10.676,-7.525 -14.588,-8.519 h -61.346 l 0.099,-0.584 c 0.02,-0.119 1.779,-12.019 -17.68,-22.939 -3.316,-1.861 -6.735,-2.805 -10.161,-2.805 -14.44,0 -25.065,16.7 -25.17,16.869 l -0.711,1.136 -0.207,-1.324 c -0.026,-0.168 -2.778,-16.832 -16.918,-23.644 -2.29,-1.103 -4.66,-1.663 -7.045,-1.663 -10.693,0 -18.785,11.172 -18.866,11.285 l -0.483,0.677 -0.372,-0.744 C 224.649,47.998 213.01,40.024 199.105,40.024 c -6.975,0 -14.111,1.976 -21.211,5.874 -2.759,1.515 -6.418,5.614 -10.876,12.186 l -0.129,0.19 -0.229,0.026 c -9.634,1.077 -16.899,9.867 -16.899,20.446 0,2.397 0.376,4.748 1.117,6.986 l 0.066,0.2 -0.096,0.187 c -3.625,7.027 -6.077,12.217 -6.101,12.269 l -0.225,0.476 -0.464,-0.249 c -0.083,-0.044 -8.362,-4.43 -17.828,-4.43 -13.743,0 -23.059,9.214 -26.942,26.646 -3.987,17.899 13.455,37.35 16.992,41.067 l 0.437,0.459 -0.548,0.318 c -11.805,6.851 -19.139,20.149 -19.139,34.707 0,15.617 8.487,29.754 21.622,36.019 l 0.192,0.091 0.067,0.202 c 2.788,8.388 5.556,15.366 7.388,19.744 l 0.132,0.316 -0.247,0.237 c -7.768,7.465 -12.223,18.211 -12.223,29.483 0,19.315 13.2,36.025 30.705,38.868 l 0.224,0.036 0.12,0.192 c 4.482,7.194 8.075,11.782 8.111,11.828 l 0.229,0.291 -0.211,0.304 c -2.957,4.248 -4.821,11.604 -5.538,21.867 l -0.01,0.137 -0.078,0.112 c -4.948,7.157 -7.563,15.69 -7.563,24.678 0,7.225 1.747,14.329 5.05,20.545 l 0.125,0.234 L 145,402.8 c -3.304,6.217 -5.05,13.321 -5.05,20.546 0,4.53 0.672,8.979 1.997,13.225 l 0.219,0.703 -0.733,-0.055 c -0.666,-0.05 -1.333,-0.075 -1.983,-0.075 -9.691,0 -18.655,5.281 -23.979,14.128 l -0.155,0.258 -0.301,-0.017 c -0.404,-0.021 -0.811,-0.032 -1.22,-0.032 -12.516,0 -22.698,9.757 -22.698,21.75 0,11.991 10.183,21.747 22.698,21.747 2.84,0 5.611,-0.497 8.236,-1.478 l 0.266,-0.099 0.221,0.177 c 4.938,3.948 10.792,6.035 16.931,6.035 6.148,0 12.009,-2.093 16.951,-6.052 l 0.108,-0.086 0.137,-0.019 c 0.926,-0.126 1.837,-0.271 2.734,-0.431 l 0.292,-0.052 0.186,0.23 c 7.162,8.908 17.497,14.017 28.354,14.017 11.284,0 21.881,-5.444 29.074,-14.938 z"
           id="path7462" /></g></g></g></svg>
