<?xml version="1.0" encoding="UTF-8" standalone="no"?>
<!-- Created with Inkscape (http://www.inkscape.org/) -->

<svg
   width="238.02234mm"
   height="21.683407mm"
   viewBox="0 0 238.02234 21.683407"
   version="1.1"
   id="svg1"
   xml:space="preserve"
   xmlns="http://www.w3.org/2000/svg"
   xmlns:svg="http://www.w3.org/2000/svg"><defs
     id="defs1" /><g
     id="layer15"
     style="display:inline"
     transform="translate(2.38125,-79.904165)"><g
       id="g16"><path
         fill="#ffd94f"
         d="m 34.670471,87.98137 c 0,0 34.493199,-1.15623 49.607522,-5.72664 15.114323,-4.57041 59.035157,-1.79679 81.789327,5.72664 22.75416,7.52343 -131.396849,0 -131.396849,0 z"
         id="path6918"
         style="display:inline;stroke-width:0.264583" /><path
         fill="#bab3a8"
         d="m 142.11432,91.45746 c -38.48973,0 -106.765193,-3.31046 -107.450464,-3.34406 l 0.0021,-0.26432 c 0.344752,-0.0114 34.648774,-1.20783 49.573655,-5.72082 4.812242,-1.45521 12.64629,-2.22409 22.655479,-2.22409 20.70364,0 45.05325,3.26972 59.21348,7.95179 1.70022,0.56224 2.4556,1.05145 2.37675,1.53934 -0.14208,0.8853 -3.03106,2.06216 -26.37102,2.06216 z M 37.637243,87.98984 c 13.576565,0.635 70.581047,3.20304 104.477347,3.20304 22.46048,0 25.99954,-1.15252 26.11014,-1.83965 0.0241,-0.14843 -0.14261,-0.56647 -2.19895,-1.24618 -14.13642,-4.67387 -38.45163,-7.9383 -59.13041,-7.9383 -9.983523,0 -17.791377,0.76518 -22.579013,2.21271 -12.367154,3.73962 -37.981466,5.20594 -46.679114,5.60838 z"
         id="path6920"
         style="display:inline;stroke-width:0.264583" /><path
         fill="#95b266"
         d="m -2.2942021,82.05285 c 0,0 12.9362731,-2.80935 26.9176501,2.80935 0,0 13.393473,-1.56845 20.645437,-0.39212 7.252229,1.17581 7.056173,2.41724 56.840175,0.39212 0,0 10.32325,-0.39212 20.90711,-2.09101 10.58413,-1.69862 15.28815,-1.89468 25.80693,0.52282 0,0 11.82529,-4.98263 22.34433,0.35084 0,0 7.64381,-3.74835 51.15612,-1.19989 0,0 11.32602,-0.70696 13.31754,-0.77232 v 19.72072 l -237.9352921,0.1524 z"
         id="path6922"
         style="display:inline;stroke-width:0.264583" /><path
         fill="#5e7a46"
         d="m -2.2942021,83.7954 c 0,0 4.2465625,0.39184 8.4280374,-0.7837 4.1812107,-1.17607 5.0958747,-1.50283 9.9959587,2.22118 4.900083,3.72401 6.533356,6.01107 6.533356,6.01107 0,0 15.876058,-10.38834 38.350824,5.35728 0,0 21.821511,-3.42133 38.155033,4.98634 H -2.2942021 Z"
         id="path6924"
         style="display:inline;stroke-width:0.264583" /><path
         fill="#8ba57a"
         d="m 227.66311,82.38993 c -2.81411,-0.054 -5.28955,-0.11165 -5.33479,-0.11271 -10.05973,-0.58897 -19.02778,-0.88768 -26.65598,-0.88768 -10.46321,0 -16.57376,0.56806 -19.85724,1.04458 -3.23559,0.46963 -4.42093,0.9345 -4.64609,1.03319 -3.22924,-1.62904 -6.90377,-2.45507 -10.92332,-2.45507 -6.1124,0 -11.02783,1.94601 -11.43026,2.11032 -5.57821,-1.28085 -9.44087,-1.8034 -13.32786,-1.8034 -3.72586,0 -7.53983,0.49186 -12.48516,1.28588 -10.45712,1.67825 -20.79334,2.08597 -20.89679,2.08967 -18.057021,0.73422 -30.324692,1.07633 -38.607473,1.07633 -10.085916,0 -12.893675,-0.51197 -16.14461,-1.10516 -0.650081,-0.11854 -1.322123,-0.2413 -2.070629,-0.36248 -1.79414,-0.29078 -4.123002,-0.43842 -6.9215,-0.43842 -6.399212,0 -13.282877,0.77682 -13.726054,0.82762 -3.189552,-1.28006 -6.588125,-2.22409 -10.102321,-2.8067 -2.816754,-0.46646 -5.714206,-0.70326 -8.6113935,-0.70326 -4.9331562,0 -8.2018187,0.6977 -8.2343624,0.70432 l -0.068527,0.0148 v 0.0717 c 0.088371,0.0156 0.1764771,0.0331 0.2645833,0.0521 0.7059084,-0.13653 3.7332708,-0.66834 8.0380416,-0.66834 4.53734,0 11.459898,0.60828 18.669264,3.50547 l 0.02064,0.008 0.02196,-0.003 c 0.07091,-0.008 7.155921,-0.82867 13.727906,-0.82867 2.789238,0 5.108575,0.14658 6.893455,0.43603 0.747183,0.12118 1.418166,0.24342 2.067189,0.36169 3.259667,0.59451 6.074304,1.10807 16.176096,1.10807 8.285162,0 20.555479,-0.34237 38.614345,-1.07685 0.10346,-0.004 10.44919,-0.4117 20.9177,-2.0918 4.93712,-0.79243 8.74368,-1.28323 12.45764,-1.28323 3.87932,0 7.73668,0.52282 13.31569,1.80446 l 0.0275,0.007 0.0262,-0.0114 c 0.05,-0.0206 5.07682,-2.10714 11.38899,-2.10714 4.00737,0 7.66841,0.82629 10.88178,2.45533 l 0.0389,0.0196 0.0386,-0.019 c 0.0109,-0.006 1.11019,-0.52626 4.66593,-1.04034 3.27686,-0.47361 9.37207,-1.03876 19.80115,-1.03876 7.62476,0 16.58964,0.29898 26.6491,0.88768 0.0468,10e-4 2.52545,0.059 5.34167,0.11298 z"
         id="path6926"
         style="display:inline;stroke-width:0.264583" /><path
         fill="#45682f"
         d="m 6.3235416,83.17415 c 1.5441083,-0.43497 2.6601208,-0.74877 3.6938474,-0.74877 1.596761,0 3.069432,0.72946 6.059753,3.0025 4.829704,3.67056 6.49896,5.96926 6.515364,5.99228 l 0.04868,0.0675 0.06985,-0.0455 c 0.01297,-0.008 1.307307,-0.84667 3.627967,-1.67402 2.141802,-0.76359 5.620015,-1.67375 10.03009,-1.67375 8.076935,0 16.352043,2.9284 24.595137,8.70346 l 0.02884,0.0201 0.0344,-0.005 c 0.04392,-0.007 4.460346,-0.68792 10.699221,-0.68792 7.340071,0 17.901708,0.94854 26.890133,5.40835 0.138112,0.003 0.27596,0.007 0.413544,0.0124 -4.0386,-2.05237 -8.757444,-3.56526 -14.032442,-4.49448 -4.145227,-0.73051 -8.610335,-1.1004 -13.271235,-1.1004 -5.95974,0 -10.262394,0.62018 -10.691019,0.68448 -4.473839,-3.13055 -9.021233,-5.45121 -13.516504,-6.8969 -3.750204,-1.20623 -7.501995,-1.81769 -11.150335,-1.81769 -4.437856,0 -7.939087,0.91679 -10.094648,1.68593 -2.036233,0.72655 -3.290623,1.46288 -3.589337,1.64677 -0.308769,-0.40217 -2.101056,-2.61911 -6.502136,-5.96398 -3.026039,-2.29949 -4.523846,-3.03794 -6.165321,-3.03794 -1.0580683,0 -2.1833412,0.31697 -3.7409433,0.75512 l -0.1658937,0.0471 c -2.4788812,0.69718 -4.980252,0.8435 -6.6423645,0.8435 -1.0654771,0 -1.7473083,-0.0617 -1.7541875,-0.0622 l -0.011377,-10e-4 c 0.048683,0.0609 0.093927,0.12436 0.1420813,0.18574 0.2547937,0.018 0.8326437,0.0516 1.6237479,0.0516 1.6729604,0 4.1915291,-0.14764 6.6894603,-0.84984 z"
         id="path6928"
         style="display:inline;stroke-width:0.264583" /></g></g></svg>
