<?xml version="1.0" encoding="UTF-8" standalone="no"?>
<!-- Created with Inkscape (http://www.inkscape.org/) -->

<svg
   width="65.742439mm"
   height="86.798714mm"
   viewBox="0 0 65.742439 86.798714"
   version="1.1"
   id="svg1"
   xml:space="preserve"
   xmlns="http://www.w3.org/2000/svg"
   xmlns:svg="http://www.w3.org/2000/svg"><defs
     id="defs1" /><g
     id="layer13"
     style="display:inline"
     transform="translate(-91.692827,-64.943724)"><g
       id="g8"><path
         d="m 157.43525,75.325937 -0.008,62.401853 c -6.37048,-1.34705 -7.77367,2.13167 -13.43501,2.94554 -5.66134,0.81386 -17.08584,-0.4996 -19.78437,-3.97615 -2.69852,-3.47655 -3.8926,-4.76075 -5.87814,-9.51013 -1.98555,-4.74937 -3.7241,-5.49117 -10.91048,-11.85907 -6.01975,-5.33567 -7.937244,-21.413103 -7.937244,-21.413103 -6.69733,-0.45462 -7.1861,-22.25135 -7.1861,-22.25135 1.60516,-12.19156 17.595854,0.0962 24.922644,-4.78832 6.28437,-3.02755 15.16134,-1.80899 22.225,-0.92604 5.46855,-2.10367 11.40593,-0.13229 17.99167,-0.13229"
         id="path6930"
         style="display:inline;fill:#bfc1c1;stroke-width:0.264583" /><path
         d="m 149.39666,138.37846 c -1.51366,0.70572 -3.07882,1.43608 -5.33316,1.75856 -1.0893,0.15603 -2.37379,0.23542 -3.81867,0.23542 -6.24787,0 -14.03808,-1.47496 -16.16878,-4.20915 -0.27094,-0.34711 -0.52683,-0.67288 -0.76992,-0.98275 -2.2379,-2.84918 -3.36145,-4.27923 -5.16303,-8.57105 -1.63562,-3.89598 -3.08467,-5.1377 -7.38617,-8.8218 -1.07204,-0.91815 -2.28692,-1.9584 -3.73403,-3.2357 -5.97332,-5.27239 -7.955614,-21.287733 -7.975104,-21.448703 l -0.0242,-0.20367 -0.10637,-0.008 c -4.88486,-0.33068 -6.45671,-12.26171 -6.94512,-18.50043 -0.0927,0.008 -0.18628,0.0137 -0.27928,0.0208 0.49369,6.31646 2.09478,18.51248 7.11023,19.01782 0.25284,1.89871 2.376024,16.563943 8.105424,21.620613 1.44878,1.2784 2.66421,2.31974 3.73708,3.23844 4.25584,3.64522 5.68958,4.87325 7.2826,8.6685 1.82886,4.35697 3.03566,5.89324 5.22651,8.68218 0.24309,0.30879 0.49871,0.63456 0.76908,0.98166 2.17582,2.79169 10.03313,4.29785 16.3211,4.29785 1.45157,0 2.74302,-0.0799 3.83872,-0.23652 2.27717,-0.32631 3.8532,-1.06105 5.37744,-1.77224 1.66819,-0.77799 3.24394,-1.51328 5.50162,-1.51328 0.77521,0 1.58912,0.0887 2.47264,0.26061 v -0.55133 c -0.88269,-0.17082 -1.69576,-0.25678 -2.47264,-0.25678 -2.29026,5.3e-4 -3.88132,0.74241 -5.56595,1.52861 z"
         id="path6948"
         style="display:inline;fill:#5b777f;stroke-width:0.264583" /><path
         fill="#a6b7bf"
         d="m 147.90708,112.59998 c -0.0323,0 -0.0656,-0.003 -0.0984,-0.0114 -0.23468,-0.054 -0.38047,-0.28813 -0.32649,-0.52229 l 0.24526,-1.06124 c 0.054,-0.23416 0.28761,-0.38047 0.52256,-0.32597 0.23415,0.0537 0.3802,0.28787 0.32623,0.52229 l -0.24527,1.06098 c -0.0466,0.20161 -0.22569,0.33761 -0.42386,0.33761 z"
         id="path6960"
         style="display:inline;stroke-width:0.264583" /><path
         fill="#a6b7bf"
         d="m 122.52004,112.59998 c -0.0323,0 -0.0653,-0.004 -0.0984,-0.0114 -0.23442,-0.054 -0.38021,-0.28813 -0.32623,-0.52229 l 0.24526,-1.06124 c 0.0542,-0.23416 0.28787,-0.38047 0.52229,-0.32597 0.23469,0.0537 0.38074,0.28787 0.3265,0.52229 l -0.24501,1.06098 c -0.0463,0.20161 -0.22622,0.33761 -0.42439,0.33761 z"
         id="path6962"
         style="display:inline;stroke-width:0.264583" /><path
         fill="#e4eef2"
         stroke="#7d96a0"
         stroke-width="0.132292"
         stroke-miterlimit="10"
         d="m 144.15185,151.67629 c -0.0328,0 -0.0654,-0.004 -0.0984,-0.0135 -0.23442,-0.0638 -0.38047,-0.33972 -0.32597,-0.617 l 0.24474,-1.2536 c 0.054,-0.27702 0.28813,-0.44979 0.52282,-0.38576 0.23442,0.064 0.38047,0.33999 0.32597,0.61701 l -0.24474,1.25386 c -0.0468,0.23786 -0.22622,0.39899 -0.42439,0.39899 z"
         id="path6964"
         style="display:inline" /><path
         fill="#e4eef2"
         stroke="#7d96a0"
         stroke-width="0.132292"
         stroke-miterlimit="10"
         d="m 139.07476,151.67629 c -0.0326,0 -0.0656,-0.004 -0.0984,-0.0135 -0.23468,-0.0638 -0.38047,-0.33972 -0.32649,-0.617 l 0.245,-1.2536 c 0.0542,-0.27702 0.2876,-0.44979 0.52255,-0.38576 0.23469,0.064 0.38047,0.33999 0.3265,0.61701 l -0.24554,1.25386 c -0.0463,0.23786 -0.22542,0.39899 -0.42359,0.39899 z"
         id="path6966"
         style="display:inline" /><path
         fill="#e4eef2"
         stroke="#7d96a0"
         stroke-width="0.132292"
         stroke-miterlimit="10"
         d="m 133.99687,151.67629 c -0.032,0 -0.0648,-0.004 -0.0979,-0.0135 -0.23469,-0.0638 -0.38074,-0.33972 -0.32676,-0.617 l 0.24527,-1.2536 c 0.0542,-0.27702 0.28786,-0.44979 0.52228,-0.38576 0.23469,0.064 0.38074,0.33999 0.32676,0.61701 l -0.24527,1.25386 c -0.0466,0.23786 -0.22569,0.39899 -0.42439,0.39899 z"
         id="path6968"
         style="display:inline" /><path
         fill="#e4eef2"
         stroke="#7d96a0"
         stroke-width="0.132292"
         stroke-miterlimit="10"
         d="m 128.91978,151.67629 c -0.0325,0 -0.0653,-0.004 -0.0987,-0.0135 -0.23415,-0.0638 -0.3802,-0.33972 -0.3257,-0.617 l 0.24501,-1.2536 c 0.054,-0.27702 0.28839,-0.44979 0.52255,-0.38576 0.23442,0.064 0.38047,0.33999 0.32596,0.61701 l -0.24474,1.25386 c -0.0468,0.23786 -0.22621,0.39899 -0.42439,0.39899 z"
         id="path6970"
         style="display:inline" /><path
         fill="#e4eef2"
         stroke="#7d96a0"
         stroke-width="0.132292"
         stroke-miterlimit="10"
         d="m 123.84243,151.67629 c -0.0325,0 -0.0653,-0.004 -0.0984,-0.0135 -0.23442,-0.0638 -0.38047,-0.33972 -0.32596,-0.617 l 0.24474,-1.2536 c 0.054,-0.27702 0.28813,-0.44979 0.52255,-0.38576 0.23442,0.064 0.38047,0.33999 0.32623,0.61701 l -0.24474,1.25386 c -0.0468,0.23786 -0.22622,0.39899 -0.42439,0.39899 z"
         id="path6972"
         style="display:inline" /><path
         fill="#e4eef2"
         stroke="#7d96a0"
         stroke-width="0.132292"
         stroke-miterlimit="10"
         d="m 118.76534,151.67629 c -0.0323,0 -0.0656,-0.004 -0.0984,-0.0135 -0.23442,-0.0638 -0.38073,-0.33972 -0.32649,-0.617 l 0.24527,-1.2536 c 0.0542,-0.27702 0.28786,-0.44979 0.52228,-0.38576 0.23443,0.064 0.38048,0.33999 0.3265,0.61701 l -0.24553,1.25386 c -0.0463,0.23786 -0.22543,0.39899 -0.4236,0.39899 z"
         id="path6974"
         style="display:inline" /><path
         fill="#e4eef2"
         stroke="#7d96a0"
         stroke-width="0.132292"
         stroke-miterlimit="10"
         d="m 113.68746,151.67629 c -0.0323,0 -0.0654,-0.004 -0.0979,-0.0135 -0.23495,-0.0638 -0.38047,-0.33972 -0.3265,-0.617 l 0.24527,-1.2536 c 0.054,-0.27702 0.28813,-0.44979 0.52229,-0.38576 0.23442,0.064 0.38047,0.33999 0.32623,0.61701 l -0.245,1.25386 c -0.0466,0.23786 -0.22569,0.39899 -0.42439,0.39899 z"
         id="path6976"
         style="display:inline" /><path
         fill="#e4eef2"
         stroke="#7d96a0"
         stroke-width="0.132292"
         stroke-miterlimit="10"
         d="m 145.02444,147.21197 c -0.0325,0 -0.0654,-0.004 -0.0984,-0.0135 -0.23442,-0.064 -0.38047,-0.34052 -0.32624,-0.61701 l 0.52309,-2.67599 c 0.0542,-0.27676 0.2876,-0.449 0.52228,-0.38577 0.23442,0.064 0.38047,0.34052 0.32623,0.6178 l -0.52281,2.67521 c -0.0468,0.23759 -0.22622,0.39925 -0.42413,0.39925 z m 1.15041,-5.88698 c -0.0323,0 -0.0656,-0.004 -0.0984,-0.0132 -0.23442,-0.0638 -0.38047,-0.33999 -0.32649,-0.61728 l 0.52282,-2.67546 c 0.0545,-0.27676 0.28813,-0.4498 0.52255,-0.38577 0.23468,0.064 0.38073,0.34026 0.32623,0.61728 l -0.52282,2.67599 c -0.0468,0.2376 -0.22569,0.39846 -0.42386,0.39846 z m 1.15014,-5.88645 c -0.0325,0 -0.0653,-0.004 -0.0987,-0.013 -0.23415,-0.0643 -0.38047,-0.34025 -0.32596,-0.61754 l 0.52255,-2.67546 c 0.0542,-0.27729 0.28813,-0.44953 0.52282,-0.38577 0.23442,0.064 0.38047,0.34026 0.32649,0.61701 l -0.52334,2.67547 c -0.0466,0.23839 -0.22596,0.39925 -0.42387,0.39925 z m 1.15015,-5.88618 c -0.0323,0 -0.0654,-0.005 -0.0979,-0.0138 -0.23521,-0.0632 -0.381,-0.33999 -0.32676,-0.61701 l 0.52282,-2.67573 c 0.0545,-0.27675 0.28813,-0.44953 0.52281,-0.3855 0.23469,0.0638 0.38047,0.34052 0.32624,0.61754 l -0.52282,2.6752 c -0.0468,0.2376 -0.22622,0.39926 -0.42439,0.39926 z m 1.15041,-5.88672 c -0.0325,0 -0.0656,-0.004 -0.0984,-0.0132 -0.23442,-0.064 -0.38021,-0.34026 -0.32623,-0.61754 l 0.52308,-2.67547 c 0.054,-0.27702 0.2876,-0.44953 0.52255,-0.38497 0.23442,0.0632 0.38047,0.33973 0.32597,0.61675 l -0.52282,2.67546 c -0.0466,0.23786 -0.22595,0.39899 -0.42412,0.39899 z m 1.15014,-5.88697 c -0.0325,0 -0.0653,-0.004 -0.0987,-0.0132 -0.23416,-0.0638 -0.38021,-0.33999 -0.3257,-0.61728 l 0.52281,-2.67493 c 0.054,-0.27702 0.28761,-0.44927 0.52256,-0.38603 0.23415,0.064 0.38047,0.34025 0.32623,0.61701 l -0.52308,2.67573 c -0.0466,0.23786 -0.22569,0.39873 -0.42413,0.39873 z"
         id="path7026"
         style="display:inline" /><path
         fill="#e4eef2"
         stroke="#7d96a0"
         stroke-width="0.132292"
         stroke-miterlimit="10"
         d="m 139.94682,147.21197 c -0.0325,0 -0.0656,-0.004 -0.0984,-0.0135 -0.23469,-0.064 -0.38021,-0.34052 -0.3265,-0.61701 l 0.52335,-2.67599 c 0.054,-0.27676 0.28786,-0.449 0.52229,-0.38577 0.23442,0.064 0.38047,0.34052 0.32623,0.6178 l -0.52282,2.67521 c -0.0463,0.23759 -0.22595,0.39925 -0.42413,0.39925 z m 1.15015,-5.88698 c -0.0323,0 -0.0654,-0.004 -0.0984,-0.0132 -0.23415,-0.0638 -0.38047,-0.33999 -0.3257,-0.61728 l 0.52282,-2.67546 c 0.054,-0.27676 0.2876,-0.4498 0.52228,-0.38577 0.23416,0.064 0.38047,0.34026 0.3265,0.61728 l -0.52308,2.67599 c -0.0466,0.2376 -0.22569,0.39846 -0.42439,0.39846 z m 1.15067,-5.88645 c -0.0325,0 -0.0653,-0.004 -0.0984,-0.013 -0.23442,-0.0643 -0.38047,-0.34025 -0.32623,-0.61754 l 0.52282,-2.67546 c 0.0542,-0.27729 0.2876,-0.44953 0.52255,-0.38577 0.23442,0.064 0.38047,0.34026 0.3265,0.61701 l -0.52308,2.67547 c -0.0468,0.23839 -0.22596,0.39925 -0.42413,0.39925 z m 1.14988,-5.88618 c -0.0323,0 -0.0653,-0.005 -0.0984,-0.0138 -0.23442,-0.0632 -0.38047,-0.33999 -0.32596,-0.61701 l 0.52281,-2.67573 c 0.0542,-0.27675 0.28787,-0.44953 0.52256,-0.3855 0.23442,0.0638 0.38047,0.34052 0.32649,0.61754 l -0.52308,2.6752 c -0.0466,0.2376 -0.22622,0.39926 -0.42439,0.39926 z m 1.15067,-5.88672 c -0.0325,0 -0.0653,-0.004 -0.0984,-0.0132 -0.23416,-0.064 -0.38074,-0.34026 -0.32624,-0.61754 l 0.52309,-2.67547 c 0.0537,-0.27702 0.28813,-0.44953 0.52228,-0.38497 0.23442,0.0632 0.38047,0.33973 0.32623,0.61675 l -0.52308,2.67546 c -0.0463,0.23786 -0.22569,0.39899 -0.42386,0.39899 z m 1.15041,-5.88697 c -0.0328,0 -0.0656,-0.004 -0.0984,-0.0132 -0.23442,-0.0638 -0.38047,-0.33999 -0.32596,-0.61728 l 0.52281,-2.67493 c 0.054,-0.27702 0.28761,-0.44927 0.52229,-0.38603 0.23442,0.064 0.38047,0.34025 0.3265,0.61701 l -0.52335,2.67573 c -0.0466,0.23786 -0.22569,0.39873 -0.42386,0.39873 z"
         id="path7028"
         style="display:inline" /><path
         fill="#e4eef2"
         stroke="#7d96a0"
         stroke-width="0.132292"
         stroke-miterlimit="10"
         d="m 134.8692,147.21197 c -0.032,0 -0.0648,-0.004 -0.0979,-0.0135 -0.23442,-0.064 -0.38074,-0.34052 -0.3265,-0.61701 l 0.52335,-2.67599 c 0.0537,-0.27676 0.2876,-0.449 0.52229,-0.38577 0.23442,0.064 0.38047,0.34052 0.32623,0.6178 l -0.52308,2.67521 c -0.0463,0.23759 -0.22569,0.39925 -0.4244,0.39925 z m 1.15094,-5.88698 c -0.0328,0 -0.0656,-0.004 -0.0984,-0.0132 -0.23442,-0.0638 -0.38047,-0.33999 -0.3265,-0.61728 l 0.52308,-2.67546 c 0.0542,-0.27676 0.2876,-0.4498 0.52255,-0.38577 0.23442,0.064 0.38047,0.34026 0.3265,0.61728 l -0.52308,2.67599 c -0.0471,0.2376 -0.22596,0.39846 -0.42413,0.39846 z m 1.14988,-5.88645 c -0.032,0 -0.0653,-0.004 -0.0982,-0.013 -0.23469,-0.0643 -0.38074,-0.34025 -0.3265,-0.61754 l 0.52309,-2.67546 c 0.0542,-0.27729 0.28786,-0.44953 0.52228,-0.38577 0.23442,0.064 0.38074,0.34026 0.3265,0.61701 l -0.52308,2.67547 c -0.0468,0.23839 -0.22569,0.39925 -0.42413,0.39925 z m 1.15041,-5.88618 c -0.0323,0 -0.0651,-0.005 -0.0984,-0.0138 -0.23442,-0.0632 -0.38047,-0.33999 -0.32649,-0.61701 l 0.52334,-2.67573 c 0.054,-0.27675 0.28814,-0.44953 0.52256,-0.3855 0.23442,0.0638 0.38047,0.34052 0.32649,0.61754 l -0.52361,2.6752 c -0.0463,0.2376 -0.22542,0.39926 -0.42386,0.39926 z m 1.15067,-5.88672 c -0.0328,0 -0.0656,-0.004 -0.0984,-0.0132 -0.23469,-0.064 -0.38074,-0.34026 -0.3265,-0.61754 l 0.52308,-2.67547 c 0.054,-0.27702 0.28813,-0.44953 0.52255,-0.38497 0.23443,0.0632 0.38048,0.33973 0.32624,0.61675 l -0.52282,2.67546 c -0.0471,0.23786 -0.22622,0.39899 -0.42413,0.39899 z m 1.15015,-5.88697 c -0.0325,0 -0.0656,-0.004 -0.0984,-0.0132 -0.23442,-0.0638 -0.38073,-0.33999 -0.32676,-0.61728 l 0.52335,-2.67493 c 0.0542,-0.27702 0.28786,-0.44927 0.52255,-0.38603 0.23442,0.064 0.38047,0.34025 0.32596,0.61701 l -0.52281,2.67573 c -0.0466,0.23786 -0.22569,0.39873 -0.42386,0.39873 z"
         id="path7030"
         style="display:inline" /><path
         fill="#e4eef2"
         stroke="#7d96a0"
         stroke-width="0.132292"
         stroke-miterlimit="10"
         d="m 129.79238,147.21197 c -0.0325,0 -0.0653,-0.004 -0.0987,-0.0135 -0.23416,-0.064 -0.38047,-0.34052 -0.32597,-0.61701 l 0.52308,-2.67599 c 0.054,-0.27676 0.28761,-0.449 0.52256,-0.38577 0.23442,0.064 0.38047,0.34052 0.32623,0.6178 l -0.52282,2.67521 c -0.0471,0.23759 -0.22622,0.39925 -0.42439,0.39925 z m 1.15041,-5.88698 c -0.0326,0 -0.0656,-0.004 -0.0984,-0.0132 -0.23468,-0.0638 -0.38073,-0.33999 -0.32676,-0.61728 l 0.52308,-2.67546 c 0.0542,-0.27676 0.28787,-0.4498 0.52256,-0.38577 0.23468,0.064 0.38073,0.34026 0.32623,0.61728 l -0.52282,2.67599 c -0.0468,0.2376 -0.22622,0.39846 -0.42386,0.39846 z m 1.15014,-5.88645 c -0.0323,0 -0.0656,-0.004 -0.0984,-0.013 -0.23442,-0.0643 -0.38047,-0.34025 -0.32624,-0.61754 l 0.52256,-2.67546 c 0.0545,-0.27729 0.28813,-0.44953 0.52308,-0.38577 0.23415,0.064 0.3802,0.34026 0.32596,0.61701 l -0.52281,2.67547 c -0.0466,0.23839 -0.22596,0.39925 -0.42413,0.39925 z m 1.15014,-5.88618 c -0.0323,0 -0.0651,-0.005 -0.0982,-0.0138 -0.23415,-0.0632 -0.38047,-0.33999 -0.32623,-0.61701 l 0.52282,-2.67573 c 0.0542,-0.27675 0.28813,-0.44953 0.52255,-0.3855 0.23442,0.0638 0.38047,0.34052 0.3265,0.61754 l -0.52335,2.6752 c -0.0468,0.2376 -0.22569,0.39926 -0.42413,0.39926 z m 1.15015,-5.88672 c -0.0323,0 -0.0653,-0.004 -0.0984,-0.0132 -0.23442,-0.064 -0.38047,-0.34026 -0.32623,-0.61754 l 0.52282,-2.67547 c 0.0542,-0.27702 0.28839,-0.44953 0.52282,-0.38497 0.23468,0.0632 0.38047,0.33973 0.32623,0.61675 l -0.52256,2.67546 c -0.0468,0.23786 -0.22648,0.39899 -0.42465,0.39899 z m 1.15041,-5.88697 c -0.0325,0 -0.0654,-0.004 -0.0982,-0.0132 -0.23495,-0.0638 -0.38047,-0.33999 -0.3265,-0.61728 l 0.52308,-2.67493 c 0.0542,-0.27702 0.28813,-0.44927 0.52255,-0.38603 0.23442,0.064 0.38047,0.34025 0.32624,0.61701 l -0.52282,2.67573 c -0.0466,0.23786 -0.22622,0.39873 -0.42439,0.39873 z"
         id="path7032"
         style="display:inline" /><path
         fill="#e4eef2"
         stroke="#7d96a0"
         stroke-width="0.132292"
         stroke-miterlimit="10"
         d="m 124.71476,147.21197 c -0.0323,0 -0.0653,-0.004 -0.0984,-0.0135 -0.23443,-0.064 -0.38048,-0.34052 -0.32597,-0.61701 l 0.52282,-2.67599 c 0.054,-0.27676 0.28786,-0.449 0.52255,-0.38577 0.23468,0.064 0.38047,0.34052 0.32623,0.6178 l -0.52282,2.67521 c -0.0468,0.23759 -0.22622,0.39925 -0.42439,0.39925 z m 1.15041,-5.88698 c -0.0325,0 -0.0653,-0.004 -0.0984,-0.0132 -0.23468,-0.0638 -0.38047,-0.33999 -0.32623,-0.61728 l 0.52282,-2.67546 c 0.0542,-0.27676 0.28839,-0.4498 0.52255,-0.38577 0.23442,0.064 0.38074,0.34026 0.3265,0.61728 l -0.52282,2.67599 c -0.0466,0.2376 -0.22622,0.39846 -0.42439,0.39846 z m 1.15041,-5.88645 c -0.0328,0 -0.0656,-0.004 -0.0987,-0.013 -0.23416,-0.0643 -0.38021,-0.34025 -0.32597,-0.61754 l 0.52282,-2.67546 c 0.054,-0.27729 0.28786,-0.44953 0.52255,-0.38577 0.23416,0.064 0.38047,0.34026 0.32623,0.61701 l -0.52282,2.67547 c -0.0466,0.23839 -0.22595,0.39925 -0.42412,0.39925 z m 1.15014,-5.88618 c -0.0325,0 -0.0656,-0.005 -0.0982,-0.0138 -0.23469,-0.0632 -0.38074,-0.33999 -0.32623,-0.61701 l 0.52282,-2.67573 c 0.0542,-0.27675 0.28786,-0.44953 0.52228,-0.3855 0.23442,0.0638 0.38047,0.34052 0.3265,0.61754 l -0.52282,2.6752 c -0.0468,0.2376 -0.22595,0.39926 -0.42439,0.39926 z m 1.15041,-5.88672 c -0.0323,0 -0.0653,-0.004 -0.0984,-0.0132 -0.23442,-0.064 -0.38047,-0.34026 -0.32623,-0.61754 l 0.52282,-2.67547 c 0.0542,-0.27702 0.2884,-0.44953 0.52255,-0.38497 0.23469,0.0632 0.38047,0.33973 0.3265,0.61675 l -0.52335,2.67546 c -0.0466,0.23786 -0.22569,0.39899 -0.42386,0.39899 z m 1.14988,-5.88697 c -0.0323,0 -0.0651,-0.004 -0.0984,-0.0132 -0.23415,-0.0638 -0.38047,-0.33999 -0.3257,-0.61728 l 0.52282,-2.67493 c 0.0537,-0.27702 0.28786,-0.44927 0.52255,-0.38603 0.23416,0.064 0.38047,0.34025 0.32623,0.61701 l -0.52308,2.67573 c -0.0463,0.23786 -0.22595,0.39873 -0.42439,0.39873 z"
         id="path7034"
         style="display:inline" /><path
         fill="#e4eef2"
         stroke="#7d96a0"
         stroke-width="0.132292"
         stroke-miterlimit="10"
         d="m 119.63767,147.21197 c -0.0323,0 -0.0656,-0.004 -0.0984,-0.0135 -0.23443,-0.064 -0.38048,-0.34052 -0.32624,-0.61701 l 0.52282,-2.67599 c 0.0542,-0.27676 0.28813,-0.449 0.52255,-0.38577 0.23442,0.064 0.38047,0.34052 0.3265,0.6178 l -0.52335,2.67521 c -0.0466,0.23759 -0.22569,0.39925 -0.42386,0.39925 z m 1.14988,-5.88698 c -0.0323,0 -0.0651,-0.004 -0.0984,-0.0132 -0.23415,-0.0638 -0.38047,-0.33999 -0.32623,-0.61728 l 0.52335,-2.67546 c 0.0537,-0.27676 0.2876,-0.4498 0.52229,-0.38577 0.23442,0.064 0.38047,0.34026 0.32649,0.61728 l -0.52308,2.67599 c -0.0463,0.2376 -0.22595,0.39846 -0.42439,0.39846 z m 1.15094,-5.88645 c -0.0328,0 -0.0656,-0.004 -0.0984,-0.013 -0.23468,-0.0643 -0.381,-0.34025 -0.32676,-0.61754 l 0.52335,-2.67546 c 0.054,-0.27729 0.28786,-0.44953 0.52229,-0.38577 0.23468,0.064 0.38047,0.34026 0.32649,0.61701 l -0.52308,2.67547 c -0.0468,0.23839 -0.22595,0.39925 -0.42386,0.39925 z m 1.15014,-5.88618 c -0.0325,0 -0.0656,-0.005 -0.0984,-0.0138 -0.23442,-0.0632 -0.38047,-0.33999 -0.3265,-0.61701 l 0.52308,-2.67573 c 0.0542,-0.27675 0.2884,-0.44953 0.52255,-0.3855 0.23442,0.0638 0.38047,0.34052 0.3265,0.61754 l -0.52308,2.6752 c -0.0471,0.2376 -0.22596,0.39926 -0.42413,0.39926 z m 1.14988,-5.88672 c -0.0323,0 -0.0651,-0.004 -0.0982,-0.0132 -0.23469,-0.064 -0.38047,-0.34026 -0.3265,-0.61754 l 0.52309,-2.67547 c 0.0542,-0.27702 0.28786,-0.44953 0.52255,-0.38497 0.23415,0.0632 0.38047,0.33973 0.32623,0.61675 l -0.52308,2.67546 c -0.0466,0.23786 -0.22543,0.39899 -0.42413,0.39899 z m 1.15067,-5.88697 c -0.0325,0 -0.0653,-0.004 -0.0984,-0.0132 -0.23442,-0.0638 -0.38047,-0.33999 -0.3265,-0.61728 l 0.52308,-2.67493 c 0.054,-0.27702 0.28787,-0.44927 0.52282,-0.38603 0.23442,0.064 0.38047,0.34025 0.32597,0.61701 l -0.52282,2.67573 c -0.0466,0.23786 -0.22595,0.39873 -0.42413,0.39873 z"
         id="path7036"
         style="display:inline" /><path
         fill="#e4eef2"
         stroke="#7d96a0"
         stroke-width="0.132292"
         stroke-miterlimit="10"
         d="m 114.56005,147.21197 c -0.0323,0 -0.0651,-0.004 -0.0982,-0.0135 -0.23468,-0.064 -0.38047,-0.34052 -0.32649,-0.61701 l 0.52308,-2.67599 c 0.0542,-0.27676 0.28813,-0.449 0.52255,-0.38577 0.23416,0.064 0.38047,0.34052 0.32597,0.6178 l -0.52282,2.67521 c -0.0466,0.23759 -0.22543,0.39925 -0.42413,0.39925 z m 1.15067,-5.88698 c -0.0325,0 -0.0653,-0.004 -0.0984,-0.0132 -0.23442,-0.0638 -0.38047,-0.33999 -0.3265,-0.61728 l 0.52309,-2.67546 c 0.054,-0.27676 0.28786,-0.4498 0.52255,-0.38577 0.23468,0.064 0.38047,0.34026 0.32623,0.61728 l -0.52308,2.67599 c -0.0466,0.2376 -0.22596,0.39846 -0.42387,0.39846 z m 1.15015,-5.88645 c -0.0323,0 -0.0651,-0.004 -0.0982,-0.013 -0.23469,-0.0643 -0.38074,-0.34025 -0.3265,-0.61754 l 0.52282,-2.67546 c 0.0542,-0.27729 0.28787,-0.44953 0.52282,-0.38577 0.23442,0.064 0.38047,0.34026 0.32623,0.61701 l -0.52282,2.67547 c -0.0471,0.23839 -0.22622,0.39925 -0.42439,0.39925 z m 1.15014,-5.88618 c -0.0323,0 -0.0651,-0.005 -0.0982,-0.0138 -0.23442,-0.0632 -0.38047,-0.33999 -0.32676,-0.61701 l 0.52308,-2.67573 c 0.0545,-0.27675 0.2884,-0.44953 0.52282,-0.3855 0.23442,0.0638 0.38047,0.34052 0.32597,0.61754 l -0.52282,2.6752 c -0.0463,0.2376 -0.22569,0.39926 -0.42413,0.39926 z m 1.15041,-5.88672 c -0.0325,0 -0.0656,-0.004 -0.0982,-0.0132 -0.23442,-0.064 -0.38047,-0.34026 -0.3265,-0.61754 l 0.52309,-2.67547 c 0.054,-0.27702 0.28813,-0.44953 0.52255,-0.38497 0.23415,0.0632 0.3802,0.33973 0.32623,0.61675 l -0.52282,2.67546 c -0.0468,0.23786 -0.22622,0.39899 -0.42439,0.39899 z m 1.15014,-5.88697 c -0.0323,0 -0.0648,-0.004 -0.0979,-0.0132 -0.23495,-0.0638 -0.38074,-0.33999 -0.3265,-0.61728 l 0.52282,-2.67493 c 0.0545,-0.27702 0.28787,-0.44927 0.52255,-0.38603 0.23469,0.064 0.38047,0.34025 0.3265,0.61701 l -0.52308,2.67573 c -0.0471,0.23786 -0.22596,0.39873 -0.4244,0.39873 z"
         id="path7038"
         style="display:inline" /><path
         stroke-miterlimit="10"
         d="m 110.88613,139.96229 c -0.0328,0 -0.0656,-0.004 -0.0987,-0.0135 -0.23416,-0.064 -0.38021,-0.34052 -0.32597,-0.61701 l 0.52308,-2.67599 c 0.0537,-0.27676 0.28787,-0.449 0.52255,-0.38576 0.23416,0.064 0.38021,0.34052 0.32624,0.6178 l -0.52335,2.6752 c -0.0463,0.2376 -0.22569,0.39926 -0.42386,0.39926 z m 1.14988,-5.88698 c -0.0323,0 -0.0654,-0.004 -0.0982,-0.0132 -0.23469,-0.0638 -0.38047,-0.33999 -0.32624,-0.61727 l 0.52282,-2.67547 c 0.0542,-0.27676 0.28787,-0.44979 0.52255,-0.38576 0.23416,0.064 0.38047,0.34025 0.32623,0.61727 l -0.52281,2.676 c -0.0468,0.23759 -0.22596,0.39846 -0.42439,0.39846 z m 1.1504,-5.88645 c -0.0323,0 -0.0653,-0.004 -0.0984,-0.013 -0.23442,-0.0643 -0.38021,-0.34025 -0.32623,-0.61753 l 0.52282,-2.67547 c 0.0542,-0.27728 0.28813,-0.44953 0.52281,-0.38576 0.23469,0.064 0.38047,0.34025 0.32623,0.617 l -0.52255,2.67547 c -0.0468,0.23839 -0.22648,0.39926 -0.42466,0.39926 z m 1.15068,-5.88619 c -0.0328,0 -0.0653,-0.005 -0.0984,-0.0138 -0.23468,-0.0632 -0.38047,-0.33999 -0.32623,-0.617 l 0.52282,-2.67574 c 0.054,-0.27675 0.28813,-0.44952 0.52255,-0.38549 0.23416,0.0638 0.38047,0.34052 0.32623,0.61753 l -0.52282,2.67521 c -0.0466,0.23759 -0.22595,0.39925 -0.42412,0.39925 z m 1.15014,-5.88671 c -0.0328,0 -0.0656,-0.004 -0.0984,-0.0132 -0.23442,-0.064 -0.38047,-0.34026 -0.32623,-0.61754 l 0.52281,-2.67547 c 0.0542,-0.27701 0.28787,-0.44952 0.52255,-0.38496 0.23442,0.0632 0.38047,0.33972 0.32624,0.61674 l -0.52282,2.67547 c -0.0466,0.23786 -0.22596,0.39899 -0.42413,0.39899 z m 1.15015,-5.88698 c -0.0323,0 -0.0656,-0.004 -0.0984,-0.0132 -0.23442,-0.0638 -0.38047,-0.33999 -0.32597,-0.61727 l 0.52282,-2.67494 c 0.0542,-0.27702 0.28787,-0.44926 0.52229,-0.38603 0.23442,0.064 0.38047,0.34026 0.32676,0.61701 l -0.52308,2.67573 c -0.0468,0.23786 -0.22622,0.39873 -0.42439,0.39873 z"
         id="path7040"
         style="display:inline;fill:#e4eef2;stroke:#7d96a0;stroke-width:0.132292;stroke-miterlimit:10" /><path
         stroke-miterlimit="10"
         d="m 106.01686,138.2996 c -0.0465,0 -0.0931,-0.006 -0.13959,-0.0183 -0.33248,-0.087 -0.53961,-0.46255 -0.46306,-0.83812 l 0.74187,-3.63499 c 0.0769,-0.37594 0.40827,-0.60991 0.74111,-0.52401 0.33248,0.087 0.53961,0.46255 0.46269,0.8392 l -0.74187,3.63391 c -0.0657,0.32275 -0.32009,0.54234 -0.60115,0.54234 z m 1.63121,-7.99669 c -0.0458,0 -0.0931,-0.005 -0.13959,-0.018 -0.33248,-0.0866 -0.53961,-0.46183 -0.46269,-0.83848 l 0.74187,-3.63427 c 0.0765,-0.37594 0.40827,-0.61098 0.74075,-0.52401 0.33247,0.087 0.53961,0.46219 0.46305,0.83849 l -0.74186,3.63498 c -0.066,0.32275 -0.32047,0.54126 -0.60153,0.54126 z m 1.63159,-7.99597 c -0.0458,0 -0.0923,-0.006 -0.1396,-0.0176 -0.33209,-0.0873 -0.5396,-0.46219 -0.46306,-0.83885 l 0.74225,-3.63427 c 0.0766,-0.37665 0.40827,-0.61062 0.74074,-0.52401 0.33247,0.087 0.53961,0.46219 0.46306,0.83813 l -0.74224,3.63427 c -0.0657,0.32382 -0.31972,0.54234 -0.60115,0.54234 z m 1.63121,-7.99561 c -0.0462,0 -0.0927,-0.006 -0.1396,-0.0187 -0.33247,-0.0859 -0.53961,-0.46183 -0.46305,-0.83813 l 0.74224,-3.63463 c 0.0765,-0.37593 0.4079,-0.61062 0.74112,-0.52364 0.33247,0.0866 0.53961,0.46255 0.46306,0.83884 l -0.74187,3.63391 c -0.066,0.32274 -0.32084,0.54234 -0.6019,0.54234 z m 1.63158,-7.99633 c -0.0462,0 -0.0927,-0.006 -0.13921,-0.018 -0.33285,-0.087 -0.53961,-0.46219 -0.46344,-0.83884 l 0.74225,-3.63427 c 0.0766,-0.3763 0.40864,-0.61063 0.74074,-0.52293 0.33247,0.0859 0.53999,0.46147 0.46306,0.83776 l -0.74187,3.63427 c -0.0664,0.32311 -0.32009,0.54198 -0.60153,0.54198 z m 1.63159,-7.996693 c -0.0458,0 -0.0927,-0.006 -0.13959,-0.018 -0.3321,-0.0866 -0.53961,-0.46183 -0.46306,-0.83848 l 0.74187,-3.63356 c 0.0769,-0.37629 0.40865,-0.61026 0.74149,-0.52436 0.3321,0.087 0.53961,0.46219 0.46193,0.83812 l -0.74149,3.63463 c -0.066,0.32311 -0.31971,0.54162 -0.60115,0.54162 z"
         id="path7044"
         style="display:inline;fill:#e4eef2;stroke:#7d96a0;stroke-width:0.18362;stroke-miterlimit:10" /><path
         stroke-miterlimit="10"
         d="m 101.00258,135.01877 c -0.0499,0 -0.10112,-0.006 -0.15188,-0.0194 -0.36312,-0.0919 -0.58951,-0.48884 -0.50558,-0.88577 l 0.80975,-3.84163 c 0.0835,-0.3973 0.445,-0.64457 0.80812,-0.55379 0.36312,0.0919 0.5891,0.48884 0.50477,0.8869 l -0.80894,3.8405 c -0.0725,0.34109 -0.34961,0.57316 -0.65624,0.57316 z m 1.77999,-8.45128 c -0.0504,0 -0.10112,-0.006 -0.15229,-0.019 -0.3623,-0.0915 -0.58869,-0.48808 -0.50477,-0.88615 l 0.80976,-3.84087 c 0.0831,-0.39731 0.445,-0.64572 0.80812,-0.5538 0.3623,0.0919 0.58869,0.48847 0.50394,0.88615 l -0.80893,3.84163 c -0.0721,0.34109 -0.34879,0.57203 -0.65583,0.57203 z m 1.77958,-8.45053 c -0.05,0 -0.10112,-0.006 -0.15188,-0.0186 -0.36312,-0.0923 -0.5891,-0.48846 -0.50518,-0.88653 l 0.80894,-3.84087 c 0.0839,-0.39807 0.44541,-0.64534 0.80852,-0.5538 0.36272,0.0919 0.58869,0.48847 0.50518,0.88577 l -0.80935,3.84088 c -0.0725,0.34222 -0.3492,0.57316 -0.65623,0.57316 z m 1.77999,-8.45014 c -0.05,0 -0.10112,-0.007 -0.1523,-0.0198 -0.3627,-0.0908 -0.58868,-0.48808 -0.50517,-0.88577 l 0.80894,-3.84125 c 0.0843,-0.39731 0.4454,-0.64534 0.80893,-0.55342 0.36312,0.0915 0.5891,0.48885 0.50477,0.88653 l -0.80935,3.8405 c -0.0716,0.34109 -0.34961,0.57316 -0.65582,0.57316 z m 1.77957,-8.45091 c -0.0499,0 -0.10071,-0.006 -0.15188,-0.019 -0.36312,-0.0919 -0.58869,-0.48846 -0.50517,-0.88653 l 0.80934,-3.840873 c 0.0839,-0.39768 0.44623,-0.64533 0.80853,-0.55266 0.36271,0.0908 0.58869,0.48771 0.50477,0.88539 l -0.80894,3.840883 c -0.0725,0.34147 -0.35002,0.57278 -0.65665,0.57278 z m 1.77999,-8.451293 c -0.0503,0 -0.10112,-0.006 -0.15229,-0.019 -0.36271,-0.0915 -0.58869,-0.48809 -0.50477,-0.88615 l 0.80894,-3.84012 c 0.0839,-0.39768 0.44541,-0.64495 0.80894,-0.55417 0.36271,0.0919 0.58828,0.48846 0.50436,0.88577 l -0.80894,3.84125 c -0.0721,0.34147 -0.34961,0.57241 -0.65624,0.57241 z"
         id="path7048"
         style="display:inline;fill:#e4eef2;stroke:#7d96a0;stroke-width:0.197165;stroke-miterlimit:10" /><path
         stroke-miterlimit="10"
         d="m 97.880816,134.32375 c -0.0394,0 -0.0799,-0.007 -0.12026,-0.0214 -0.28642,-0.10143 -0.46455,-0.53945 -0.39827,-0.97745 l 0.63879,-4.23928 c 0.0666,-0.43843 0.35205,-0.7113 0.63879,-0.61112 0.28643,0.10143 0.46488,0.53944 0.39861,0.97871 l -0.6388,4.23802 c -0.0569,0.3764 -0.2764,0.6325 -0.51886,0.6325 z m 1.40626,-9.32608 c -0.0401,0 -0.0802,-0.006 -0.12059,-0.0209 -0.2861,-0.10102 -0.46487,-0.53861 -0.3986,-0.97788 l 0.63912,-4.23844 c 0.0656,-0.43843 0.3514,-0.71255 0.638474,-0.61112 0.28675,0.10144 0.46487,0.53903 0.3986,0.97788 l -0.638794,4.23928 c -0.0572,0.37639 -0.27608,0.63123 -0.51821,0.63123 z m 1.405284,-9.32523 c -0.0398,0 -0.0802,-0.007 -0.12026,-0.0205 -0.28642,-0.10185 -0.46487,-0.53902 -0.39827,-0.97829 l 0.63847,-4.23844 c 0.0663,-0.43927 0.35172,-0.71214 0.63847,-0.61112 0.28674,0.10143 0.46487,0.53902 0.39892,0.97746 l -0.63879,4.23843 c -0.0572,0.37766 -0.27641,0.6325 -0.51854,0.6325 z m 1.40496,-9.32482 c -0.0391,0 -0.0799,-0.008 -0.11993,-0.0218 -0.28643,-0.10018 -0.46488,-0.53861 -0.39861,-0.97746 l 0.6388,-4.23885 c 0.0663,-0.43844 0.35205,-0.71214 0.63815,-0.61071 0.28707,0.10102 0.46552,0.53945 0.39925,0.9783 l -0.63912,4.23802 c -0.0569,0.37639 -0.27576,0.6325 -0.51854,0.6325 z m 1.40593,-9.325653 c -0.0398,0 -0.0798,-0.007 -0.12058,-0.021 -0.2861,-0.10143 -0.46487,-0.53902 -0.39795,-0.97829 l 0.63847,-4.23844 c 0.0659,-0.43885 0.3514,-0.71213 0.63879,-0.60987 0.2861,0.10018 0.46488,0.53819 0.39828,0.97704 l -0.63879,4.23844 c -0.0566,0.37682 -0.27608,0.63208 -0.51822,0.63208 z m 1.40561,-9.32608 c -0.0398,0 -0.0798,-0.007 -0.11993,-0.0209 -0.28675,-0.10102 -0.4652,-0.53861 -0.39893,-0.97788 l 0.63912,-4.2376 c 0.0663,-0.43885 0.3514,-0.71171 0.63815,-0.61154 0.28642,0.10144 0.46487,0.53903 0.39892,0.97746 l -0.63879,4.23886 c -0.0572,0.37681 -0.2764,0.63166 -0.51854,0.63166 z"
         id="path7052"
         style="display:inline;fill:#e4eef2;stroke:#7d96a0;stroke-width:0.184053;stroke-miterlimit:10" /><path
         stroke-miterlimit="10"
         d="m 95.816746,124.73425 c -0.0376,0 -0.0755,-0.008 -0.11409,-0.0232 -0.27069,-0.11001 -0.43985,-0.58507 -0.37653,-1.06014 l 0.6041,-4.5979 c 0.0624,-0.47552 0.33279,-0.77147 0.60441,-0.66282 0.27069,0.11002 0.43984,0.58508 0.37683,1.06151 l -0.60471,4.59654 c -0.0535,0.40823 -0.26091,0.686 -0.49001,0.686 z m 1.32994,-10.11501 c -0.0379,0 -0.0755,-0.007 -0.11379,-0.0227 -0.27131,-0.10956 -0.44015,-0.58417 -0.37714,-1.0606 l 0.60441,-4.59699 c 0.0627,-0.47552 0.33279,-0.77283 0.6041,-0.66282 0.271,0.11002 0.43984,0.58463 0.37744,1.0606 l -0.60471,4.5979 c -0.0541,0.40824 -0.26152,0.68464 -0.49031,0.68464 z m 1.32963,-10.11411 c -0.0376,0 -0.0759,-0.007 -0.11379,-0.0223 -0.271,-0.11047 -0.43984,-0.58462 -0.37744,-1.06105 l 0.60471,-4.596993 c 0.0627,-0.47643 0.33279,-0.77238 0.60379,-0.66282 0.27131,0.11002 0.44015,0.58463 0.37745,1.06015 l -0.60471,4.596993 c -0.0532,0.4096 -0.26091,0.686 -0.49001,0.686 z m 1.32963,-10.113653 c -0.0373,0 -0.0756,-0.008 -0.11379,-0.0236 -0.27069,-0.10865 -0.43984,-0.58417 -0.37683,-1.06014 l 0.60471,-4.59745 c 0.0624,-0.47552 0.332484,-0.77238 0.603794,-0.66236 0.2707,0.10956 0.43985,0.58508 0.37714,1.06105 l -0.60471,4.59654 c -0.0535,0.40824 -0.2609,0.686 -0.490314,0.686 z m 1.330244,-10.11456 c -0.0376,0 -0.0756,-0.007 -0.11378,-0.0227 -0.27101,-0.11002 -0.44016,-0.58463 -0.37745,-1.06105 l 0.60471,-4.597 c 0.0624,-0.47597 0.3331,-0.77237 0.60379,-0.66145 0.27162,0.10865 0.44016,0.58372 0.37776,1.05969 l -0.60471,4.59699 c -0.0548,0.4087 -0.26122,0.68555 -0.49032,0.68555 z m 1.32933,-10.11502 c -0.0373,0 -0.0756,-0.007 -0.11348,-0.0227 -0.27131,-0.10956 -0.43985,-0.58417 -0.37745,-1.0606 l 0.60502,-4.59608 c 0.0621,-0.47597 0.33279,-0.77192 0.60379,-0.66327 0.271,0.11001 0.43985,0.58462 0.37745,1.06014 l -0.60502,4.59745 c -0.0538,0.40869 -0.26122,0.68509 -0.49031,0.68509 z"
         id="path7056"
         style="display:inline;fill:#e4eef2;stroke:#7d96a0;stroke-width:0.186448;stroke-miterlimit:10" /><path
         style="display:inline;fill:#e6f0f4;fill-opacity:1;stroke-width:0.264583"
         id="path4619"
         d="m 157.43499,65.816877 c -6.58574,0 -12.52312,-1.97138 -17.99167,0.13229 -7.06366,-0.88295 -15.94063,-2.10151 -22.225,0.92604 -7.32679,4.88453 -23.317484,-7.40324 -24.922644,4.78832 4.56932,-7.67917 14.064104,-1.3355 21.707614,-2.60942 2.14965,-0.35828 4.9599,-1.01069 6.92227,-1.40317 6.14303,-1.2286 15.28103,-0.59218 21.5152,0.18709 2.63582,-1.15503 14.61445,0.21807 14.99423,-2.02115 z" /></g></g></svg>
