<?xml version="1.0" encoding="UTF-8" standalone="no"?>
<!-- Created with Inkscape (http://www.inkscape.org/) -->

<svg
   width="50.217655mm"
   height="16.845776mm"
   viewBox="0 0 50.217655 16.845776"
   version="1.1"
   id="svg1"
   xml:space="preserve"
   xmlns="http://www.w3.org/2000/svg"
   xmlns:svg="http://www.w3.org/2000/svg"><defs
     id="defs1" /><g
     id="layer7"
     style="display:inline"
     transform="translate(-97.98746,-177.78453)"><g
       id="g10"><g
         id="g9"><path
           fill="#ffffff"
           d="m 146.44273,188.73481 c 0.0863,-0.23363 0.13282,-0.48286 0.13282,-0.74216 0,-1.32556 -1.22158,-2.4003 -2.72838,-2.4003 -0.27649,0 -0.54372,0.037 -0.79508,0.10398 -0.23812,-2.05104 -2.20794,-3.65151 -4.60189,-3.65151 -1.60788,0 -3.02445,0.72152 -3.85313,1.81689 -0.0238,0.003 -0.0479,0.006 -0.0714,0.008 -0.42412,-0.36618 -1.00488,-0.5924 -1.64544,-0.5924 -0.29977,0 -0.58579,0.05 -0.84931,0.1397 -0.84746,-0.84191 -2.08571,-1.37266 -3.46446,-1.37266 -0.31221,0 -0.61621,0.0275 -0.91016,0.0799 -0.30877,-2.39342 -2.61779,-4.25291 -5.42026,-4.25291 -2.63604,0 -4.83526,1.64412 -5.34511,3.83038 -0.18547,-0.0368 -0.37862,-0.0566 -0.57732,-0.0566 -1.40864,0 -2.55641,0.98161 -2.60932,2.20928 -1.00701,0.20002 -1.8415,0.79877 -2.27992,1.59676 -0.61992,-0.25506 -1.31154,-0.3982 -2.04099,-0.3982 -1.71027,0 -3.21204,0.78422 -4.06638,1.96665 -0.20347,-0.0339 -0.41275,-0.0521 -0.6268,-0.0521 -1.5203,0 -2.80538,0.88424 -3.22818,2.09974 -0.31353,-0.13626 -0.66596,-0.21299 -1.03902,-0.21299 -1.296724,0 -2.348184,0.92498 -2.348184,2.06613 0,1.14115 1.05146,2.06666 2.348184,2.06666 0.80486,0 1.515,-0.35666 1.93834,-0.89959 0.60563,0.50853 1.42557,0.82127 2.32886,0.82127 0.58446,0 1.134,-0.13097 1.61369,-0.36063 0.83476,0.61172 1.90818,0.97976 3.07975,0.97976 1.20756,0 2.3114,-0.39132 3.15701,-1.03717 1.15623,1.25201 2.92047,2.05317 4.8977,2.05317 1.96004,0 3.71131,-0.78687 4.86834,-2.02142 0.0648,0.0418 0.13096,0.0831 0.19843,0.12277 1.1557,1.1631 2.85539,1.89865 4.7498,1.89865 1.94416,0 3.68274,-0.77444 4.84003,-1.99099 0.0148,-0.007 0.0291,-0.0132 0.0437,-0.0204 0.90488,0.57997 2.01851,0.92287 3.22395,0.92287 1.46103,0 2.78897,-0.50377 3.77137,-1.32424 0.42783,0.39899 1.03426,0.64849 1.70709,0.64849 0.71094,0 1.347,-0.27781 1.77774,-0.71649 h 3.60071 c 1.04855,0 1.89812,-0.74771 1.89812,-1.66978 0,-0.85646 -0.73183,-1.56157 -1.67481,-1.65894 z"
           id="path7060"
           style="display:inline;stroke-width:0.264583" /><path
           fill="#e6f0f4"
           d="m 136.51265,193.34808 c -0.57838,-1.66713 -2.34077,-2.87998 -4.42515,-2.87998 -1.60788,0 -3.02393,0.72151 -3.85313,1.81662 -0.0238,0.003 -0.0476,0.006 -0.0714,0.009 -0.42333,-0.36645 -1.00436,-0.59241 -1.64571,-0.59241 -0.2995,0 -0.58552,0.0498 -0.84878,0.13944 -0.84746,-0.84217 -2.08571,-1.37266 -3.46472,-1.37266 -0.31168,0 -0.61595,0.0275 -0.91043,0.0791 -0.3085,-2.39289 -2.61752,-4.25265 -5.42025,-4.25265 -2.63578,0 -4.83473,1.64439 -5.34485,3.83091 -0.18547,-0.037 -0.37888,-0.0566 -0.57732,-0.0566 -1.40864,0 -2.55667,0.98134 -2.60932,2.20928 -0.33946,0.0672 -0.65802,0.18123 -0.95012,0.33152 0.82153,0.57414 1.86108,0.91837 2.99217,0.91837 1.20756,0 2.3114,-0.39132 3.15701,-1.03717 1.15623,1.25201 2.92047,2.05317 4.8977,2.05317 1.96004,0 3.71131,-0.78687 4.86834,-2.02142 0.0648,0.0418 0.13096,0.0831 0.19843,0.12277 1.1557,1.16311 2.85539,1.89865 4.7498,1.89865 1.94416,0 3.68274,-0.77444 4.84003,-1.99099 0.0148,-0.007 0.0291,-0.0132 0.0437,-0.0204 0.90488,0.57997 2.01851,0.92287 3.22395,0.92287 0.39449,-2.6e-4 0.7792,-0.0376 1.15014,-0.10716 z"
           id="path7302"
           style="display:inline;stroke-width:0.264583" /><path
           fill="#6a8993"
           d="m 127.25515,194.63026 c -1.83859,0 -3.58908,-0.6985 -4.80378,-1.91612 -0.0431,-0.0257 -0.0873,-0.0524 -0.13044,-0.0799 -1.2192,1.26973 -2.99402,1.99602 -4.88235,1.99602 -1.90395,0 -3.68777,-0.7366 -4.90829,-2.02327 -0.88053,0.65034 -1.99469,1.00753 -3.14642,1.00753 -1.12395,0 -2.2188,-0.34264 -3.08928,-0.96573 -0.49159,0.22675 -1.04537,0.34713 -1.60417,0.34713 -0.85989,0 -1.67931,-0.2786 -2.31669,-0.78554 -0.45905,0.54239 -1.18163,0.86386 -1.95051,0.86386 -1.342764,0 -2.435754,-0.96599 -2.435754,-2.15371 0,-1.18718 1.09299,-2.15318 2.435754,-2.15318 0.34449,0 0.67654,0.0619 0.98849,0.18468 0.4773,-1.24275 1.78196,-2.07116 3.27871,-2.07116 0.19447,0 0.39185,0.0151 0.58791,0.0445 0.91043,-1.22793 2.44104,-1.95897 4.10554,-1.95897 0.6977,0 1.37133,0.12647 2.00236,0.37597 0.4535,-0.77417 1.28006,-1.35096 2.2352,-1.55919 0.0934,-1.25253 1.2618,-2.22461 2.69267,-2.22461 0.17171,0 0.34396,0.0148 0.51223,0.0431 0.26802,-1.05515 0.9361,-2.01321 1.88939,-2.7051 0.98769,-0.71728 2.23838,-1.11204 3.52108,-1.11204 2.78659,0 5.1308,1.8161 5.4938,4.23942 0.27782,-0.0442 0.55907,-0.0664 0.83688,-0.0664 1.32715,0 2.59503,0.4953 3.48747,1.36101 0.26565,-0.0847 0.54319,-0.12779 0.8263,-0.12779 0.62521,0 1.21735,0.20849 1.67084,0.58738 0.88027,-1.14089 2.33416,-1.82034 3.89864,-1.82034 1.17237,0 2.29579,0.3818 3.16362,1.0758 0.83688,0.66834 1.37107,1.57268 1.51209,2.55455 0.23442,-0.0548 0.47652,-0.0828 0.72126,-0.0828 1.55231,0 2.81569,1.11601 2.81569,2.48734 0,0.22755 -0.0347,0.45218 -0.10345,0.66913 0.94509,0.14367 1.64518,0.87181 1.64518,1.73117 0,0.96864 -0.89006,1.75684 -1.98517,1.75684 h -3.56473 c -0.46249,0.45614 -1.1213,0.71649 -1.81372,0.71649 -0.64717,0 -1.25121,-0.21961 -1.71,-0.62045 -1.03029,0.83635 -2.36511,1.29567 -3.76846,1.29567 -1.16602,0 -2.27992,-0.3138 -3.2258,-0.90779 -1.2192,1.26947 -2.99641,1.99655 -4.88209,1.99655 z m -4.96253,-2.22039 0.0611,0.0394 c 0.0653,0.0418 0.13097,0.0823 0.195,0.12038 l 0.0101,0.006 0.008,0.008 c 1.18215,1.19036 2.8911,1.87299 4.68788,1.87299 1.84865,0 3.58987,-0.71597 4.77679,-1.96427 l 0.0116,-0.0124 0.0307,-0.0138 c 0.009,-0.004 0.0183,-0.008 0.0275,-0.0122 l 0.0439,-0.0212 0.0405,0.0267 c 0.92737,0.59425 2.02512,0.90858 3.17659,0.90858 1.38933,0 2.70854,-0.46276 3.71528,-1.3036 l 0.059,-0.0495 0.0561,0.0524 c 0.4326,0.40296 1.01812,0.62494 1.64809,0.62494 0.65934,0 1.28455,-0.25162 1.71556,-0.69029 l 0.0251,-0.0262 h 3.63775 c 0.99854,0 1.81107,-0.71014 1.81107,-1.58247 0,-0.80222 -0.68659,-1.4777 -1.59676,-1.57136 l -0.11191,-0.0119 0.0389,-0.10504 c 0.0849,-0.22913 0.12779,-0.46857 0.12779,-0.71173 0,-1.27529 -1.18507,-2.31272 -2.64133,-2.31272 -0.26273,0 -0.52282,0.0339 -0.77259,0.10054 l -0.0974,0.0262 -0.0116,-0.10055 c -0.23681,-2.03755 -2.17779,-3.57425 -4.51512,-3.57425 -1.52453,0 -2.93899,0.66648 -3.78354,1.78223 l -0.0228,0.0294 -0.0582,0.007 c -0.0161,0.002 -0.0323,0.004 -0.0484,0.006 l -0.0386,0.006 -0.0296,-0.0257 c -0.42625,-0.36856 -0.99034,-0.5715 -1.58856,-0.5715 -0.28205,0 -0.55854,0.0455 -0.82127,0.13547 l -0.0511,0.0172 -0.0386,-0.0381 c -0.86175,-0.85646 -2.10185,-1.34779 -3.40254,-1.34779 -0.29766,0 -0.59929,0.0262 -0.89562,0.0783 l -0.09,0.0161 -0.0116,-0.0908 c -0.30692,-2.38125 -2.60006,-4.17697 -5.33347,-4.17697 -2.53973,0 -4.75165,1.58247 -5.26018,3.7629 l -0.0193,0.0825 -0.0825,-0.0167 c -0.18309,-0.0362 -0.37173,-0.0548 -0.56038,-0.0548 -1.36314,0 -2.47095,0.93372 -2.52228,2.12593 l -0.003,0.0688 -0.0672,0.0132 c -0.96097,0.19103 -1.7915,0.77153 -2.22092,1.5531 l -0.0376,0.0685 -0.072,-0.0299 c -0.63077,-0.25982 -1.30652,-0.39158 -2.0074,-0.39158 -1.62824,0 -3.12235,0.72178 -3.99626,1.93014 l -0.0315,0.0439 -0.0529,-0.009 c -0.20399,-0.0339 -0.4101,-0.0508 -0.61251,-0.0508 -1.45679,0 -2.72124,0.82047 -3.14616,2.04099 l -0.0307,0.0889 -0.0862,-0.0378 c -0.31433,-0.13626 -0.6522,-0.20532 -1.0041,-0.20532 -1.246714,0 -2.261134,0.88741 -2.261134,1.97882 0,1.09114 1.01442,1.97908 2.261134,1.97908 0.74798,0 1.44674,-0.32385 1.86902,-0.86572 l 0.0558,-0.0712 0.0691,0.0582 c 0.61569,0.51647 1.42267,0.80063 2.2733,0.80063 0.55087,0 1.09564,-0.12197 1.57586,-0.35216 l 0.0471,-0.0228 0.0423,0.031 c 0.84746,0.62071 1.92273,0.96282 3.02789,0.96282 1.14141,0 2.24393,-0.36195 3.10356,-1.01944 l 0.0632,-0.0481 0.0534,0.0582 c 1.1885,1.28694 2.94983,2.02513 4.8342,2.02513 1.8661,0 3.61738,-0.72682 4.80457,-1.99311 z"
           id="path7398"
           style="display:inline;stroke-width:0.264583" /></g></g></g></svg>
