<?xml version="1.0" encoding="UTF-8" standalone="no"?>
<!-- Created with Inkscape (http://www.inkscape.org/) -->

<svg
   width="57.356438mm"
   height="9.0857019mm"
   viewBox="0 0 57.356438 9.0857019"
   version="1.1"
   id="svg1"
   xml:space="preserve"
   xmlns="http://www.w3.org/2000/svg"
   xmlns:svg="http://www.w3.org/2000/svg"><defs
     id="defs1" /><g
     id="layer6"
     style="display:inline"
     transform="translate(-104.50032,-192.17442)"><g
       id="g11"><path
         fill="#ffffff"
         d="m 134.15376,193.06786 c 0,0 -13.03205,-0.84375 -13.45618,-0.58684 -0.42439,0.25744 0.0884,0.0156 4.09866,0.58684 4.01029,0.57097 -3.21204,1.32133 -3.24168,1.33192 -0.0302,0.0108 7.90496,-0.49451 13.09661,-0.43498 5.19166,0.0595 9.5377,1.08135 10.66456,0.24924 1.1266,-0.83265 -9.45462,-1.18772 -6.95192,-1.78197 2.50296,-0.59425 -4.21005,0.63579 -4.21005,0.63579 z"
         id="path7260"
         style="display:inline;stroke-width:0.264583" /><path
         fill="#4a6977"
         d="m 143.606,194.63552 v 0 c -0.87419,0 -1.99417,-0.10266 -3.29063,-0.22119 -1.6838,-0.15452 -3.59277,-0.32914 -5.66552,-0.35349 -0.28204,-0.003 -0.58182,-0.004 -0.89032,-0.004 -2.92709,0 -6.89557,0.14049 -11.79433,0.41777 -0.28919,0.0164 -0.39026,0.022 -0.40878,0.022 h -0.082 l -0.0291,-0.1598 0.077,-0.0267 c 0.0124,-0.005 0.0124,-0.005 0.14553,-0.0204 3.84439,-0.44503 4.2074,-0.77549 4.2418,-0.83238 -0.0214,-0.0299 -0.16669,-0.15716 -1.12739,-0.29395 -1.97141,-0.28099 -3.0824,-0.36354 -3.67904,-0.40799 -0.52943,-0.0397 -0.59742,-0.0447 -0.62256,-0.14896 -0.0225,-0.0926 0.0606,-0.14314 0.16642,-0.2069 0.0503,-0.0302 0.15928,-0.0624 0.82127,-0.0624 2.79876,0 12.28513,0.6088 12.67989,0.63447 0.3011,-0.055 4.36192,-0.79719 4.74716,-0.79719 0.10477,0 0.12091,0.0693 0.12382,0.0902 0.0109,0.0929 -0.0778,0.118 -0.20002,0.15266 -0.0945,0.027 -0.23998,0.0635 -0.43286,0.10954 -0.16325,0.0386 -0.24368,0.0709 -0.28284,0.0908 0.27834,0.1614 1.84017,0.35216 3.10806,0.50668 0.98742,0.11986 2.00845,0.24448 2.80379,0.38338 1.22819,0.21511 1.43483,0.38444 1.47505,0.53578 0.0164,0.0616 0.01,0.15478 -0.11748,0.24818 -0.3175,0.23495 -0.87894,0.34449 -1.76688,0.34449 z m -9.84647,-0.77153 c 0.30903,0 0.61013,0.002 0.8927,0.005 2.08069,0.0238 3.99336,0.19897 5.68061,0.35322 1.29196,0.11853 2.40744,0.2204 3.27289,0.2204 h 2.7e-4 c 0.84428,0 1.36948,-0.0968 1.65232,-0.3056 0.0402,-0.0302 0.0452,-0.0471 0.0452,-0.0474 -0.007,-0.0265 -0.10371,-0.17991 -1.31789,-0.39211 -0.79031,-0.13838 -1.81107,-0.26326 -2.79717,-0.38311 -2.58816,-0.31486 -3.29089,-0.43657 -3.30518,-0.69163 -0.003,-0.0474 0.0159,-0.0868 0.0519,-0.12091 -1.06362,0.17251 -2.74161,0.47334 -3.7637,0.66066 l -0.0116,0.002 -0.0119,-8e-4 c -0.0984,-0.007 -9.84145,-0.63526 -12.67963,-0.63526 -0.30586,0 -0.48366,0.007 -0.58658,0.0159 0.0696,0.006 0.14949,0.0119 0.23574,0.018 0.59928,0.0455 1.71424,0.12833 3.69253,0.41011 1.07764,0.15346 1.29725,0.30533 1.29487,0.48604 -0.002,0.18256 -0.24289,0.39237 -1.97697,0.68659 -0.0582,0.01 -0.11642,0.0193 -0.17489,0.0291 3.99283,-0.20691 7.28477,-0.31063 9.80652,-0.31063 z"
         id="path7262"
         style="display:inline;stroke-width:0.264583" /><path
         fill="#ffffff"
         d="m 111.5766,199.16333 c -4.01982,-0.30797 -6.82652,-0.89244 -6.88896,-2.03094 0,0 -0.99907,0.68792 3.62744,0.62363 4.6265,-0.0643 9.40461,0.42862 9.78403,-0.25718 0.37914,-0.6858 -0.22755,-1.11469 -4.17169,-1.45759 -3.94361,-0.34316 -6.06769,-0.17118 -6.15209,-1.15252 -0.0841,-0.98108 2.05634,-0.9914 3.87667,-0.92393 1.82007,0.0675 5.2332,0.53314 8.32565,0.92393 3.09324,0.39131 14.5796,0.20928 18.67508,0.22886 4.09549,0.019 4.09549,0.83767 2.14233,0.92366 -1.95447,0.0857 -4.49315,1.11443 2.53365,1.45759 7.02707,0.34343 1.61925,1.20068 1.61925,1.20068 -2.73023,0.6858 -11.60991,0 -11.60991,0 0.44926,0.6858 -0.88212,1.0287 -0.88212,1.0287 h -15.34319 z"
         id="path7264"
         style="display:inline;stroke-width:0.264583" /><path
         fill="#4a6977"
         d="m 132.46836,199.82479 -15.36541,-5.3e-4 -5.53641,-0.56541 c -4.08754,-0.313 -6.2603,-0.85275 -6.82836,-1.69704 -0.14764,-0.0704 -0.22728,-0.15795 -0.23681,-0.26061 -0.014,-0.14367 0.11589,-0.2376 0.13097,-0.24818 l 0.14182,-0.0979 0.01,0.17198 c 0.005,0.0968 0.0347,0.19182 0.087,0.28231 0.29554,0.11906 1.0332,0.2548 2.85935,0.2548 0.18574,0 0.38179,-0.002 0.58341,-0.004 0.28363,-0.004 0.58287,-0.006 0.889,-0.006 1.29169,0 2.5945,0.0354 3.74332,0.0664 0.9734,0.0265 1.89204,0.0513 2.66224,0.0513 0.55139,0 2.22911,0 2.40585,-0.31936 0.0918,-0.16615 0.10822,-0.29289 0.0511,-0.39899 -0.21617,-0.40296 -1.4949,-0.68553 -4.14708,-0.91625 -0.93768,-0.0818 -1.76874,-0.13388 -2.5019,-0.17992 -2.44105,-0.15345 -3.6658,-0.23045 -3.73777,-1.06045 -0.0164,-0.19288 0.0418,-0.36221 0.17145,-0.50403 0.34502,-0.37412 1.1983,-0.54821 2.68605,-0.54821 0.32068,0 0.67681,0.008 1.11892,0.0241 1.55575,0.0577 4.29684,0.40825 6.94902,0.74798 0.46461,0.0595 0.92922,0.1188 1.38536,0.17674 1.36789,0.17277 4.45611,0.25321 9.71867,0.25321 1.72747,0 3.45996,-0.008 4.98846,-0.0156 1.25465,-0.006 2.33865,-0.0116 3.22739,-0.0116 0.26246,0 0.50641,5.2e-4 0.72866,0.002 0.82021,0.004 3.49673,0.0622 3.50864,0.64849 0.007,0.36777 -0.95065,0.44953 -1.36234,0.46778 -1.10834,0.0487 -2.00819,0.35931 -2.00898,0.53632 0,0.0519 0.12647,0.51355 4.54263,0.72919 1.28323,0.0624 2.23917,0.14711 2.84136,0.25109 0.59875,0.10345 0.84719,0.21801 0.85698,0.39608 0.007,0.13996 -0.11244,0.31432 -1.06071,0.54292 -0.47255,0.1143 -0.95303,0.19235 -1.00357,0.20056 -0.81359,0.20373 -2.24128,0.30691 -4.24285,0.30691 -3.00408,0 -6.43388,-0.23548 -7.22551,-0.29236 0.0402,0.11694 0.0381,0.23283 -0.006,0.34502 -0.17383,0.44767 -0.97896,0.6596 -1.01309,0.66833 z m -15.35033,-0.19288 h 15.32546 c 0.21511,-0.0574 0.75697,-0.2585 0.86995,-0.54822 0.0402,-0.10424 0.0222,-0.21272 -0.0564,-0.33152 l -0.10689,-0.16378 0.19527,0.0151 c 0.0392,0.003 3.98224,0.30453 7.37922,0.30453 1.98994,0 3.40255,-0.10133 4.2,-0.30215 l 0.008,-0.001 c 0.9787,-0.15557 1.84362,-0.40269 1.90421,-0.54371 -0.0143,-0.0201 -0.11695,-0.12356 -0.77232,-0.23019 -0.59822,-0.0966 -1.51977,-0.17621 -2.74082,-0.23575 -1.62904,-0.0796 -2.85723,-0.20161 -3.64966,-0.36221 -0.73554,-0.14923 -1.07712,-0.32676 -1.07659,-0.55933 10e-4,-0.43127 1.30889,-0.68924 2.19313,-0.7284 0.89879,-0.0392 1.17872,-0.22304 1.17766,-0.2712 -0.002,-0.0881 -0.59716,-0.44688 -3.31576,-0.45984 -0.22198,-10e-4 -0.46566,-0.002 -0.72787,-0.002 -0.88847,0 -1.97194,0.005 -3.22633,0.0111 -1.52823,0.008 -3.26151,0.0159 -4.98924,0.0159 -5.2713,0 -8.36666,-0.081 -9.74276,-0.25479 -0.45693,-0.0582 -0.92101,-0.11748 -1.38615,-0.17675 -2.64715,-0.33893 -5.38453,-0.68924 -6.93129,-0.74692 -0.43973,-0.0159 -0.79375,-0.0233 -1.11178,-0.0233 -1.40996,0 -2.24208,0.15902 -2.5437,0.48631 -0.0937,0.1016 -0.13309,0.21801 -0.12091,0.35718 0.0572,0.6649 1.30069,0.74242 3.55679,0.88451 0.73448,0.046 1.56686,0.0984 2.50693,0.18018 3.26866,0.28442 4.08384,0.61251 4.30053,1.01758 0.0892,0.16669 0.0717,0.35693 -0.0524,0.58235 -0.16696,0.30216 -0.88874,0.4191 -2.57493,0.4191 -0.77258,0 -1.69307,-0.0246 -2.66753,-0.0516 -1.14776,-0.0304 -2.44925,-0.0656 -3.73803,-0.0656 -0.30533,0 -0.60352,0.002 -0.88662,0.006 -0.20241,0.003 -0.39979,0.004 -0.58605,0.004 -1.22211,0 -2.10291,-0.0598 -2.62811,-0.1778 0.76915,0.65855 2.89931,1.11443 6.48123,1.38853 z"
         id="path7266"
         style="display:inline;stroke-width:0.264583" /><path
         fill="#ffffff"
         d="m 143.72559,201.05193 c 0.65908,0 13.46808,0.25188 16.90687,0 3.43906,-0.25294 -1.84652,-0.44926 -4.44791,-1.10834 -2.60059,-0.65987 1.60523,-1.47373 -1.92325,-1.63883 -3.52955,-0.1651 -4.22117,1.5703 -8.61351,1.63883 -4.39182,0.0677 -8.17669,-0.2032 -6.28386,0.55642 1.89257,0.75935 4.36166,0.55192 4.36166,0.55192 z"
         id="path7268"
         style="display:inline;stroke-width:0.264583" /><path
         fill="#4a6977"
         d="m 154.86719,201.25989 c -3.74015,0 -8.00311,-0.0653 -10.05178,-0.0968 -0.58817,-0.009 -0.97896,-0.0151 -1.08585,-0.0153 -0.0397,0.003 -0.3384,0.0257 -0.79587,0.0257 v 0 c -0.98028,0 -2.40136,-0.10107 -3.60601,-0.5842 -0.42862,-0.17171 -0.58499,-0.29501 -0.55694,-0.43788 0.0429,-0.2204 0.45032,-0.29845 2.65588,-0.29845 0.33761,0 0.70009,0.002 1.08109,0.003 0.42519,0.002 0.87445,0.004 1.34038,0.004 0.67072,0 1.25942,-0.004 1.79864,-0.0127 2.20927,-0.0347 3.44725,-0.48393 4.64529,-0.91811 1.03769,-0.37623 2.01718,-0.73183 3.50573,-0.73183 0.1524,0 0.30956,0.004 0.46831,0.0111 1.19962,0.0564 1.49331,0.18494 1.56527,0.36195 0.0661,0.16166 -0.0788,0.31591 -0.21828,0.46487 -0.12435,0.13203 -0.26458,0.28258 -0.22966,0.40032 0.0294,0.10133 0.19685,0.25532 0.82603,0.41433 1.05648,0.26829 2.5445,0.45747 3.74068,0.60987 1.73302,0.2204 1.91082,0.26008 1.90659,0.42148 -0.003,0.11695 -0.0587,0.18124 -1.21655,0.2667 -1.01733,0.0741 -2.95937,0.11218 -5.77295,0.11218 z m -11.14557,-0.30506 h 0.004 c 0.10266,0 0.49636,0.006 1.09273,0.0153 2.04867,0.0318 6.31084,0.0971 10.04887,0.0971 2.80908,0 4.74636,-0.0381 5.75866,-0.11192 0.4355,-0.0318 0.694,-0.0606 0.84746,-0.0844 -0.32121,-0.0648 -0.94245,-0.14367 -1.54834,-0.22093 -1.20095,-0.15267 -2.69584,-0.3429 -3.76423,-0.61331 -0.59134,-0.15081 -0.898,-0.32438 -0.96361,-0.54715 -0.0659,-0.22305 0.1143,-0.41593 0.27411,-0.58553 0.0796,-0.0849 0.20029,-0.21378 0.18071,-0.26088 -0.0222,-0.0545 -0.20241,-0.18626 -1.39542,-0.24235 -0.15584,-0.008 -0.30956,-0.0111 -0.45905,-0.0111 -1.45441,0 -2.41855,0.34978 -3.43958,0.7202 -1.15623,0.41936 -2.46592,0.89482 -4.708,0.93001 -0.54107,0.008 -1.13003,0.0122 -1.80207,0.0122 -0.4662,0 -0.91573,-0.002 -1.34091,-0.004 -0.381,-0.001 -0.74322,-0.003 -1.08056,-0.003 -0.67707,0 -2.23335,0 -2.45428,0.14128 0.0294,0.0299 0.12515,0.10213 0.42784,0.2241 1.23772,0.49636 2.74531,0.57071 3.53351,0.57071 v 0 c 0.47281,0 0.78105,-0.0254 0.78396,-0.0259 z"
         id="path7270"
         style="display:inline;stroke-width:0.264583" /></g></g></svg>
