<?xml version="1.0" encoding="UTF-8" standalone="no"?>
<!-- Created with Inkscape (http://www.inkscape.org/) -->

<svg
   width="139.06557mm"
   height="202.59523mm"
   viewBox="0 0 139.06557 202.59523"
   version="1.1"
   id="svg1"
   xml:space="preserve"
   xmlns="http://www.w3.org/2000/svg"
   xmlns:svg="http://www.w3.org/2000/svg"><defs
     id="defs1" /><g
     id="layer1"
     transform="translate(-35.924439,-47.04167)"><g
       id="g1"><path
         d="m 119.92381,198.53453 37.19286,-56.54524 C 238.15475,18.617862 -27.638097,18.617862 53.4,141.98929 l 37.192858,56.54524 z"
         fill="#fad311"
         id="path5"
         style="stroke-width:0.206706" /><path
         d="M 119.92381,200.6512 H 90.592858 c -0.604764,0 -1.511906,-0.30239 -1.814288,-0.90715 L 51.888094,143.19881 C 31.023809,111.44881 34.35,89.979765 41.002381,77.582147 51.283333,58.834528 75.776191,47.04167 105.40952,47.04167 c 29.63334,0 54.42857,11.792858 64.40715,30.540477 6.65238,12.397618 10.28095,33.564283 -10.88572,65.616663 l -37.19286,56.54524 c -0.30237,0.60476 -1.20952,0.90714 -1.81428,0.90715 z m -28.121428,-4.23334 h 27.214288 l 36.58809,-55.63809 c 15.72381,-23.8881 19.35238,-45.054766 10.58333,-61.080956 -9.3738,-17.235715 -33.2619,-28.121429 -60.77857,-28.121429 -27.516662,0 -51.404759,11.188095 -60.778568,28.121429 -8.769049,16.02619 -5.140476,37.192856 10.583333,61.080956 z"
         fill="#141515"
         id="path6"
         style="stroke-width:0.206706" /><path
         d="m 121.13333,217.88691 v 22.67857 c 0,3.93095 -3.02381,6.95476 -6.95476,6.95476 H 96.640476 c -3.930952,0 -6.954761,-3.02381 -6.954761,-6.95476 v -22.67857 z"
         fill="#8f7eb1"
         id="path7"
         style="stroke-width:0.206706" /><path
         d="M 114.48095,249.6369 H 96.942858 c -5.140476,0 -9.07143,-3.93094 -9.07143,-9.07142 v -24.79524 h 35.680952 v 24.79524 c 0,5.14048 -4.53571,9.07142 -9.07143,9.07142 z M 91.802382,220.00358 v 20.5619 c 0,2.72143 2.116666,4.8381 4.838094,4.8381 h 17.538094 c 2.72143,0 4.8381,-2.11667 4.8381,-4.8381 v -20.5619 z"
         fill="#141515"
         id="path8"
         style="stroke-width:0.206706" /><path
         d="m 116.59762,198.53453 28.12143,-56.54524 c 61.38333,-123.371428 -139.7000028,-123.371428 -78.316668,0 l 28.121427,56.54524 z"
         fill="#b2d577"
         id="path9"
         style="stroke-width:0.206706" /><path
         d="M 117.50476,200.6512 H 92.709524 L 63.983333,142.89643 C 45.840476,106.30834 51.585715,83.629765 59.447618,70.929765 68.519046,56.113099 85.754761,47.344051 105.10714,47.344051 c 19.35238,0 36.5881,8.769048 45.65953,23.585714 7.8619,12.7 13.60714,35.680955 -4.53572,71.966665 z m -21.771427,-4.23334 h 19.654757 l 27.51667,-55.33571 C 160.14048,106.30834 155,84.83929 147.74286,73.046432 138.97381,59.439289 123.25,51.577385 105.40952,51.577385 c -17.840474,0 -33.564283,8.164285 -42.03095,21.469047 -7.257142,11.792858 -12.397618,33.261908 4.838097,68.035718 z"
         fill="#141515"
         id="path10"
         style="stroke-width:0.206706" /><path
         d="M 110.85238,198.53453 124.7619,141.98929 C 155,18.617862 55.516667,18.617862 86.057143,141.98929 l 13.909524,56.54524 z"
         fill="#e9606e"
         id="path11"
         style="stroke-width:0.206706" /><path
         d="M 110.85238,200.6512 H 99.966667 c -0.907143,0 -1.814285,-0.60477 -2.116667,-1.51191 L 83.940476,142.59405 c -9.373809,-38.1 -7.257143,-70.152379 5.140476,-86.17857 4.535715,-5.745238 10.280952,-9.071429 16.328568,-9.071429 6.04762,0 11.79286,3.326191 16.32857,9.071429 12.7,16.026191 14.51429,48.38095 5.14048,86.17857 l -13.90952,56.54524 c 0,0.90714 -0.90715,1.51191 -2.11667,1.51191 z m -9.07143,-4.23334 h 7.55953 l 13.60714,-55.03333 c 9.07143,-36.5881 7.25714,-67.430955 -4.53572,-82.550002 -3.93095,-4.838096 -8.46666,-7.257143 -13.00238,-7.257143 -4.53571,0 -9.071425,2.419047 -13.002377,7.257143 -11.792858,15.119047 -13.304761,45.961902 -4.535715,82.550002 z"
         fill="#141515"
         id="path12"
         style="stroke-width:0.206706" /><path
         d="m 92.709524,218.79405 c -1.209524,0 -2.116666,-0.90714 -2.116666,-2.11667 v -17.53809 c 0,-1.20952 0.907142,-2.11667 2.116666,-2.11667 1.209524,0 2.116667,0.90715 2.116667,2.11667 v 17.53809 c 0,0.90715 -0.604763,2.11667 -2.116667,2.11667 z m 25.399996,0 c -1.20952,0 -2.11666,-0.90714 -2.11666,-2.11667 v -17.53809 c 0,-1.20952 0.90714,-2.11667 2.11666,-2.11667 1.20953,0 2.11667,0.90715 2.11667,2.11667 v 17.53809 c -0.30238,0.90715 -1.20952,2.11667 -2.11667,2.11667 z m -12.7,0 c -1.20952,0 -2.11666,-0.90714 -2.11666,-2.11667 v -17.53809 c 0,-1.20952 0.90714,-2.11667 2.11666,-2.11667 1.20953,0 2.11667,0.90715 2.11667,2.11667 v 17.53809 c 0,0.90715 -1.20952,2.11667 -2.11667,2.11667 z"
         fill="#141515"
         id="path13"
         style="stroke-width:0.206706" /></g></g></svg>
